<?xml version="1.0" encoding="UTF-8"?>
<svg version="1.1" xmlns="http://www.w3.org/2000/svg" width="360" height="360">
<path d="M0 0 C118.8 0 237.6 0 360 0 C360 118.8 360 237.6 360 360 C241.2 360 122.4 360 0 360 C0 241.2 0 122.4 0 0 Z " fill="#FEFEFE" transform="translate(0,0)"/>
<path d="M0 0 C1.44203796 -0.00024925 1.44203796 -0.00024925 2.91320801 -0.00050354 C4.0044397 -0.00988449 5.09567139 -0.01926544 6.2199707 -0.02893066 C7.39813354 -0.01769669 8.57629639 -0.00646271 9.79016113 0.00511169 C10.99958374 0.00365646 12.20900635 0.00220123 13.45507812 0.0007019 C16.01389981 0.00236302 18.57273127 0.01394783 21.13146973 0.03465271 C25.05589081 0.063591 28.97896071 0.05526821 32.90344238 0.04222107 C35.38652189 0.0484586 37.86959711 0.05684966 40.35266113 0.06761169 C42.1199054 0.06320824 42.1199054 0.06320824 43.92285156 0.05871582 C45.01408325 0.07139999 46.10531494 0.08408417 47.22961426 0.09715271 C48.1909729 0.10255569 49.15233154 0.10795868 50.14282227 0.11352539 C52.98475822 0.56718879 53.86463232 1.22741727 55.57141113 3.50120544 C56.18737793 5.58250427 56.18737793 5.58250427 56.52062988 7.95823669 C56.64631348 8.82384216 56.77199707 9.68944763 56.90148926 10.58128357 C57.07841309 11.9338324 57.07841309 11.9338324 57.25891113 13.31370544 C57.38846191 14.2038031 57.5180127 15.09390076 57.65148926 16.01097107 C58.28614754 20.54088653 58.7305944 24.91521118 58.57141113 29.50120544 C59.53627441 29.72163513 59.53627441 29.72163513 60.52062988 29.94651794 C67.39618659 31.65314686 73.41537145 34.17248532 79.72375488 37.39183044 C82.86387147 38.61514061 83.51468235 38.57966797 86.57141113 37.50120544 C88.51855051 36.37083877 88.51855051 36.37083877 90.43469238 34.96214294 C91.15721191 34.46456482 91.87973145 33.96698669 92.62414551 33.45433044 C94.12648467 32.40516014 95.62139518 31.34526873 97.10852051 30.27464294 C98.19810059 29.53214294 98.19810059 29.53214294 99.30969238 28.77464294 C99.95978271 28.31493103 100.60987305 27.85521912 101.27966309 27.38157654 C104.86002022 26.00618847 106.89019509 26.430692 110.57141113 27.50120544 C113.50339635 29.56626114 115.95906073 32.02378746 118.47375488 34.57151794 C119.55760216 35.64319717 119.55760216 35.64319717 120.66334534 36.73652649 C122.18256202 38.24729868 123.6941894 39.76573627 125.1986084 41.29124451 C127.50325407 43.620488 129.84049136 45.91297426 132.18273926 48.20433044 C133.65683965 49.67880126 135.12891648 51.1552985 136.59875488 52.63401794 C137.64856789 53.65787094 137.64856789 53.65787094 138.71958923 54.70240784 C141.91634365 57.99353539 143.44156284 59.63774501 144.13952637 64.27903748 C143.62079981 67.22108868 143.32039476 68.67716089 141.45422363 70.92308044 C140.79100098 71.74872498 140.79100098 71.74872498 140.11437988 72.59104919 C139.6464502 73.13890076 139.17852051 73.68675232 138.69641113 74.25120544 C137.78190896 75.37063807 136.86783147 76.4904178 135.95422363 77.61058044 C135.16789551 78.56448669 134.38156738 79.51839294 133.57141113 80.50120544 C131.31089336 83.21718577 131.31089336 83.21718577 131.76281738 85.76292419 C133.10472853 90.30727065 135.15130912 94.5220607 137.09875488 98.83323669 C138.65887691 102.71905788 139.64323776 106.42531368 140.57141113 110.50120544 C141.8617627 110.69456482 143.15211426 110.88792419 144.48156738 111.08714294 C146.19905148 111.3499274 147.9164974 111.61296148 149.63391113 111.87620544 C150.48146973 112.00253357 151.32902832 112.12886169 152.20227051 112.25901794 C157.12170995 113.01877693 161.86230395 113.86271131 166.57141113 115.50120544 C167.86146936 118.0813219 167.70548748 119.94812384 167.7166748 122.83714294 C167.72624458 124.50897644 167.72624458 124.50897644 167.73600769 126.21458435 C167.73767693 128.02708679 167.73767693 128.02708679 167.73937988 129.87620544 C167.74270828 131.11161072 167.74603668 132.34701599 167.74946594 133.61985779 C167.75453604 136.23590217 167.75687424 138.85195303 167.75671387 141.46800232 C167.75663236 144.15687245 167.76360959 146.84557316 167.77722168 149.53440857 C167.79546144 153.39839436 167.80044669 157.26218103 167.80187988 161.12620544 C167.8090654 162.33454041 167.81625092 163.54287537 167.82365417 164.78782654 C167.82057755 165.9023822 167.81750092 167.01693787 167.81433105 168.16526794 C167.81575607 169.1496283 167.81718109 170.13398865 167.81864929 171.1481781 C167.57141113 173.50120544 167.57141113 173.50120544 165.57141113 175.50120544 C163.28063965 176.09544373 163.28063965 176.09544373 160.45031738 176.57151794 C159.43260254 176.74554138 158.4148877 176.91956482 157.36633301 177.09886169 C156.29963379 177.27288513 155.23293457 177.44690857 154.13391113 177.62620544 C153.0710791 177.80796326 152.00824707 177.98972107 150.91320801 178.17698669 C143.0425695 179.50120544 143.0425695 179.50120544 139.57141113 179.50120544 C139.23109863 181.35745544 139.23109863 181.35745544 138.88391113 183.25120544 C137.41365491 189.92553406 134.86006932 196.6647688 131.35266113 202.54417419 C130.28033459 205.23035217 130.81456966 206.73314451 131.57141113 209.50120544 C132.75792088 211.59104612 132.75792088 211.59104612 134.29406738 213.53245544 C134.83225098 214.26077576 135.37043457 214.98909607 135.92492676 215.73948669 C137.06567092 217.24918011 138.20890937 218.756992 139.35461426 220.26292419 C139.89150879 220.99124451 140.42840332 221.71956482 140.98156738 222.46995544 C141.47793701 223.12415466 141.97430664 223.77835388 142.48571777 224.45237732 C143.86080118 227.04731772 143.8590085 228.58856704 143.57141113 231.50120544 C142.3210144 233.39324951 142.3210144 233.39324951 140.54553223 235.18992615 C139.88419281 235.87025406 139.22285339 236.55058197 138.54147339 237.25152588 C137.81658722 237.96942795 137.09170105 238.68733002 136.34484863 239.42698669 C135.60441315 240.17457748 134.86397766 240.92216827 134.10110474 241.69241333 C132.53186159 243.26943991 130.95618387 244.84008583 129.37463379 246.4047699 C126.95708432 248.80311704 124.57025197 251.229289 122.18469238 253.65940857 C120.6565164 255.18787494 119.12662357 256.7146271 117.59484863 258.23948669 C116.88210785 258.96750992 116.16936707 259.69553314 115.43502808 260.44561768 C110.43475651 265.33059289 110.43475651 265.33059289 106.35314941 266.13719177 C103.26903233 265.43207285 101.54309677 264.5076519 99.04016113 262.58714294 C98.22934082 261.99159607 97.41852051 261.39604919 96.58312988 260.78245544 C94.90488117 259.50876124 93.23040442 258.23008209 91.55969238 256.94651794 C86.9774193 253.32626645 86.9774193 253.32626645 81.45422363 252.91136169 C80.50289551 253.43601013 79.55156738 253.96065857 78.57141113 254.50120544 C77.33520208 255.00695782 76.09250867 255.497057 74.84484863 255.97386169 C72.88220471 256.77118579 70.92180818 257.57380331 68.96203613 258.37815857 C65.85465582 259.6393524 62.83518065 260.7395401 59.57141113 261.50120544 C59.41321899 262.6136261 59.41321899 262.6136261 59.25183105 263.7485199 C58.76706442 267.10558803 58.26323076 270.45952145 57.75891113 273.81370544 C57.5932666 274.98095154 57.42762207 276.14819763 57.25695801 277.35081482 C57.00075684 279.0282074 57.00075684 279.0282074 56.73937988 280.73948669 C56.58751221 281.77113953 56.43564453 282.80279236 56.2791748 283.8657074 C55.4896867 286.80552254 54.96336969 287.68408377 52.57141113 289.50120544 C50.14282227 289.88215637 50.14282227 289.88215637 47.22961426 289.88938904 C46.13838257 289.89884552 45.04715088 289.908302 43.92285156 289.91804504 C42.74468872 289.91197235 41.56652588 289.90589966 40.35266113 289.89964294 C39.14323853 289.90251312 37.93381592 289.9053833 36.68774414 289.90834045 C34.12894218 289.9103833 31.57012469 289.90483812 29.01135254 289.89231873 C25.08700759 289.87626923 21.16369267 289.89216107 17.23937988 289.91136169 C14.75630468 289.9093793 12.27323013 289.90553572 9.79016113 289.89964294 C8.02291687 289.90875198 8.02291687 289.90875198 6.2199707 289.91804504 C5.12873901 289.90858856 4.03750732 289.89913208 2.91320801 289.88938904 C1.47117004 289.88580887 1.47117004 289.88580887 0 289.88215637 C-2.8455306 289.43580354 -3.72178852 288.77783285 -5.42858887 286.50120544 C-6.04455566 284.40403748 -6.04455566 284.40403748 -6.37780762 282.00901794 C-6.56633301 280.70384216 -6.56633301 280.70384216 -6.75866699 279.37229919 C-6.87661621 278.46608826 -6.99456543 277.55987732 -7.11608887 276.62620544 C-7.24563965 275.72772888 -7.37519043 274.82925232 -7.50866699 273.90354919 C-8.09168922 269.72676561 -8.49460007 265.7249861 -8.42858887 261.50120544 C-9.07183105 261.35425232 -9.71507324 261.20729919 -10.37780762 261.05589294 C-17.25336432 259.34926403 -23.27254919 256.82992557 -29.58093262 253.61058044 C-32.71922519 252.38798087 -33.37605719 252.40724917 -36.42858887 253.50120544 C-38.38117772 254.70851908 -38.38117772 254.70851908 -40.29187012 256.22386169 C-41.01438965 256.76204529 -41.73690918 257.30022888 -42.48132324 257.85472107 C-43.98227999 258.98984393 -45.47716153 260.13304698 -46.96569824 261.28440857 C-47.69208496 261.8213031 -48.41847168 262.35819763 -49.16687012 262.91136169 C-49.81696045 263.40773132 -50.46705078 263.90410095 -51.13684082 264.41551208 C-54.57309126 266.04340233 -56.65927234 266.09182632 -60.42858887 265.50120544 C-63.25715575 263.62530835 -65.4916403 261.27790759 -67.82312012 258.82542419 C-68.83326424 257.80398064 -68.83326424 257.80398064 -69.86381531 256.76190186 C-72.00651173 254.58672643 -74.12338078 252.38818761 -76.24108887 250.18870544 C-77.68418219 248.71906503 -79.12882803 247.25094737 -80.57507324 245.78440857 C-83.21492718 243.09430061 -85.85151625 240.40138988 -88.46691895 237.68748474 C-88.99207596 237.14343491 -89.51723297 236.59938507 -90.05830383 236.03884888 C-92.10445766 233.74279009 -93.34521575 231.90955117 -93.96374512 228.88011169 C-93.01442399 222.88622283 -88.6622727 218.69544924 -84.96179199 214.04612732 C-84.3720459 213.27720154 -83.7822998 212.50827576 -83.17468262 211.71604919 C-82.62481689 211.02632019 -82.07495117 210.33659119 -81.50842285 209.6259613 C-80.09052067 206.83599914 -80.51776713 205.43815315 -81.42858887 202.50120544 C-82.1490336 200.95586489 -82.9233916 199.4348636 -83.74108887 197.93870544 C-86.65027285 192.33176074 -88.57539828 186.5266631 -90.42858887 180.50120544 C-92.69916014 180.04157563 -94.97006237 179.58358067 -97.24108887 179.12620544 C-97.91873291 178.98900085 -98.59637695 178.85179626 -99.29455566 178.71043396 C-104.29783442 177.70506092 -109.31229795 176.81990581 -114.35437012 176.02854919 C-116.42858887 175.50120544 -116.42858887 175.50120544 -118.42858887 173.50120544 C-118.68928528 171.15490723 -118.68928528 171.15490723 -118.70324707 168.18113708 C-118.71277908 167.06980911 -118.7223111 165.95848114 -118.73213196 164.81347656 C-118.73122055 163.60827866 -118.73030914 162.40308075 -118.72937012 161.16136169 C-118.73365524 159.92832809 -118.73794037 158.69529449 -118.74235535 157.42489624 C-118.74958311 154.14295834 -118.74646402 150.86120287 -118.74078369 147.57926941 C-118.74108834 145.56721238 -118.75112334 143.5554498 -118.76477051 141.54344177 C-118.78919931 137.6867735 -118.79342815 133.8305975 -118.79187012 129.97386169 C-118.80107986 128.77068802 -118.81028961 127.56751434 -118.81977844 126.32788086 C-118.81354965 125.21340073 -118.80732086 124.09892059 -118.80090332 122.95066833 C-118.80153275 121.96852859 -118.80216217 120.98638885 -118.80281067 119.9744873 C-118.36616347 117.08862767 -117.74858512 116.21506539 -115.42858887 114.50120544 C-113.00842285 113.80931091 -113.00842285 113.80931091 -110.17468262 113.36839294 C-108.64617676 113.11895935 -108.64617676 113.11895935 -107.08679199 112.86448669 C-105.49254395 112.62278748 -105.49254395 112.62278748 -103.86608887 112.37620544 C-101.76021322 112.04282815 -99.65472172 111.70701228 -97.54968262 111.36839294 C-96.1486731 111.15352234 -96.1486731 111.15352234 -94.71936035 110.93431091 C-92.4099361 110.60574041 -92.4099361 110.60574041 -90.42858887 109.50120544 C-89.63826332 107.7594414 -89.63826332 107.7594414 -89.02624512 105.64183044 C-88.77552246 104.85550232 -88.5247998 104.06917419 -88.26647949 103.25901794 C-88.01060059 102.43143982 -87.75472168 101.60386169 -87.49108887 100.75120544 C-84.79267879 92.05556171 -84.79267879 92.05556171 -82.61218262 88.73558044 C-81.15098426 86.54941532 -81.15098426 86.54941532 -81.92468262 84.07542419 C-83.79966832 80.86603308 -86.05454555 78.10177269 -88.49108887 75.31370544 C-94.20227082 68.68937518 -94.20227082 68.68937518 -94.92858887 64.87620544 C-93.6944658 56.54587472 -83.35010736 49.23963133 -77.61608887 43.50120544 C-76.75821777 42.63108826 -75.90034668 41.76097107 -75.01647949 40.86448669 C-74.19728027 40.04335388 -73.37808105 39.22222107 -72.53405762 38.37620544 C-71.79308838 37.63112732 -71.05211914 36.88604919 -70.28869629 36.11839294 C-68.42858887 34.50120544 -68.42858887 34.50120544 -66.42858887 34.50120544 C-66.20171387 33.92370544 -65.97483887 33.34620544 -65.74108887 32.75120544 C-63.998324 29.76360854 -62.40189845 28.28519119 -59.42858887 26.50120544 C-53.27019747 26.6575854 -49.93729525 28.83497621 -45.30358887 32.50120544 C-39.96516424 36.90174259 -39.96516424 36.90174259 -33.42858887 38.50120544 C-30.88501406 37.68648826 -30.88501406 37.68648826 -28.36608887 36.31370544 C-14.36050228 29.50120544 -14.36050228 29.50120544 -8.42858887 29.50120544 C-8.3551123 28.30237732 -8.3551123 28.30237732 -8.28015137 27.07933044 C-6.52844186 1.34732175 -6.52844186 1.34732175 0 0 Z " fill="#FDFEFD" transform="translate(159.4285888671875,29.498794555664063)"/>
<path d="M0 0 C2.5 0.4375 2.5 0.4375 4.14453125 1.88671875 C6.19780787 5.75066582 5.81741175 9.39083177 5.6875 13.6875 C5.625625 16.575 5.56375 19.4625 5.5 22.4375 C11.77 22.4375 18.04 22.4375 24.5 22.4375 C24.38175274 17.02248644 24.38175274 17.02248644 24.22973633 11.60839844 C24.19218997 8.19935075 24.21702607 5.97833184 25.8203125 2.9140625 C27.5 1.4375 27.5 1.4375 30.5625 1.0625 C33.5 1.4375 33.5 1.4375 35.5 3.4375 C35.72705078 5.40869141 35.72705078 5.40869141 35.6953125 7.7890625 C35.68886719 8.63984375 35.68242187 9.490625 35.67578125 10.3671875 C35.65064453 11.70136719 35.65064453 11.70136719 35.625 13.0625 C35.61597656 13.9596875 35.60695313 14.856875 35.59765625 15.78125 C35.5740497 18.00026586 35.5411231 20.21875077 35.5 22.4375 C36.39404541 22.42009766 36.39404541 22.42009766 37.30615234 22.40234375 C44.20572134 22.3238918 50.21405413 22.48384079 55.5859375 27.3125 C60.50449567 32.77310335 61.63057627 36.20468624 61.5625 43.625 C61.55347656 44.89730469 61.54445312 46.16960937 61.53515625 47.48046875 C61.51775391 48.94419922 61.51775391 48.94419922 61.5 50.4375 C62.38522339 50.41393433 62.38522339 50.41393433 63.28833008 50.38989258 C65.96295586 50.32752061 68.63742864 50.28850343 71.3125 50.25 C72.7056543 50.21229492 72.7056543 50.21229492 74.12695312 50.17382812 C75.01962891 50.16416016 75.91230469 50.15449219 76.83203125 50.14453125 C77.65421143 50.1288208 78.4763916 50.11311035 79.32348633 50.09692383 C82.0182342 50.51859217 82.8752191 51.283646 84.5 53.4375 C84.9375 55.9375 84.9375 55.9375 84.5 58.4375 C82.68582204 60.49617633 81.22031854 61.35253085 78.48413086 61.67529297 C76.06405577 61.73304157 73.66999915 61.69816979 71.25 61.625 C68.3625 61.563125 65.475 61.50125 62.5 61.4375 C62.5 67.7075 62.5 73.9775 62.5 80.4375 C63.92054688 80.41429687 65.34109375 80.39109375 66.8046875 80.3671875 C68.66145309 80.34843229 70.51822435 80.33023183 72.375 80.3125 C73.31214844 80.29574219 74.24929688 80.27898437 75.21484375 80.26171875 C76.11074219 80.25527344 77.00664062 80.24882812 77.9296875 80.2421875 C78.75710449 80.23171387 79.58452148 80.22124023 80.43701172 80.21044922 C82.5 80.4375 82.5 80.4375 84.5 82.4375 C84.75 85.4375 84.75 85.4375 84.5 88.4375 C82.5 90.4375 82.5 90.4375 80.43701172 90.66455078 C79.60959473 90.65407715 78.78217773 90.64360352 77.9296875 90.6328125 C77.12257324 90.62781738 76.31545898 90.62282227 75.48388672 90.61767578 C74.4579541 90.59946777 73.43202148 90.58125977 72.375 90.5625 C67.486875 90.500625 67.486875 90.500625 62.5 90.4375 C62.5 97.0375 62.5 103.6375 62.5 110.4375 C68.99211076 110.35842297 68.99211076 110.35842297 75.48388672 110.25732422 C76.29100098 110.2523291 77.09811523 110.24733398 77.9296875 110.2421875 C78.75710449 110.23171387 79.58452148 110.22124023 80.43701172 110.21044922 C82.5 110.4375 82.5 110.4375 84.5 112.4375 C84.8125 115.4375 84.8125 115.4375 84.5 118.4375 C81.29593538 120.57354308 80.50399253 120.67958908 76.83203125 120.6328125 C75.93935547 120.62636719 75.04667969 120.61992187 74.12695312 120.61328125 C72.73379883 120.58814453 72.73379883 120.58814453 71.3125 120.5625 C70.37212891 120.55347656 69.43175781 120.54445313 68.46289062 120.53515625 C66.14167032 120.51159056 63.82096356 120.47869116 61.5 120.4375 C61.54640625 121.29472656 61.5928125 122.15195313 61.640625 123.03515625 C61.86460525 130.1305306 61.95541097 134.7779239 57.5 140.4375 C52.47597222 145.20388533 48.05953733 146.71353379 41.1875 146.5625 C40.11886719 146.54445312 39.05023438 146.52640625 37.94921875 146.5078125 C37.14097656 146.48460937 36.33273438 146.46140625 35.5 146.4375 C35.53480469 147.70207031 35.56960937 148.96664062 35.60546875 150.26953125 C35.63360677 151.92967423 35.66090691 153.58983156 35.6875 155.25 C35.71263672 156.08337891 35.73777344 156.91675781 35.76367188 157.77539062 C35.77333984 158.57783203 35.78300781 159.38027344 35.79296875 160.20703125 C35.8086792 160.94542236 35.82438965 161.68381348 35.84057617 162.44458008 C35.4024522 165.00831199 34.54349409 165.87532853 32.5 167.4375 C29.9375 167.75 29.9375 167.75 27.5 167.4375 C25.5 165.4375 25.5 165.4375 25.27294922 163.46630859 C25.28342285 162.68078613 25.29389648 161.89526367 25.3046875 161.0859375 C25.30968262 160.31942871 25.31467773 159.55291992 25.31982422 158.76318359 C25.33803223 157.78945801 25.35624023 156.81573242 25.375 155.8125 C25.41625 152.71875 25.4575 149.625 25.5 146.4375 C18.9 146.4375 12.3 146.4375 5.5 146.4375 C5.57893723 151.89729658 5.57893723 151.89729658 5.68017578 157.35668945 C5.6851709 158.03948975 5.69016602 158.72229004 5.6953125 159.42578125 C5.70578613 160.12227783 5.71625977 160.81877441 5.72705078 161.53637695 C5.5 163.4375 5.5 163.4375 3.5 166.4375 C0 166.8125 0 166.8125 -3.5 166.4375 C-5.53120707 163.39068939 -5.74659875 162.83631676 -5.6953125 159.42578125 C-5.69031738 158.74298096 -5.68532227 158.06018066 -5.68017578 157.35668945 C-5.66196777 156.49648193 -5.64375977 155.63627441 -5.625 154.75 C-5.58375 152.006875 -5.5425 149.26375 -5.5 146.4375 C-12.1 146.4375 -18.7 146.4375 -25.5 146.4375 C-25.38139256 152.60073878 -25.38139256 152.60073878 -25.22973633 158.76318359 C-25.22224365 159.52969238 -25.21475098 160.29620117 -25.20703125 161.0859375 C-25.1913208 161.87145996 -25.17561035 162.65698242 -25.15942383 163.46630859 C-25.27181396 164.11680176 -25.3842041 164.76729492 -25.5 165.4375 C-28.5 167.4375 -28.5 167.4375 -31.0625 167.1875 C-33.5 166.4375 -33.5 166.4375 -35.5 164.4375 C-35.72705078 162.55810547 -35.72705078 162.55810547 -35.6953125 160.3046875 C-35.68886719 159.49902344 -35.68242187 158.69335938 -35.67578125 157.86328125 C-35.65902344 157.02152344 -35.64226562 156.17976562 -35.625 155.3125 C-35.61597656 154.46300781 -35.60695312 153.61351562 -35.59765625 152.73828125 C-35.57405647 150.63790116 -35.53818483 148.53766556 -35.5 146.4375 C-36.1290625 146.48390625 -36.758125 146.5303125 -37.40625 146.578125 C-43.72021536 146.84437655 -48.31425616 146.19110077 -53.5 142.4375 C-57.66357158 138.57056965 -60.30905326 134.26733068 -60.6953125 128.54296875 C-60.67210938 127.58003906 -60.64890625 126.61710937 -60.625 125.625 C-60.60695313 124.64917969 -60.58890625 123.67335938 -60.5703125 122.66796875 C-60.54710938 121.93191406 -60.52390625 121.19585937 -60.5 120.4375 C-61.09014893 120.45321045 -61.68029785 120.4689209 -62.28833008 120.48510742 C-64.96295586 120.54747939 -67.63742864 120.58649657 -70.3125 120.625 C-71.24126953 120.65013672 -72.17003906 120.67527344 -73.12695312 120.70117188 C-74.01962891 120.71083984 -74.91230469 120.72050781 -75.83203125 120.73046875 C-76.65421143 120.7461792 -77.4763916 120.76188965 -78.32348633 120.77807617 C-80.5 120.4375 -80.5 120.4375 -82.29956055 119.1105957 C-83.5 117.4375 -83.5 117.4375 -83.375 114.375 C-82.5 111.4375 -82.5 111.4375 -79.5 109.4375 C-77.4152832 109.21044922 -77.4152832 109.21044922 -75.05078125 109.2421875 C-73.9047644 109.24968018 -73.9047644 109.24968018 -72.7355957 109.25732422 C-71.77097412 109.27553223 -70.80635254 109.29374023 -69.8125 109.3125 C-66.739375 109.35375 -63.66625 109.395 -60.5 109.4375 C-60.5 103.1675 -60.5 96.8975 -60.5 90.4375 C-62.61341797 90.48970703 -62.61341797 90.48970703 -64.76953125 90.54296875 C-66.61717559 90.57110547 -68.46483281 90.59840575 -70.3125 90.625 C-71.24126953 90.65013672 -72.17003906 90.67527344 -73.12695312 90.70117188 C-74.01962891 90.71083984 -74.91230469 90.72050781 -75.83203125 90.73046875 C-76.65421143 90.7461792 -77.4763916 90.76188965 -78.32348633 90.77807617 C-80.5 90.4375 -80.5 90.4375 -82.3034668 89.11450195 C-83.5 87.4375 -83.5 87.4375 -83.3125 84.3125 C-83.044375 83.36375 -82.77625 82.415 -82.5 81.4375 C-80.09940183 80.23720092 -78.60639351 80.32290257 -75.9296875 80.33984375 C-75.03378906 80.34306641 -74.13789062 80.34628906 -73.21484375 80.34960938 C-71.80912109 80.36217773 -71.80912109 80.36217773 -70.375 80.375 C-69.43011719 80.37951172 -68.48523438 80.38402344 -67.51171875 80.38867188 C-65.1744523 80.40047625 -62.83721831 80.41841201 -60.5 80.4375 C-60.5 74.1675 -60.5 67.8975 -60.5 61.4375 C-66.24384586 61.51635073 -66.24384586 61.51635073 -71.98730469 61.61767578 C-72.70821289 61.6226709 -73.42912109 61.62766602 -74.171875 61.6328125 C-74.9050293 61.64328613 -75.63818359 61.65375977 -76.39355469 61.66455078 C-78.86512022 61.3981442 -80.42246027 60.79850978 -82.5 59.4375 C-83.4375 56.5 -83.4375 56.5 -83.5 53.4375 C-82.2956543 51.7644043 -82.2956543 51.7644043 -80.5 50.4375 C-78.32348633 50.09692383 -78.32348633 50.09692383 -75.83203125 50.14453125 C-74.93935547 50.15419922 -74.04667969 50.16386719 -73.12695312 50.17382812 C-71.73379883 50.2115332 -71.73379883 50.2115332 -70.3125 50.25 C-69.37212891 50.26353516 -68.43175781 50.27707031 -67.46289062 50.29101562 C-65.14134962 50.32636904 -62.82096347 50.37571326 -60.5 50.4375 C-60.54640625 49.591875 -60.5928125 48.74625 -60.640625 47.875 C-60.89407424 39.90945236 -60.68078165 33.90463656 -55.07421875 27.9140625 C-48.84498432 22.3447728 -43.47949569 22.15860501 -35.5 22.4375 C-35.52320313 21.17292969 -35.54640625 19.90835938 -35.5703125 18.60546875 C-35.58907126 16.9453184 -35.60727135 15.28516167 -35.625 13.625 C-35.64175781 12.79162109 -35.65851563 11.95824219 -35.67578125 11.09960938 C-35.68544922 9.89594727 -35.68544922 9.89594727 -35.6953125 8.66796875 C-35.71102295 7.56038208 -35.71102295 7.56038208 -35.72705078 6.43041992 C-35.5 4.4375 -35.5 4.4375 -33.5 1.4375 C-30.5 1.125 -30.5 1.125 -27.5 1.4375 C-25.5 3.4375 -25.5 3.4375 -25.27294922 5.40869141 C-25.28342285 6.19421387 -25.29389648 6.97973633 -25.3046875 7.7890625 C-25.30968262 8.55557129 -25.31467773 9.32208008 -25.31982422 10.11181641 C-25.33803223 11.08554199 -25.35624023 12.05926758 -25.375 13.0625 C-25.41625 16.15625 -25.4575 19.25 -25.5 22.4375 C-18.9 22.4375 -12.3 22.4375 -5.5 22.4375 C-5.61846245 16.31929836 -5.61846245 16.31929836 -5.77026367 10.2019043 C-5.77775635 9.43789307 -5.78524902 8.67388184 -5.79296875 7.88671875 C-5.8086792 7.10643311 -5.82438965 6.32614746 -5.84057617 5.5222168 C-5.25337096 1.92784743 -3.48875644 0.61053238 0 0 Z " fill="#FCFEFC" transform="translate(184.5,90.5625)"/>
<path d="M0 0 C1.44203796 -0.00024925 1.44203796 -0.00024925 2.91320801 -0.00050354 C4.0044397 -0.00988449 5.09567139 -0.01926544 6.2199707 -0.02893066 C7.39813354 -0.01769669 8.57629639 -0.00646271 9.79016113 0.00511169 C10.99958374 0.00365646 12.20900635 0.00220123 13.45507812 0.0007019 C16.01389981 0.00236302 18.57273127 0.01394783 21.13146973 0.03465271 C25.05589081 0.063591 28.97896071 0.05526821 32.90344238 0.04222107 C35.38652189 0.0484586 37.86959711 0.05684966 40.35266113 0.06761169 C42.1199054 0.06320824 42.1199054 0.06320824 43.92285156 0.05871582 C45.01408325 0.07139999 46.10531494 0.08408417 47.22961426 0.09715271 C48.1909729 0.10255569 49.15233154 0.10795868 50.14282227 0.11352539 C52.98475822 0.56718879 53.86463232 1.22741727 55.57141113 3.50120544 C56.18737793 5.58250427 56.18737793 5.58250427 56.52062988 7.95823669 C56.64631348 8.82384216 56.77199707 9.68944763 56.90148926 10.58128357 C57.07841309 11.9338324 57.07841309 11.9338324 57.25891113 13.31370544 C57.38846191 14.2038031 57.5180127 15.09390076 57.65148926 16.01097107 C58.28614754 20.54088653 58.7305944 24.91521118 58.57141113 29.50120544 C59.53627441 29.72163513 59.53627441 29.72163513 60.52062988 29.94651794 C67.39618659 31.65314686 73.41537145 34.17248532 79.72375488 37.39183044 C82.86387147 38.61514061 83.51468235 38.57966797 86.57141113 37.50120544 C88.51855051 36.37083877 88.51855051 36.37083877 90.43469238 34.96214294 C91.15721191 34.46456482 91.87973145 33.96698669 92.62414551 33.45433044 C94.12648467 32.40516014 95.62139518 31.34526873 97.10852051 30.27464294 C98.19810059 29.53214294 98.19810059 29.53214294 99.30969238 28.77464294 C99.95978271 28.31493103 100.60987305 27.85521912 101.27966309 27.38157654 C104.86002022 26.00618847 106.89019509 26.430692 110.57141113 27.50120544 C113.50339635 29.56626114 115.95906073 32.02378746 118.47375488 34.57151794 C119.55760216 35.64319717 119.55760216 35.64319717 120.66334534 36.73652649 C122.18256202 38.24729868 123.6941894 39.76573627 125.1986084 41.29124451 C127.50325407 43.620488 129.84049136 45.91297426 132.18273926 48.20433044 C133.65683965 49.67880126 135.12891648 51.1552985 136.59875488 52.63401794 C137.64856789 53.65787094 137.64856789 53.65787094 138.71958923 54.70240784 C141.91634365 57.99353539 143.44156284 59.63774501 144.13952637 64.27903748 C143.62079981 67.22108868 143.32039476 68.67716089 141.45422363 70.92308044 C140.79100098 71.74872498 140.79100098 71.74872498 140.11437988 72.59104919 C139.6464502 73.13890076 139.17852051 73.68675232 138.69641113 74.25120544 C137.78190896 75.37063807 136.86783147 76.4904178 135.95422363 77.61058044 C135.16789551 78.56448669 134.38156738 79.51839294 133.57141113 80.50120544 C131.31089336 83.21718577 131.31089336 83.21718577 131.76281738 85.76292419 C133.10472853 90.30727065 135.15130912 94.5220607 137.09875488 98.83323669 C138.65887691 102.71905788 139.64323776 106.42531368 140.57141113 110.50120544 C141.8617627 110.69456482 143.15211426 110.88792419 144.48156738 111.08714294 C146.19905148 111.3499274 147.9164974 111.61296148 149.63391113 111.87620544 C150.48146973 112.00253357 151.32902832 112.12886169 152.20227051 112.25901794 C157.12170995 113.01877693 161.86230395 113.86271131 166.57141113 115.50120544 C167.86146936 118.0813219 167.70548748 119.94812384 167.7166748 122.83714294 C167.72624458 124.50897644 167.72624458 124.50897644 167.73600769 126.21458435 C167.73767693 128.02708679 167.73767693 128.02708679 167.73937988 129.87620544 C167.74270828 131.11161072 167.74603668 132.34701599 167.74946594 133.61985779 C167.75453604 136.23590217 167.75687424 138.85195303 167.75671387 141.46800232 C167.75663236 144.15687245 167.76360959 146.84557316 167.77722168 149.53440857 C167.79546144 153.39839436 167.80044669 157.26218103 167.80187988 161.12620544 C167.8090654 162.33454041 167.81625092 163.54287537 167.82365417 164.78782654 C167.82057755 165.9023822 167.81750092 167.01693787 167.81433105 168.16526794 C167.81575607 169.1496283 167.81718109 170.13398865 167.81864929 171.1481781 C167.57141113 173.50120544 167.57141113 173.50120544 165.57141113 175.50120544 C163.28063965 176.09544373 163.28063965 176.09544373 160.45031738 176.57151794 C159.43260254 176.74554138 158.4148877 176.91956482 157.36633301 177.09886169 C156.29963379 177.27288513 155.23293457 177.44690857 154.13391113 177.62620544 C153.0710791 177.80796326 152.00824707 177.98972107 150.91320801 178.17698669 C143.0425695 179.50120544 143.0425695 179.50120544 139.57141113 179.50120544 C139.23109863 181.35745544 139.23109863 181.35745544 138.88391113 183.25120544 C137.41365491 189.92553406 134.86006932 196.6647688 131.35266113 202.54417419 C130.28033459 205.23035217 130.81456966 206.73314451 131.57141113 209.50120544 C132.75792088 211.59104612 132.75792088 211.59104612 134.29406738 213.53245544 C134.83225098 214.26077576 135.37043457 214.98909607 135.92492676 215.73948669 C137.06567092 217.24918011 138.20890937 218.756992 139.35461426 220.26292419 C139.89150879 220.99124451 140.42840332 221.71956482 140.98156738 222.46995544 C141.47793701 223.12415466 141.97430664 223.77835388 142.48571777 224.45237732 C143.86080118 227.04731772 143.8590085 228.58856704 143.57141113 231.50120544 C142.3210144 233.39324951 142.3210144 233.39324951 140.54553223 235.18992615 C139.88419281 235.87025406 139.22285339 236.55058197 138.54147339 237.25152588 C137.81658722 237.96942795 137.09170105 238.68733002 136.34484863 239.42698669 C135.60441315 240.17457748 134.86397766 240.92216827 134.10110474 241.69241333 C132.53186159 243.26943991 130.95618387 244.84008583 129.37463379 246.4047699 C126.95708432 248.80311704 124.57025197 251.229289 122.18469238 253.65940857 C120.6565164 255.18787494 119.12662357 256.7146271 117.59484863 258.23948669 C116.88210785 258.96750992 116.16936707 259.69553314 115.43502808 260.44561768 C110.43475651 265.33059289 110.43475651 265.33059289 106.35314941 266.13719177 C103.26903233 265.43207285 101.54309677 264.5076519 99.04016113 262.58714294 C98.22934082 261.99159607 97.41852051 261.39604919 96.58312988 260.78245544 C94.90488117 259.50876124 93.23040442 258.23008209 91.55969238 256.94651794 C86.9774193 253.32626645 86.9774193 253.32626645 81.45422363 252.91136169 C80.50289551 253.43601013 79.55156738 253.96065857 78.57141113 254.50120544 C77.33520208 255.00695782 76.09250867 255.497057 74.84484863 255.97386169 C72.88220471 256.77118579 70.92180818 257.57380331 68.96203613 258.37815857 C65.85465582 259.6393524 62.83518065 260.7395401 59.57141113 261.50120544 C59.41321899 262.6136261 59.41321899 262.6136261 59.25183105 263.7485199 C58.76706442 267.10558803 58.26323076 270.45952145 57.75891113 273.81370544 C57.5932666 274.98095154 57.42762207 276.14819763 57.25695801 277.35081482 C57.00075684 279.0282074 57.00075684 279.0282074 56.73937988 280.73948669 C56.58751221 281.77113953 56.43564453 282.80279236 56.2791748 283.8657074 C55.4896867 286.80552254 54.96336969 287.68408377 52.57141113 289.50120544 C50.14282227 289.88215637 50.14282227 289.88215637 47.22961426 289.88938904 C46.13838257 289.89884552 45.04715088 289.908302 43.92285156 289.91804504 C42.74468872 289.91197235 41.56652588 289.90589966 40.35266113 289.89964294 C39.14323853 289.90251312 37.93381592 289.9053833 36.68774414 289.90834045 C34.12894218 289.9103833 31.57012469 289.90483812 29.01135254 289.89231873 C25.08700759 289.87626923 21.16369267 289.89216107 17.23937988 289.91136169 C14.75630468 289.9093793 12.27323013 289.90553572 9.79016113 289.89964294 C8.02291687 289.90875198 8.02291687 289.90875198 6.2199707 289.91804504 C5.12873901 289.90858856 4.03750732 289.89913208 2.91320801 289.88938904 C1.47117004 289.88580887 1.47117004 289.88580887 0 289.88215637 C-2.8455306 289.43580354 -3.72178852 288.77783285 -5.42858887 286.50120544 C-6.04455566 284.40403748 -6.04455566 284.40403748 -6.37780762 282.00901794 C-6.56633301 280.70384216 -6.56633301 280.70384216 -6.75866699 279.37229919 C-6.87661621 278.46608826 -6.99456543 277.55987732 -7.11608887 276.62620544 C-7.24563965 275.72772888 -7.37519043 274.82925232 -7.50866699 273.90354919 C-8.09168922 269.72676561 -8.49460007 265.7249861 -8.42858887 261.50120544 C-9.07183105 261.35425232 -9.71507324 261.20729919 -10.37780762 261.05589294 C-17.25336432 259.34926403 -23.27254919 256.82992557 -29.58093262 253.61058044 C-32.71922519 252.38798087 -33.37605719 252.40724917 -36.42858887 253.50120544 C-38.38117772 254.70851908 -38.38117772 254.70851908 -40.29187012 256.22386169 C-41.01438965 256.76204529 -41.73690918 257.30022888 -42.48132324 257.85472107 C-43.98227999 258.98984393 -45.47716153 260.13304698 -46.96569824 261.28440857 C-47.69208496 261.8213031 -48.41847168 262.35819763 -49.16687012 262.91136169 C-49.81696045 263.40773132 -50.46705078 263.90410095 -51.13684082 264.41551208 C-54.57309126 266.04340233 -56.65927234 266.09182632 -60.42858887 265.50120544 C-63.25715575 263.62530835 -65.4916403 261.27790759 -67.82312012 258.82542419 C-68.83326424 257.80398064 -68.83326424 257.80398064 -69.86381531 256.76190186 C-72.00651173 254.58672643 -74.12338078 252.38818761 -76.24108887 250.18870544 C-77.68418219 248.71906503 -79.12882803 247.25094737 -80.57507324 245.78440857 C-83.21492718 243.09430061 -85.85151625 240.40138988 -88.46691895 237.68748474 C-88.99207596 237.14343491 -89.51723297 236.59938507 -90.05830383 236.03884888 C-92.10445766 233.74279009 -93.34521575 231.90955117 -93.96374512 228.88011169 C-93.01442399 222.88622283 -88.6622727 218.69544924 -84.96179199 214.04612732 C-84.3720459 213.27720154 -83.7822998 212.50827576 -83.17468262 211.71604919 C-82.62481689 211.02632019 -82.07495117 210.33659119 -81.50842285 209.6259613 C-80.09052067 206.83599914 -80.51776713 205.43815315 -81.42858887 202.50120544 C-82.1490336 200.95586489 -82.9233916 199.4348636 -83.74108887 197.93870544 C-86.65027285 192.33176074 -88.57539828 186.5266631 -90.42858887 180.50120544 C-92.69916014 180.04157563 -94.97006237 179.58358067 -97.24108887 179.12620544 C-97.91873291 178.98900085 -98.59637695 178.85179626 -99.29455566 178.71043396 C-104.29783442 177.70506092 -109.31229795 176.81990581 -114.35437012 176.02854919 C-116.42858887 175.50120544 -116.42858887 175.50120544 -118.42858887 173.50120544 C-118.68928528 171.15490723 -118.68928528 171.15490723 -118.70324707 168.18113708 C-118.71277908 167.06980911 -118.7223111 165.95848114 -118.73213196 164.81347656 C-118.73122055 163.60827866 -118.73030914 162.40308075 -118.72937012 161.16136169 C-118.73365524 159.92832809 -118.73794037 158.69529449 -118.74235535 157.42489624 C-118.74958311 154.14295834 -118.74646402 150.86120287 -118.74078369 147.57926941 C-118.74108834 145.56721238 -118.75112334 143.5554498 -118.76477051 141.54344177 C-118.78919931 137.6867735 -118.79342815 133.8305975 -118.79187012 129.97386169 C-118.80107986 128.77068802 -118.81028961 127.56751434 -118.81977844 126.32788086 C-118.81354965 125.21340073 -118.80732086 124.09892059 -118.80090332 122.95066833 C-118.80153275 121.96852859 -118.80216217 120.98638885 -118.80281067 119.9744873 C-118.36616347 117.08862767 -117.74858512 116.21506539 -115.42858887 114.50120544 C-113.00842285 113.80931091 -113.00842285 113.80931091 -110.17468262 113.36839294 C-108.64617676 113.11895935 -108.64617676 113.11895935 -107.08679199 112.86448669 C-105.49254395 112.62278748 -105.49254395 112.62278748 -103.86608887 112.37620544 C-101.76021322 112.04282815 -99.65472172 111.70701228 -97.54968262 111.36839294 C-96.1486731 111.15352234 -96.1486731 111.15352234 -94.71936035 110.93431091 C-92.4099361 110.60574041 -92.4099361 110.60574041 -90.42858887 109.50120544 C-89.63826332 107.7594414 -89.63826332 107.7594414 -89.02624512 105.64183044 C-88.77552246 104.85550232 -88.5247998 104.06917419 -88.26647949 103.25901794 C-88.01060059 102.43143982 -87.75472168 101.60386169 -87.49108887 100.75120544 C-84.79267879 92.05556171 -84.79267879 92.05556171 -82.61218262 88.73558044 C-81.15098426 86.54941532 -81.15098426 86.54941532 -81.92468262 84.07542419 C-83.79966832 80.86603308 -86.05454555 78.10177269 -88.49108887 75.31370544 C-94.20227082 68.68937518 -94.20227082 68.68937518 -94.92858887 64.87620544 C-93.6944658 56.54587472 -83.35010736 49.23963133 -77.61608887 43.50120544 C-76.75821777 42.63108826 -75.90034668 41.76097107 -75.01647949 40.86448669 C-74.19728027 40.04335388 -73.37808105 39.22222107 -72.53405762 38.37620544 C-71.79308838 37.63112732 -71.05211914 36.88604919 -70.28869629 36.11839294 C-68.42858887 34.50120544 -68.42858887 34.50120544 -66.42858887 34.50120544 C-66.20171387 33.92370544 -65.97483887 33.34620544 -65.74108887 32.75120544 C-63.998324 29.76360854 -62.40189845 28.28519119 -59.42858887 26.50120544 C-53.27019747 26.6575854 -49.93729525 28.83497621 -45.30358887 32.50120544 C-39.96516424 36.90174259 -39.96516424 36.90174259 -33.42858887 38.50120544 C-30.88501406 37.68648826 -30.88501406 37.68648826 -28.36608887 36.31370544 C-14.36050228 29.50120544 -14.36050228 29.50120544 -8.42858887 29.50120544 C-8.3551123 28.30237732 -8.3551123 28.30237732 -8.28015137 27.07933044 C-6.52844186 1.34732175 -6.52844186 1.34732175 0 0 Z M4.57141113 10.50120544 C3.41609372 18.59096865 3.41609372 18.59096865 2.2989502 26.6860199 C2.14651855 27.69366394 1.99408691 28.70130798 1.83703613 29.73948669 C1.69040527 30.77113953 1.54377441 31.80279236 1.3927002 32.8657074 C0.39790399 36.05798595 -0.55306599 36.87478434 -3.42858887 38.50120544 C-5.37634277 39.29734802 -5.37634277 39.29734802 -7.40515137 39.89573669 C-8.15369385 40.12631775 -8.90223633 40.3568988 -9.67346191 40.59446716 C-10.85162476 40.95049011 -10.85162476 40.95049011 -12.05358887 41.31370544 C-18.37460795 43.29466598 -23.79759958 45.43889692 -29.19030762 49.39964294 C-32.54914408 51.05268288 -34.7194762 51.00433429 -38.42858887 50.50120544 C-41.2601685 48.9879551 -43.68710854 47.07835938 -46.17858887 45.06370544 C-47.48342362 44.04103163 -48.79062385 43.02136688 -50.10046387 42.00511169 C-50.66861816 41.54950867 -51.23677246 41.09390564 -51.82214355 40.62449646 C-53.55057867 39.30249705 -53.55057867 39.30249705 -56.42858887 38.50120544 C-57.48046387 39.57048279 -57.48046387 39.57048279 -58.55358887 40.66136169 C-63.41765933 45.5805101 -68.30325556 50.37101401 -73.56921387 54.86448669 C-76.66995878 57.59392392 -79.54956796 60.54121208 -82.42858887 63.50120544 C-80.98815691 67.82250131 -78.8037339 70.7323751 -75.86608887 74.18870544 C-71.46607176 79.39128567 -69.89401612 81.53093222 -70.42858887 88.50120544 C-71.45859522 91.53776395 -72.83416777 94.3732729 -74.24108887 97.25120544 C-77.06159487 103.24079866 -79.39380686 108.89454655 -80.66296387 115.43479919 C-81.74282376 118.34931902 -82.65217759 119.05058436 -85.42858887 120.50120544 C-88.58870672 121.26105822 -91.77097898 121.70104465 -94.99108887 122.12620544 C-96.70102149 122.3662856 -98.41067156 122.60838913 -100.11999512 122.85276794 C-100.87482178 122.95412048 -101.62964844 123.05547302 -102.40734863 123.15989685 C-104.62416754 123.48092384 -104.62416754 123.48092384 -107.42858887 124.50120544 C-107.42858887 138.36120544 -107.42858887 152.22120544 -107.42858887 166.50120544 C-100.41611911 167.28731823 -100.41611911 167.28731823 -93.39855957 168.02537537 C-88.89590534 168.58424318 -86.05982192 169.04212686 -82.33483887 171.75120544 C-80.31440657 174.66592745 -79.44091328 176.87767221 -78.61608887 180.31370544 C-76.8655194 186.69129877 -74.25379526 192.1854198 -71.06994629 197.9438324 C-68.90664604 201.98639419 -67.6412275 204.92466749 -68.42858887 209.50120544 C-70.25671387 212.53636169 -70.25671387 212.53636169 -72.67858887 215.56370544 C-73.46749512 216.56530701 -74.25640137 217.56690857 -75.06921387 218.59886169 C-75.84780762 219.55663513 -76.62640137 220.51440857 -77.42858887 221.50120544 C-78.18655762 222.44866638 -78.94452637 223.39612732 -79.72546387 224.37229919 C-80.56851074 225.42610779 -80.56851074 225.42610779 -81.42858887 226.50120544 C-79.84427434 230.40971743 -77.16223792 233.024879 -74.20202637 235.92308044 C-73.69434723 236.42792969 -73.18666809 236.93277893 -72.66360474 237.45292664 C-71.04825045 239.05712641 -69.42606677 240.654214 -67.80358887 242.25120544 C-66.70417189 243.34058652 -65.60520828 244.43042534 -64.50671387 245.52073669 C-61.81922867 248.18622429 -59.12559865 250.84535688 -56.42858887 253.50120544 C-53.781379 252.23675301 -51.39150229 250.86554789 -49.01062012 249.15354919 C-48.39638184 248.71333435 -47.78214355 248.27311951 -47.14929199 247.81956482 C-46.20473145 247.13603943 -46.20473145 247.13603943 -45.24108887 246.43870544 C-44.59978027 245.97915466 -43.95847168 245.51960388 -43.29772949 245.04612732 C-40.23549758 242.92898273 -40.23549758 242.92898273 -37.42858887 240.50120544 C-32.05354335 239.88598939 -28.49445824 241.71262235 -23.92858887 244.25120544 C-17.42600687 247.70983175 -11.30049079 249.96295144 -4.12390137 251.71214294 C-1.42858887 252.50120544 -1.42858887 252.50120544 0.57141113 254.50120544 C1.16564941 256.93138123 1.16564941 256.93138123 1.64172363 259.94651794 C1.79915039 260.91605408 1.95657715 261.88559021 2.11877441 262.88450623 C2.30939453 264.11926697 2.50001465 265.35402771 2.69641113 266.62620544 C3.31516113 270.54495544 3.93391113 274.46370544 4.57141113 278.50120544 C18.10141113 278.50120544 31.63141113 278.50120544 45.57141113 278.50120544 C46.72660527 270.74063826 46.72660527 270.74063826 47.84387207 262.97459412 C47.99630371 262.00755554 48.14873535 261.04051697 48.30578613 260.04417419 C48.45241699 259.05441589 48.59904785 258.06465759 48.75012207 257.04490662 C49.75257395 253.94010692 50.77545587 253.10610164 53.57141113 251.50120544 C56.07164909 250.65371488 58.53294104 249.89450203 61.07141113 249.18870544 C67.45861013 247.32874494 73.11485713 244.94139447 78.92297363 241.63792419 C82.09352097 240.27711405 84.15190628 240.07775145 87.57141113 240.50120544 C89.80969238 241.82151794 89.80969238 241.82151794 91.88391113 243.62620544 C96.24777558 247.27018069 100.79805106 250.42052625 105.57141113 253.50120544 C106.20047363 252.86054138 106.82953613 252.21987732 107.47766113 251.55979919 C111.47251621 247.52282968 115.45217032 243.51970245 119.75891113 239.81370544 C122.41654524 237.51403838 125.06372187 235.21119424 127.63391113 232.81370544 C128.2230127 232.27358826 128.81211426 231.73347107 129.41906738 231.17698669 C130.79887851 229.57651716 130.79887851 229.57651716 130.29992676 227.62644958 C129.51058816 225.32377112 128.51970895 223.76960283 127.06750488 221.82151794 C126.32790527 220.79864685 126.32790527 220.79864685 125.57336426 219.75511169 C124.5327435 218.33903601 123.48587604 216.92752908 122.43273926 215.52073669 C120.19444129 212.40530754 118.69241369 210.20602326 118.03625488 206.38401794 C118.68792413 202.87356607 119.95623016 200.36997135 121.69641113 197.25120544 C125.14886994 190.8582193 127.44412221 184.34590805 129.44104004 177.36741638 C131.12980255 171.7855603 131.12980255 171.7855603 133.39855957 170.32469177 C135.56098833 169.50515557 137.51073737 169.03285051 139.79406738 168.68479919 C140.97259277 168.4982074 140.97259277 168.4982074 142.17492676 168.30784607 C142.9863916 168.18602966 143.79785645 168.06421326 144.63391113 167.93870544 C146.25013122 167.6895648 147.86603275 167.43834654 149.48156738 167.18479919 C150.19449951 167.07708191 150.90743164 166.96936462 151.64196777 166.85838318 C153.7793973 166.5086872 153.7793973 166.5086872 156.57141113 165.50120544 C156.57141113 151.97120544 156.57141113 138.44120544 156.57141113 124.50120544 C148.32141113 122.85120544 140.07141113 121.20120544 131.57141113 119.50120544 C130.58141113 115.54120544 129.59141113 111.58120544 128.57141113 107.50120544 C127.82435364 105.39351972 127.02713455 103.30122641 126.13391113 101.25120544 C125.70852051 100.26378357 125.28312988 99.27636169 124.84484863 98.25901794 C123.72366891 95.83094161 122.52203606 93.48224698 121.25891113 91.12620544 C119.47585949 87.29594635 119.07959344 85.63554794 119.57141113 81.50120544 C121.43469238 78.46604919 121.43469238 78.46604919 123.88391113 75.43870544 C126.76671975 71.83171303 129.17915601 68.48829732 131.57141113 64.50120544 C122.99141113 55.92120544 114.41141113 47.34120544 105.57141113 38.50120544 C102.75073952 39.91154125 100.73908521 41.01753487 98.32922363 42.88401794 C97.4417041 43.55110779 97.4417041 43.55110779 96.53625488 44.23167419 C95.3108623 45.16047494 94.09203801 46.0980064 92.88000488 47.04417419 C89.9300766 49.23902322 88.09048853 50.42468298 84.39172363 50.96995544 C81.3189282 50.45924152 79.82801701 49.68653191 77.32141113 47.87620544 C71.82061719 44.30994148 66.06209355 42.50323349 59.81652832 40.68235779 C59.06790527 40.45499939 58.31928223 40.22764099 57.54797363 39.99339294 C56.8784668 39.8011615 56.20895996 39.60893005 55.51916504 39.41087341 C52.87521457 38.17605774 51.40850815 36.76854284 49.57141113 34.50120544 C48.75012207 31.84397888 48.75012207 31.84397888 48.30578613 28.86058044 C48.07713867 27.41376892 48.07713867 27.41376892 47.84387207 25.93772888 C47.67145996 24.72117615 47.49904785 23.50462341 47.32141113 22.25120544 C46.74391113 18.37370544 46.16641113 14.49620544 45.57141113 10.50120544 C32.04141113 10.50120544 18.51141113 10.50120544 4.57141113 10.50120544 Z " fill="#03D836" transform="translate(159.4285888671875,29.498794555664063)"/>
<path d="M0 0 C2.5 0.4375 2.5 0.4375 4.14453125 1.88671875 C6.19780787 5.75066582 5.81741175 9.39083177 5.6875 13.6875 C5.625625 16.575 5.56375 19.4625 5.5 22.4375 C11.77 22.4375 18.04 22.4375 24.5 22.4375 C24.38175274 17.02248644 24.38175274 17.02248644 24.22973633 11.60839844 C24.19218997 8.19935075 24.21702607 5.97833184 25.8203125 2.9140625 C27.5 1.4375 27.5 1.4375 30.5625 1.0625 C33.5 1.4375 33.5 1.4375 35.5 3.4375 C35.72705078 5.40869141 35.72705078 5.40869141 35.6953125 7.7890625 C35.68886719 8.63984375 35.68242187 9.490625 35.67578125 10.3671875 C35.65064453 11.70136719 35.65064453 11.70136719 35.625 13.0625 C35.61597656 13.9596875 35.60695313 14.856875 35.59765625 15.78125 C35.5740497 18.00026586 35.5411231 20.21875077 35.5 22.4375 C36.39404541 22.42009766 36.39404541 22.42009766 37.30615234 22.40234375 C44.20572134 22.3238918 50.21405413 22.48384079 55.5859375 27.3125 C60.50449567 32.77310335 61.63057627 36.20468624 61.5625 43.625 C61.55347656 44.89730469 61.54445312 46.16960937 61.53515625 47.48046875 C61.51775391 48.94419922 61.51775391 48.94419922 61.5 50.4375 C62.38522339 50.41393433 62.38522339 50.41393433 63.28833008 50.38989258 C65.96295586 50.32752061 68.63742864 50.28850343 71.3125 50.25 C72.7056543 50.21229492 72.7056543 50.21229492 74.12695312 50.17382812 C75.01962891 50.16416016 75.91230469 50.15449219 76.83203125 50.14453125 C77.65421143 50.1288208 78.4763916 50.11311035 79.32348633 50.09692383 C82.0182342 50.51859217 82.8752191 51.283646 84.5 53.4375 C84.9375 55.9375 84.9375 55.9375 84.5 58.4375 C82.68582204 60.49617633 81.22031854 61.35253085 78.48413086 61.67529297 C76.06405577 61.73304157 73.66999915 61.69816979 71.25 61.625 C68.3625 61.563125 65.475 61.50125 62.5 61.4375 C62.5 67.7075 62.5 73.9775 62.5 80.4375 C63.92054688 80.41429687 65.34109375 80.39109375 66.8046875 80.3671875 C68.66145309 80.34843229 70.51822435 80.33023183 72.375 80.3125 C73.31214844 80.29574219 74.24929688 80.27898437 75.21484375 80.26171875 C76.11074219 80.25527344 77.00664062 80.24882812 77.9296875 80.2421875 C78.75710449 80.23171387 79.58452148 80.22124023 80.43701172 80.21044922 C82.5 80.4375 82.5 80.4375 84.5 82.4375 C84.75 85.4375 84.75 85.4375 84.5 88.4375 C82.5 90.4375 82.5 90.4375 80.43701172 90.66455078 C79.60959473 90.65407715 78.78217773 90.64360352 77.9296875 90.6328125 C77.12257324 90.62781738 76.31545898 90.62282227 75.48388672 90.61767578 C74.4579541 90.59946777 73.43202148 90.58125977 72.375 90.5625 C67.486875 90.500625 67.486875 90.500625 62.5 90.4375 C62.5 97.0375 62.5 103.6375 62.5 110.4375 C68.99211076 110.35842297 68.99211076 110.35842297 75.48388672 110.25732422 C76.29100098 110.2523291 77.09811523 110.24733398 77.9296875 110.2421875 C78.75710449 110.23171387 79.58452148 110.22124023 80.43701172 110.21044922 C82.5 110.4375 82.5 110.4375 84.5 112.4375 C84.8125 115.4375 84.8125 115.4375 84.5 118.4375 C81.29593538 120.57354308 80.50399253 120.67958908 76.83203125 120.6328125 C75.93935547 120.62636719 75.04667969 120.61992187 74.12695312 120.61328125 C72.73379883 120.58814453 72.73379883 120.58814453 71.3125 120.5625 C70.37212891 120.55347656 69.43175781 120.54445313 68.46289062 120.53515625 C66.14167032 120.51159056 63.82096356 120.47869116 61.5 120.4375 C61.54640625 121.29472656 61.5928125 122.15195313 61.640625 123.03515625 C61.86460525 130.1305306 61.95541097 134.7779239 57.5 140.4375 C52.47597222 145.20388533 48.05953733 146.71353379 41.1875 146.5625 C40.11886719 146.54445312 39.05023438 146.52640625 37.94921875 146.5078125 C37.14097656 146.48460937 36.33273438 146.46140625 35.5 146.4375 C35.53480469 147.70207031 35.56960937 148.96664062 35.60546875 150.26953125 C35.63360677 151.92967423 35.66090691 153.58983156 35.6875 155.25 C35.71263672 156.08337891 35.73777344 156.91675781 35.76367188 157.77539062 C35.77333984 158.57783203 35.78300781 159.38027344 35.79296875 160.20703125 C35.8086792 160.94542236 35.82438965 161.68381348 35.84057617 162.44458008 C35.4024522 165.00831199 34.54349409 165.87532853 32.5 167.4375 C29.9375 167.75 29.9375 167.75 27.5 167.4375 C25.5 165.4375 25.5 165.4375 25.27294922 163.46630859 C25.28342285 162.68078613 25.29389648 161.89526367 25.3046875 161.0859375 C25.30968262 160.31942871 25.31467773 159.55291992 25.31982422 158.76318359 C25.33803223 157.78945801 25.35624023 156.81573242 25.375 155.8125 C25.41625 152.71875 25.4575 149.625 25.5 146.4375 C18.9 146.4375 12.3 146.4375 5.5 146.4375 C5.57893723 151.89729658 5.57893723 151.89729658 5.68017578 157.35668945 C5.6851709 158.03948975 5.69016602 158.72229004 5.6953125 159.42578125 C5.70578613 160.12227783 5.71625977 160.81877441 5.72705078 161.53637695 C5.5 163.4375 5.5 163.4375 3.5 166.4375 C0 166.8125 0 166.8125 -3.5 166.4375 C-5.53120707 163.39068939 -5.74659875 162.83631676 -5.6953125 159.42578125 C-5.69031738 158.74298096 -5.68532227 158.06018066 -5.68017578 157.35668945 C-5.66196777 156.49648193 -5.64375977 155.63627441 -5.625 154.75 C-5.58375 152.006875 -5.5425 149.26375 -5.5 146.4375 C-12.1 146.4375 -18.7 146.4375 -25.5 146.4375 C-25.38139256 152.60073878 -25.38139256 152.60073878 -25.22973633 158.76318359 C-25.22224365 159.52969238 -25.21475098 160.29620117 -25.20703125 161.0859375 C-25.1913208 161.87145996 -25.17561035 162.65698242 -25.15942383 163.46630859 C-25.27181396 164.11680176 -25.3842041 164.76729492 -25.5 165.4375 C-28.5 167.4375 -28.5 167.4375 -31.0625 167.1875 C-33.5 166.4375 -33.5 166.4375 -35.5 164.4375 C-35.72705078 162.55810547 -35.72705078 162.55810547 -35.6953125 160.3046875 C-35.68886719 159.49902344 -35.68242187 158.69335938 -35.67578125 157.86328125 C-35.65902344 157.02152344 -35.64226562 156.17976562 -35.625 155.3125 C-35.61597656 154.46300781 -35.60695312 153.61351562 -35.59765625 152.73828125 C-35.57405647 150.63790116 -35.53818483 148.53766556 -35.5 146.4375 C-36.1290625 146.48390625 -36.758125 146.5303125 -37.40625 146.578125 C-43.72021536 146.84437655 -48.31425616 146.19110077 -53.5 142.4375 C-57.66357158 138.57056965 -60.30905326 134.26733068 -60.6953125 128.54296875 C-60.67210938 127.58003906 -60.64890625 126.61710937 -60.625 125.625 C-60.60695313 124.64917969 -60.58890625 123.67335938 -60.5703125 122.66796875 C-60.54710938 121.93191406 -60.52390625 121.19585937 -60.5 120.4375 C-61.09014893 120.45321045 -61.68029785 120.4689209 -62.28833008 120.48510742 C-64.96295586 120.54747939 -67.63742864 120.58649657 -70.3125 120.625 C-71.24126953 120.65013672 -72.17003906 120.67527344 -73.12695312 120.70117188 C-74.01962891 120.71083984 -74.91230469 120.72050781 -75.83203125 120.73046875 C-76.65421143 120.7461792 -77.4763916 120.76188965 -78.32348633 120.77807617 C-80.5 120.4375 -80.5 120.4375 -82.29956055 119.1105957 C-83.5 117.4375 -83.5 117.4375 -83.375 114.375 C-82.5 111.4375 -82.5 111.4375 -79.5 109.4375 C-77.4152832 109.21044922 -77.4152832 109.21044922 -75.05078125 109.2421875 C-73.9047644 109.24968018 -73.9047644 109.24968018 -72.7355957 109.25732422 C-71.77097412 109.27553223 -70.80635254 109.29374023 -69.8125 109.3125 C-66.739375 109.35375 -63.66625 109.395 -60.5 109.4375 C-60.5 103.1675 -60.5 96.8975 -60.5 90.4375 C-62.61341797 90.48970703 -62.61341797 90.48970703 -64.76953125 90.54296875 C-66.61717559 90.57110547 -68.46483281 90.59840575 -70.3125 90.625 C-71.24126953 90.65013672 -72.17003906 90.67527344 -73.12695312 90.70117188 C-74.01962891 90.71083984 -74.91230469 90.72050781 -75.83203125 90.73046875 C-76.65421143 90.7461792 -77.4763916 90.76188965 -78.32348633 90.77807617 C-80.5 90.4375 -80.5 90.4375 -82.3034668 89.11450195 C-83.5 87.4375 -83.5 87.4375 -83.3125 84.3125 C-83.044375 83.36375 -82.77625 82.415 -82.5 81.4375 C-80.09940183 80.23720092 -78.60639351 80.32290257 -75.9296875 80.33984375 C-75.03378906 80.34306641 -74.13789062 80.34628906 -73.21484375 80.34960938 C-71.80912109 80.36217773 -71.80912109 80.36217773 -70.375 80.375 C-69.43011719 80.37951172 -68.48523438 80.38402344 -67.51171875 80.38867188 C-65.1744523 80.40047625 -62.83721831 80.41841201 -60.5 80.4375 C-60.5 74.1675 -60.5 67.8975 -60.5 61.4375 C-66.24384586 61.51635073 -66.24384586 61.51635073 -71.98730469 61.61767578 C-72.70821289 61.6226709 -73.42912109 61.62766602 -74.171875 61.6328125 C-74.9050293 61.64328613 -75.63818359 61.65375977 -76.39355469 61.66455078 C-78.86512022 61.3981442 -80.42246027 60.79850978 -82.5 59.4375 C-83.4375 56.5 -83.4375 56.5 -83.5 53.4375 C-82.2956543 51.7644043 -82.2956543 51.7644043 -80.5 50.4375 C-78.32348633 50.09692383 -78.32348633 50.09692383 -75.83203125 50.14453125 C-74.93935547 50.15419922 -74.04667969 50.16386719 -73.12695312 50.17382812 C-71.73379883 50.2115332 -71.73379883 50.2115332 -70.3125 50.25 C-69.37212891 50.26353516 -68.43175781 50.27707031 -67.46289062 50.29101562 C-65.14134962 50.32636904 -62.82096347 50.37571326 -60.5 50.4375 C-60.54640625 49.591875 -60.5928125 48.74625 -60.640625 47.875 C-60.89407424 39.90945236 -60.68078165 33.90463656 -55.07421875 27.9140625 C-48.84498432 22.3447728 -43.47949569 22.15860501 -35.5 22.4375 C-35.52320313 21.17292969 -35.54640625 19.90835938 -35.5703125 18.60546875 C-35.58907126 16.9453184 -35.60727135 15.28516167 -35.625 13.625 C-35.64175781 12.79162109 -35.65851563 11.95824219 -35.67578125 11.09960938 C-35.68544922 9.89594727 -35.68544922 9.89594727 -35.6953125 8.66796875 C-35.71102295 7.56038208 -35.71102295 7.56038208 -35.72705078 6.43041992 C-35.5 4.4375 -35.5 4.4375 -33.5 1.4375 C-30.5 1.125 -30.5 1.125 -27.5 1.4375 C-25.5 3.4375 -25.5 3.4375 -25.27294922 5.40869141 C-25.28342285 6.19421387 -25.29389648 6.97973633 -25.3046875 7.7890625 C-25.30968262 8.55557129 -25.31467773 9.32208008 -25.31982422 10.11181641 C-25.33803223 11.08554199 -25.35624023 12.05926758 -25.375 13.0625 C-25.41625 16.15625 -25.4575 19.25 -25.5 22.4375 C-18.9 22.4375 -12.3 22.4375 -5.5 22.4375 C-5.61846245 16.31929836 -5.61846245 16.31929836 -5.77026367 10.2019043 C-5.77775635 9.43789307 -5.78524902 8.67388184 -5.79296875 7.88671875 C-5.8086792 7.10643311 -5.82438965 6.32614746 -5.84057617 5.5222168 C-5.25337096 1.92784743 -3.48875644 0.61053238 0 0 Z M-49.5 37.4375 C-50.77647923 41.26693768 -50.65564932 44.87778322 -50.66113281 48.86865234 C-50.66609772 49.72912674 -50.67106262 50.58960114 -50.67617798 51.47615051 C-50.69079373 54.32525428 -50.69760036 57.17430239 -50.703125 60.0234375 C-50.7088766 62.00257367 -50.71463433 63.98170982 -50.72039795 65.96084595 C-50.73090603 70.11192077 -50.73675007 74.26297624 -50.74023438 78.4140625 C-50.74572102 83.73275449 -50.76975355 89.05119073 -50.79820633 94.36980247 C-50.81683018 98.45845284 -50.82203816 102.54704154 -50.82357025 106.63573074 C-50.82659749 108.59653752 -50.83462841 110.55734319 -50.84775543 112.51810837 C-50.86481179 115.2614565 -50.86293678 118.00417893 -50.85644531 120.74755859 C-50.8656601 121.55708481 -50.87487488 122.36661102 -50.8843689 123.20066833 C-50.85043091 127.77962683 -50.46371883 130.86626436 -47.5 134.4375 C-43.86966504 137.28153766 -39.3583699 136.72562544 -34.95532227 136.7121582 C-34.09470184 136.71726913 -33.23408142 136.72238007 -32.34738159 136.72764587 C-29.50365232 136.74154127 -26.66016542 136.74058517 -23.81640625 136.73828125 C-21.83869842 136.74216815 -19.86099143 136.74650281 -17.88328552 136.75126648 C-13.73816217 136.75872854 -9.59312399 136.75843746 -5.44799805 136.75317383 C-0.13715837 136.74737863 5.17333262 136.76431154 10.48411465 136.7875185 C14.56848691 136.8022529 18.65277514 136.80312795 22.73716927 136.80000877 C24.69517775 136.80052211 26.65319092 136.80576223 28.61117363 136.81582069 C31.34965528 136.82816227 34.08745691 136.82140717 36.82592773 136.80981445 C37.6338829 136.81745819 38.44183807 136.82510193 39.27427673 136.83297729 C43.85084708 136.79017258 46.87421155 136.31199032 50.5 133.4375 C52.16169784 130.11410433 51.65636118 126.39130954 51.66113281 122.73681641 C51.66609772 121.83586746 51.67106262 120.93491852 51.67617798 120.00666809 C51.69081828 117.01745854 51.69760457 114.02830205 51.703125 111.0390625 C51.70887474 108.96642047 51.71463249 106.89377846 51.72039795 104.82113647 C51.73091314 100.47157543 51.73675247 96.12203291 51.74023438 91.77246094 C51.7457214 86.19469518 51.76975178 80.61717326 51.79820633 75.03948402 C51.81681484 70.75700156 51.82203735 66.47457805 51.82357025 62.19205856 C51.82660115 60.13552898 51.83464432 58.07900055 51.84775543 56.02251053 C51.86477915 53.14714161 51.86294469 50.27237129 51.85644531 47.39697266 C51.8656601 46.54487717 51.87487488 45.69278168 51.8843689 44.81486511 C51.85966011 41.33148495 51.82661662 39.0486236 50.16522217 35.94003296 C46.4320827 32.5716145 41.70124804 33.27593433 36.97705078 33.26049805 C36.10682281 33.25392685 35.23659485 33.24735565 34.33999634 33.24058533 C31.45843419 33.22086424 28.57692408 33.20919362 25.6953125 33.19921875 C24.71137386 33.19514322 23.72743523 33.1910677 22.71368027 33.18686867 C17.50785278 33.16601503 12.30205162 33.1517091 7.09619141 33.14233398 C1.71689112 33.13125878 -3.66199674 33.09684397 -9.04115105 33.05716228 C-13.17612484 33.03103554 -17.31099966 33.02264575 -21.44604874 33.01905251 C-23.42919837 33.01417794 -25.41234334 33.0025393 -27.39541245 32.98401451 C-30.17002994 32.9597024 -32.94357062 32.9605733 -35.71826172 32.9675293 C-36.53713867 32.95471924 -37.35601562 32.94190918 -38.19970703 32.92871094 C-43.19966597 32.97440489 -45.92428406 33.60521453 -49.5 37.4375 Z " fill="#05D837" transform="translate(184.5,90.5625)"/>
<path d="M0 0 C16.5 0 33 0 50 0 C50 16.83 50 33.66 50 51 C33.5 51 17 51 0 51 C0 34.17 0 17.34 0 0 Z " fill="#FEFEFE" transform="translate(160,150)"/>
<path d="M0 0 C1.12474228 -0.00953201 2.24948456 -0.01906403 3.40830994 -0.02888489 C4.61878494 -0.02797348 5.82925995 -0.02706207 7.07641602 -0.02612305 C8.32407242 -0.03040817 9.57172882 -0.0346933 10.85719299 -0.03910828 C13.49592166 -0.04485175 16.13425918 -0.04628698 18.77294922 -0.04101562 C22.1467737 -0.03522252 25.52004892 -0.05215232 28.89378262 -0.0753603 C32.12132284 -0.09367388 35.3488332 -0.08991165 38.57641602 -0.08862305 C39.78486679 -0.09783279 40.99331757 -0.10704254 42.23838806 -0.11653137 C43.93022972 -0.10718819 43.93022972 -0.10718819 45.65625 -0.09765625 C46.645681 -0.09828568 47.635112 -0.0989151 48.65452576 -0.0995636 C52.82996095 0.47106083 55.45471872 2.33655466 58.39282227 5.2746582 C58.66697693 7.87997437 58.66697693 7.87997437 58.69921875 11.22143555 C58.71520615 12.46968109 58.73119354 13.71792664 58.74766541 15.0039978 C58.75404195 16.37285964 58.75943474 17.74172635 58.76391602 19.1105957 C58.77288024 20.51063129 58.78200205 21.91066588 58.79127502 23.31069946 C58.80777789 26.24792816 58.81546734 29.1850427 58.81835938 32.12231445 C58.82374206 35.8844079 58.86140938 39.64542694 58.90710354 43.40721703 C58.93686356 46.30003768 58.94408268 49.19259942 58.94508553 52.08555984 C58.94929073 53.47226503 58.96173744 54.85897079 58.98260307 56.24552536 C59.00948453 58.18653067 59.00159159 60.12792313 58.9921875 62.0690918 C58.99725815 63.17336517 59.0023288 64.27763855 59.0075531 65.41537476 C58.39282227 68.2746582 58.39282227 68.2746582 56.2301178 70.63015747 C52.98087083 72.51342587 51.12918145 72.78081193 47.39672852 72.79223633 C46.21199951 72.80484497 45.02727051 72.81745361 43.80664062 72.83044434 C42.53570557 72.82234741 41.26477051 72.81425049 39.95532227 72.8059082 C38.64249268 72.80973511 37.32966309 72.81356201 35.97705078 72.81750488 C33.20301412 72.82338986 30.42949401 72.81487039 27.65551758 72.79614258 C24.10776146 72.77335229 20.56121579 72.78648094 17.01350403 72.81043243 C13.61901422 72.82839956 10.22484642 72.81580326 6.83032227 72.8059082 C5.55938721 72.81400513 4.28845215 72.82210205 2.97900391 72.83044434 C1.7942749 72.81783569 0.6095459 72.80522705 -0.61108398 72.79223633 C-1.65079346 72.78905396 -2.69050293 72.78587158 -3.76171875 72.78259277 C-7.33040127 72.14555768 -9.01334524 70.75574684 -11.60717773 68.2746582 C-12.92342771 65.64215825 -12.74874069 63.65904333 -12.76831055 60.7109375 C-12.77791809 59.54600266 -12.78752563 58.38106781 -12.79742432 57.18083191 C-12.80167419 55.91628677 -12.80592407 54.65174164 -12.81030273 53.34887695 C-12.81600281 52.05399857 -12.82170288 50.75912018 -12.82757568 49.42500305 C-12.83808571 46.68030403 -12.84392801 43.93563429 -12.84741211 41.19091797 C-12.85288982 37.68031662 -12.87690173 34.17010452 -12.90538406 30.65962505 C-12.92853527 27.30604986 -12.93046208 23.95252792 -12.93530273 20.59887695 C-12.94764954 19.34040451 -12.95999634 18.08193207 -12.97271729 16.7853241 C-12.96971619 15.61093277 -12.96671509 14.43654144 -12.96362305 13.2265625 C-12.96726868 12.19556931 -12.97091431 11.16457611 -12.97467041 10.1023407 C-12.54075658 6.76357878 -11.65030038 4.93895668 -9.60717773 2.2746582 C-6.48850296 0.07563151 -3.75447355 0.01749718 0 0 Z M-1.60717773 11.2746582 C-1.60717773 28.1046582 -1.60717773 44.9346582 -1.60717773 62.2746582 C14.89282227 62.2746582 31.39282227 62.2746582 48.39282227 62.2746582 C48.39282227 45.4446582 48.39282227 28.6146582 48.39282227 11.2746582 C31.89282227 11.2746582 15.39282227 11.2746582 -1.60717773 11.2746582 Z " fill="#04D937" transform="translate(161.607177734375,138.725341796875)"/>
<path d="M0 0 C3.0625 0.3125 3.0625 0.3125 4.72489929 1.49717712 C6.539618 3.96002001 6.47249508 5.62453308 6.52661133 8.67016602 C6.55286087 9.7646254 6.57911041 10.85908478 6.6061554 11.98670959 C6.61881943 13.16800949 6.63148346 14.34930939 6.64453125 15.56640625 C6.6672258 16.77820053 6.68992035 17.98999481 6.71330261 19.23851013 C6.7579201 21.80139009 6.79526767 24.36440531 6.82592773 26.92749023 C6.87485107 30.86301995 6.9503158 34.79739288 7.02929688 38.73242188 C7.06928923 41.21872507 7.10775269 43.70505343 7.14453125 46.19140625 C7.16731644 47.37473038 7.19010162 48.5580545 7.21357727 49.77723694 C7.22406601 50.86854416 7.23455475 51.95985138 7.24536133 53.08422852 C7.25851883 54.04780777 7.27167633 55.01138702 7.28523254 56.00416565 C7.0625 58.3125 7.0625 58.3125 5.0625 60.3125 C-1.55153055 61.81106357 -8.1648214 62.44795357 -14.9375 62.3125 C-17.27574592 62.60942012 -19.61127689 62.93270847 -21.9375 63.3125 C-22.040625 64.240625 -22.14375 65.16875 -22.25 66.125 C-22.9375 69.3125 -22.9375 69.3125 -24.125 71.25 C-26.87851929 72.864132 -28.94296522 72.04449739 -31.9375 71.3125 C-32.06125 72.281875 -32.185 73.25125 -32.3125 74.25 C-32.51875 75.260625 -32.725 76.27125 -32.9375 77.3125 C-33.9275 77.8075 -33.9275 77.8075 -34.9375 78.3125 C-34.29677259 74.65969323 -33.30406091 71.34429413 -32 67.875 C-30.87271443 64.86214684 -29.80997092 61.89240419 -28.875 58.8125 C-27.86601995 56.12188653 -27.15354027 55.09245576 -24.9375 53.3125 C-22.66918945 52.6965332 -22.66918945 52.6965332 -20.05078125 52.36328125 C-19.20555908 52.24895752 -18.36033691 52.13463379 -17.48950195 52.0168457 C-16.42046631 51.88753662 -15.35143066 51.75822754 -14.25 51.625 C-10.846875 51.191875 -7.44375 50.75875 -3.9375 50.3125 C-3.9375 36.7825 -3.9375 23.2525 -3.9375 9.3125 C-4.9275 8.9825 -5.9175 8.6525 -6.9375 8.3125 C-6.9375 7.6525 -6.9375 6.9925 -6.9375 6.3125 C-5.9475 6.3125 -4.9575 6.3125 -3.9375 6.3125 C-4.246875 5.384375 -4.246875 5.384375 -4.5625 4.4375 C-4.68625 3.73625 -4.81 3.035 -4.9375 2.3125 C-2.9375 0.3125 -2.9375 0.3125 0 0 Z " fill="#06DA3F" transform="translate(319.9375,144.6875)"/>
<path d="M0 0 C1.98348467 3.84796026 3.74310028 7.79513787 5.5 11.75 C5.96212891 12.76707031 5.96212891 12.76707031 6.43359375 13.8046875 C8.50186234 18.47382603 9.88241027 23.01554982 11 28 C12.29035156 28.19335938 13.58070313 28.38671875 14.91015625 28.5859375 C16.62764035 28.84872195 18.34508627 29.11175604 20.0625 29.375 C21.33383789 29.56449219 21.33383789 29.56449219 22.63085938 29.7578125 C27.55029882 30.51757149 32.29089282 31.36150587 37 33 C38.28566729 35.57133459 38.12009778 37.397171 38.11352539 40.27587891 C38.11344986 41.3768692 38.11337433 42.4778595 38.11329651 43.61221313 C38.10813522 44.80494843 38.10297394 45.99768372 38.09765625 47.2265625 C38.0962413 48.44451508 38.09482635 49.66246765 38.09336853 50.91732788 C38.08775639 54.8199099 38.07520179 58.72243523 38.0625 62.625 C38.05748657 65.26562417 38.05292339 67.90624924 38.04882812 70.546875 C38.03778301 77.03126945 38.02103302 83.51563068 38 90 C37.67 90 37.34 90 37 90 C36.98786972 88.99188766 36.98786972 88.99188766 36.97549438 87.96340942 C36.88964716 80.988267 36.79015297 74.01341531 36.68261719 67.03857422 C36.64425918 64.43315501 36.60941855 61.8276816 36.578125 59.22216797 C36.53262249 55.48385197 36.47460374 51.74591135 36.4140625 48.0078125 C36.40251129 46.83695099 36.39096008 45.66608948 36.37905884 44.45974731 C36.35918915 43.37877777 36.33931946 42.29780823 36.31884766 41.18408203 C36.30552399 40.22921906 36.29220032 39.27435608 36.2784729 38.29055786 C36.21504068 35.80397353 36.21504068 35.80397353 34 34 C30.91652174 33.83318891 30.91652174 33.83318891 28 34 C27.25042843 37.47147842 27.25042843 37.47147842 27 41 C19.62129328 41.38165724 8.35792834 41.57307228 2.41259766 36.69848633 C0.83088094 34.79665377 0.14647836 33.21430053 -0.640625 30.875 C-0.90617187 30.08609375 -1.17171875 29.2971875 -1.4453125 28.484375 C-1.71085937 27.66453125 -1.97640625 26.8446875 -2.25 26 C-2.53101563 25.18015625 -2.81203125 24.3603125 -3.1015625 23.515625 C-3.36195313 22.72671875 -3.62234375 21.9378125 -3.890625 21.125 C-4.24688965 20.04605469 -4.24688965 20.04605469 -4.61035156 18.9453125 C-5 17 -5 17 -4 14 C-1 20.625 -1 20.625 -1 24 C-0.01 24 0.98 24 2 24 C2.309375 23.05125 2.61875 22.1025 2.9375 21.125 C4 18 4 18 5 16 C3.55661512 12.61255612 1.89796117 9.35865011 0.25 6.06640625 C-1 3 -1 3 0 0 Z " fill="#05D52E" transform="translate(289,112)"/>
<path d="M0 0 C0.78375 0.04125 1.5675 0.0825 2.375 0.125 C1.776875 0.29 1.17875 0.455 0.5625 0.625 C-3.54571965 3.4420649 -4.28160968 9.02565688 -5.7109375 13.6015625 C-6.11786248 14.8808236 -6.52677402 16.1594542 -6.9375 17.4375 C-7.1444751 18.08533447 -7.3514502 18.73316895 -7.56469727 19.40063477 C-9.28977265 24.58752121 -11.65873647 29.12908574 -14.5859375 33.7578125 C-15.91798239 36.79247116 -15.73360706 38.01804546 -14.625 41.125 C-12.86421021 44.01117888 -12.86421021 44.01117888 -10.6875 46.8125 C-9.97722656 47.76511719 -9.26695312 48.71773437 -8.53515625 49.69921875 C-6.69723526 52.13148933 -6.69723526 52.13148933 -4.625 54.125 C-4 56.25 -4 56.25 -3.625 58.125 C-7.33326825 54.58798392 -10.4862728 50.88600126 -13.4375 46.6875 C-13.84419922 46.14029297 -14.25089844 45.59308594 -14.66992188 45.02929688 C-17.33497483 41.24447377 -18.32951984 38.71943278 -17.625 34.125 C-16.3046875 31.109375 -16.3046875 31.109375 -14.5 27.875 C-11.05696354 21.47008857 -8.71383078 14.93282603 -6.57958984 7.99121094 C-4.15333234 0.19777773 -4.15333234 0.19777773 0 0 Z " fill="#08CE18" transform="translate(294.625,198.875)"/>
<path d="M0 0 C0.83265381 0.00523682 1.66530762 0.01047363 2.52319336 0.01586914 C3.42231445 0.0190918 4.32143555 0.02231445 5.24780273 0.02563477 C6.66609375 0.03820312 6.66609375 0.03820312 8.11303711 0.05102539 C9.06243164 0.05553711 10.01182617 0.06004883 10.98999023 0.06469727 C13.34356776 0.07652429 15.69702188 0.09300514 18.05053711 0.11352539 C17.72053711 0.77352539 17.39053711 1.43352539 17.05053711 2.11352539 C11.11053711 2.11352539 5.17053711 2.11352539 -0.94946289 2.11352539 C-0.94946289 8.38352539 -0.94946289 14.65352539 -0.94946289 21.11352539 C3.67053711 21.11352539 8.29053711 21.11352539 13.05053711 21.11352539 C13.05053711 21.44352539 13.05053711 21.77352539 13.05053711 22.11352539 C7.77053711 22.11352539 2.49053711 22.11352539 -2.94946289 22.11352539 C-2.9762949 18.63430804 -2.99621959 15.155295 -3.01196289 11.67602539 C-3.0203418 10.68280273 -3.0287207 9.68958008 -3.03735352 8.66625977 C-3.04057617 7.72202148 -3.04379883 6.7777832 -3.04711914 5.80493164 C-3.05235596 4.9303833 -3.05759277 4.05583496 -3.06298828 3.15478516 C-2.91244467 0.44791384 -2.70813365 0.15770597 0 0 Z " fill="#2CD73C" transform="translate(247.949462890625,149.886474609375)"/>
<path d="M0 0 C0.66 0.33 1.32 0.66 2 1 C-5.92 8.92 -13.84 16.84 -22 25 C-22 22 -22 22 -20.43945312 20.14648438 C-19.72724609 19.46908203 -19.01503906 18.79167969 -18.28125 18.09375 C-17.13076172 16.97806641 -17.13076172 16.97806641 -15.95703125 15.83984375 C-14.31901042 14.27994792 -12.68098958 12.72005208 -11.04296875 11.16015625 C-10.27597656 10.41636719 -9.50898438 9.67257812 -8.71875 8.90625 C-8.00654297 8.22884766 -7.29433594 7.55144531 -6.56054688 6.85351562 C-4.67796936 5.02134286 -4.67796936 5.02134286 -5 2 C-2.625 0.9375 -2.625 0.9375 0 0 Z " fill="#03CF15" transform="translate(297,264)"/>
<path d="M0 0 C0 0.66 0 1.32 0 2 C-1.4609375 3.4375 -1.4609375 3.4375 -3.375 5 C-5.34164804 6.61864036 -7.19674196 8.19674196 -9 10 C-9.99 9.34 -10.98 8.68 -12 8 C-11.38125 7.7525 -10.7625 7.505 -10.125 7.25 C-7.86253506 6.17856271 -7.86253506 6.17856271 -7 4 C-5.49266763 0.98533526 -3.32287525 0 0 0 Z " fill="#15D83E" transform="translate(101,58)"/>
<path d="M0 0 C0.66 0.33 1.32 0.66 2 1 C0.31326082 5.49797113 -1.81673892 9.72886302 -4 14 C-4.66 14 -5.32 14 -6 14 C-4.50829734 9.0276578 -2.39542583 4.58154261 0 0 Z " fill="#13D32B" transform="translate(283,221)"/>
<path d="M0 0 C0 3 0 3 -0.5 5.3125 C-1.04817159 8.25892227 -1.06954294 11.0096534 -1 14 C-3.46468444 12.15148667 -3.96547258 11.2268945 -4.4375 8.125 C-3.90917428 4.35124488 -2.57702263 2.73808654 0 0 Z " fill="#06D01A" transform="translate(282,106)"/>
<path d="M0 0 C0 3.70411834 -0.75301769 5.078923 -3 8 C-6.1875 9.3125 -6.1875 9.3125 -9 10 C-8.06409496 8.8944811 -7.12620142 7.79064547 -6.1875 6.6875 C-5.66542969 6.07261719 -5.14335938 5.45773438 -4.60546875 4.82421875 C-3.12827531 3.14575321 -1.59960869 1.56117966 0 0 Z " fill="#24D43E" transform="translate(88,67)"/>
<path d="M0 0 C1.45606519 4.52092968 0.27032841 7.51648796 -1 12 C-1.99 11.67 -2.98 11.34 -4 11 C-3.19315107 8.57945321 -2.33732102 6.19898183 -1.4375 3.8125 C-1.03337891 2.73935547 -1.03337891 2.73935547 -0.62109375 1.64453125 C-0.41613281 1.10183594 -0.21117187 0.55914062 0 0 Z " fill="#0BDA46" transform="translate(157,32)"/>
<path d="M0 0 C2.0625 0.4375 2.0625 0.4375 4 1 C3.67 1.99 3.34 2.98 3 4 C2.01 3.67 1.02 3.34 0 3 C0 4.65 0 6.3 0 8 C-0.66 7.67 -1.32 7.34 -2 7 C-1.125 1.125 -1.125 1.125 0 0 Z " fill="#15D633" transform="translate(103,201)"/>
<path d="M0 0 C0.68707555 2.49064888 1 4.37886292 1 7 C0.34 7 -0.32 7 -1 7 C-1.66 9.64 -2.32 12.28 -3 15 C-4.11581881 10.53672476 -3.68986512 9.39238394 -2.0625 5.25 C-1.49208984 3.77273437 -1.49208984 3.77273437 -0.91015625 2.265625 C-0.60980469 1.51796875 -0.30945313 0.7703125 0 0 Z " fill="#0CD220" transform="translate(75,121)"/>
<path d="M0 0 C1.65 0 3.3 0 5 0 C4.34 0.66 3.68 1.32 3 2 C2.65657551 3.33076989 2.32380126 4.66431979 2 6 C1.34 6.99 0.68 7.98 0 9 C0 6.03 0 3.06 0 0 Z " fill="#C6F4D8" transform="translate(246,211)"/>
<path d="M0 0 C0.66 0.33 1.32 0.66 2 1 C1.67 1.99 1.34 2.98 1 4 C-2.0625 5.1875 -2.0625 5.1875 -5 6 C-3.63016497 2.83884224 -3.0109362 2.0072908 0 0 Z " fill="#08D320" transform="translate(121,270)"/>
<path d="M0 0 C3.3 0.33 6.6 0.66 10 1 C10 1.33 10 1.66 10 2 C6.7 2.33 3.4 2.66 0 3 C0 2.01 0 1.02 0 0 Z " fill="#0CDA43" transform="translate(46,203)"/>
<path d="M0 0 C0 3 0 3 -2 5.1875 C-2.66 5.785625 -3.32 6.38375 -4 7 C-4.33 5.68 -4.66 4.36 -5 3 C-3.35 2.01 -1.7 1.02 0 0 Z " fill="#04D223" transform="translate(299,99)"/>
<path d="M0 0 C0 3 0 3 -1 5 C-1.35169068 6.32860925 -1.68770276 7.66158328 -2 9 C-2.66 7.35 -3.32 5.7 -4 4 C-2.68 2.68 -1.36 1.36 0 0 Z " fill="#E8F8F0" transform="translate(81,89)"/>
</svg>
