<?xml version="1.0" encoding="UTF-8"?>
<svg version="1.1" xmlns="http://www.w3.org/2000/svg" width="371" height="371">
<path d="M0 0 C122.43 0 244.86 0 371 0 C371 122.43 371 244.86 371 371 C248.57 371 126.14 371 0 371 C0 248.57 0 126.14 0 0 Z " fill="#FEFEFE" transform="translate(0,0)"/>
<path d="M0 0 C7.07083492 5.1158193 11.16226046 11.0507738 13.484375 19.45703125 C14.40875112 29.73265415 14.17313705 39.30431075 7.6953125 47.8046875 C5.71109326 50.11960994 3.63890567 52.30250058 1.484375 54.45703125 C1.36204856 55.9295377 1.3066294 57.40768836 1.27905273 58.88500977 C1.25910751 59.82590958 1.23916229 60.76680939 1.21861267 61.73622131 C1.20190018 62.75912766 1.18518768 63.782034 1.16796875 64.8359375 C1.1367971 66.39863625 1.1367971 66.39863625 1.10499573 67.99290466 C1.03938443 71.33504372 0.98056169 74.6772641 0.921875 78.01953125 C0.87870078 80.27930543 0.83508686 82.53907126 0.79101562 84.79882812 C0.68369133 90.35147546 0.58194688 95.90420446 0.484375 101.45703125 C1.09880463 101.65528503 1.71323425 101.85353882 2.34628296 102.05780029 C3.15417267 102.32199768 3.96206238 102.58619507 4.79443359 102.85839844 C5.59448822 103.11852722 6.39454285 103.37865601 7.21884155 103.64666748 C19.7840179 108.14113375 28.22704342 118.13793764 34.484375 129.45703125 C37.57244225 136.03433461 39.63619138 141.87222717 39.34375 149.1875 C38.8447175 159.4793724 38.8447175 159.4793724 42.80859375 168.6015625 C45.60213207 170.71511784 48.35018116 172.49156301 51.39404297 174.20263672 C55.47613033 176.65227055 59.1864716 179.65687173 62.984375 182.51953125 C64.48680066 183.6461527 65.9968307 184.76273168 67.515625 185.8671875 C68.48338867 186.58080444 68.48338867 186.58080444 69.47070312 187.30883789 C73.33512148 189.51232474 76.32026601 189.59131322 80.484375 188.45703125 C91.7104153 187.65983863 99.73215936 188.51721266 108.734375 195.58203125 C114.00408609 200.44152531 118.04392003 207.77809977 118.72265625 214.98828125 C118.97043033 224.89924462 117.15216998 232.66285698 110.734375 240.39453125 C104.15645239 247.24194045 97.10713441 249.53397248 87.734375 249.76953125 C78.81327018 249.66020399 72.72617299 246.3952087 66.26953125 240.375 C63.10286396 236.97273821 60.22829038 233.18484339 58.98974609 228.64331055 C57.08067624 222.08215539 53.39261786 219.65029023 47.734375 216.14453125 C46.01631215 215.03551627 44.3001908 213.92348828 42.5859375 212.80859375 C41.7290332 212.2559082 40.87212891 211.70322266 39.98925781 211.13378906 C37.60633598 209.53867141 35.33426156 207.86424765 33.0703125 206.10546875 C32.39838867 205.58509033 31.72646484 205.06471191 31.03417969 204.52856445 C29.7769636 203.54291597 28.52963034 202.54449303 27.29394531 201.53198242 C25.42945184 200.02476224 25.42945184 200.02476224 22.484375 198.45703125 C19.77766701 198.84898059 19.77766701 198.84898059 17.484375 200.45703125 C16.7521875 200.90820312 16.02 201.359375 15.265625 201.82421875 C14.5128125 202.32179688 13.76 202.819375 12.984375 203.33203125 C-0.64349906 211.46093858 -15.96515332 212.50686571 -31.43359375 209.76171875 C-37.79373362 207.9532202 -43.42442335 205.13084932 -49.078125 201.7265625 C-51.69401665 200.36411893 -53.58307663 199.75508996 -56.515625 199.45703125 C-58.79280917 200.36195988 -58.79280917 200.36195988 -60.921875 201.921875 C-62.15284912 202.74606934 -62.15284912 202.74606934 -63.40869141 203.58691406 C-64.26897949 204.18342773 -65.12926758 204.77994141 -66.015625 205.39453125 C-67.80387928 206.59755644 -69.59294332 207.79937879 -71.3828125 209 C-72.69137207 209.88631104 -72.69137207 209.88631104 -74.02636719 210.79052734 C-77.34758972 213.01401352 -80.72698588 215.12914236 -84.140625 217.20703125 C-85.64496094 218.12742187 -85.64496094 218.12742187 -87.1796875 219.06640625 C-89.515625 220.45703125 -89.515625 220.45703125 -91.515625 221.45703125 C-92.16221533 223.45852222 -92.73298396 225.48474904 -93.265625 227.51953125 C-96.09741394 237.03517496 -100.91772595 243.39294759 -109.515625 248.45703125 C-117.59738742 252.32984688 -125.56848312 252.62742096 -134.078125 249.95703125 C-142.67103256 246.49312933 -148.41692257 240.68924844 -152.640625 232.53515625 C-155.65208662 225.38293491 -155.66585353 216.25195983 -153.8671875 208.75390625 C-149.8149873 198.84852797 -142.1607419 192.49067157 -132.640625 188.14453125 C-127.41624337 186.99516729 -122.05935976 186.63462076 -116.91796875 188.296875 C-113.86993743 189.2709881 -111.72077906 189.7068385 -108.515625 189.45703125 C-104.73075489 187.28294227 -101.67425202 184.73356984 -98.4375 181.828125 C-95.65922433 179.33533812 -92.81424331 177.29358031 -89.65625 175.3046875 C-81.10140953 170.11243254 -81.10140953 170.11243254 -75.69091797 162.08886719 C-74.88086719 156.97014143 -75.19725382 151.91491685 -75.48681641 146.76171875 C-75.64366251 134.21403017 -67.20966809 121.50072394 -58.94140625 112.74609375 C-53.93903112 108.02565603 -48.49500562 104.40700737 -42.34985352 101.35888672 C-41.63128677 101.00180634 -40.91272003 100.64472595 -40.17237854 100.27682495 C-39.62564987 100.00629303 -39.0789212 99.73576111 -38.515625 99.45703125 C-38.34204242 93.31907475 -38.21530311 87.18255909 -38.13110352 81.04272461 C-38.09599114 78.95620831 -38.04828811 76.86986314 -37.98754883 74.78393555 C-37.9022215 71.77740211 -37.86284515 68.77315203 -37.83203125 65.765625 C-37.77783775 64.37614906 -37.77783775 64.37614906 -37.72254944 62.95860291 C-37.72025144 59.13212498 -37.74566565 56.50434736 -40.05932617 53.35725403 C-41.90247045 51.4793923 -41.90247045 51.4793923 -43.83827209 49.89251709 C-46.06662367 47.98548421 -47.17152065 45.91372654 -48.390625 43.26953125 C-48.77992188 42.45097656 -49.16921875 41.63242188 -49.5703125 40.7890625 C-52.72528154 33.00593641 -53.18064868 22.32821816 -49.890625 14.51953125 C-49.14386178 13.14009363 -48.35167263 11.78425686 -47.515625 10.45703125 C-47.103125 9.7609375 -46.690625 9.06484375 -46.265625 8.34765625 C-41.77918343 1.5670116 -35.5075755 -1.94618855 -28.078125 -4.91796875 C-17.76398234 -6.72746746 -9.01085702 -5.52684553 0 0 Z " fill="#03D835" transform="translate(205.515625,54.54296875)"/>
<path d="M0 0 C6.27 0 12.54 0 19 0 C19.00410889 1.36729248 19.00821777 2.73458496 19.01245117 4.14331055 C19.03424291 9.22214316 19.08853386 14.30020111 19.15258789 19.37866211 C19.17576738 21.57552662 19.19016347 23.77250225 19.19555664 25.96948242 C19.20484627 29.13009891 19.24583877 32.28896776 19.29296875 35.44921875 C19.2890361 36.42960617 19.28510345 37.40999359 19.28105164 38.42008972 C19.38052492 43.08192142 19.45345676 45.29047931 22.36938477 49.07592773 C25.12183587 51.08911262 27.53938855 52.24534041 30.75 53.375 C42.15262429 57.90251258 50.28703274 65.72630706 55.3515625 77.01171875 C56.33381292 79.65814164 57.2217798 82.28722112 58 85 C58.18087158 85.61125732 58.36174316 86.22251465 58.5480957 86.85229492 C59.05345487 89.25404781 59.03253394 91.32306373 58.921875 93.7734375 C58.89609375 94.6809375 58.8703125 95.5884375 58.84375 96.5234375 C58.78148752 98.4172547 58.70347732 100.3106227 58.609375 102.203125 C58.50698899 106.72090757 58.57529758 109.29386827 60.9453125 113.234375 C64.62137212 116.88836787 68.91712842 119.87191633 73.125 122.875 C73.96651611 123.4848877 74.80803223 124.09477539 75.67504883 124.72314453 C77.34596888 125.93324851 79.01917068 127.14020912 80.69482422 128.34375 C83.70365228 130.50556842 86.69524988 132.6903063 89.6875 134.875 C91.12451934 135.91732966 92.56178816 136.95931638 94 138 C93.57847656 138.77085937 93.15695312 139.54171875 92.72265625 140.3359375 C92.17480469 141.33882812 91.62695312 142.34171875 91.0625 143.375 C90.51722656 144.37273437 89.97195313 145.37046875 89.41015625 146.3984375 C88.5850241 147.92070346 87.77435609 149.45128783 87 151 C82.69874194 149.75144904 79.60208652 148.22878076 76.0625 145.5 C71.44646747 142.03479651 66.74563251 138.75599989 61.9375 135.5625 C61.28209229 135.12550781 60.62668457 134.68851563 59.95141602 134.23828125 C54.82797345 130.84101887 52.2638691 129.45418568 46 130 C42.76948736 131.78641061 42.76948736 131.78641061 39.75 134.25 C28.44957468 142.51738276 17.83528597 144.45667494 4 143 C-4.62792217 141.37656433 -11.7679898 137.88649338 -19 133 C-22.84405084 130.43729944 -25.56981071 130.12802624 -30 131 C-41.77350098 135.81797446 -52.45093494 143.99415649 -63 151 C-65.45775407 148.61426803 -67.31281805 146.18701232 -69.1875 143.3125 C-69.71730469 142.50425781 -70.24710937 141.69601563 -70.79296875 140.86328125 C-71.19128906 140.24839844 -71.58960937 139.63351563 -72 139 C-68.08319672 134.92501812 -63.90009617 131.35459594 -59.5 127.8125 C-58.45573853 126.95930176 -58.45573853 126.95930176 -57.39038086 126.08886719 C-54.03038526 123.36047272 -50.65375953 120.71487633 -47.09765625 118.24609375 C-41.2198575 114.38804486 -41.2198575 114.38804486 -36.9765625 108.98046875 C-36.63312508 106.55320156 -36.77667246 104.44613444 -37 102 C-37.08826127 99.20597923 -37.15674345 96.41958315 -37.1875 93.625 C-37.20067261 92.51306274 -37.20067261 92.51306274 -37.21411133 91.37866211 C-37.17400675 78.8342265 -31.12823217 69.20451269 -22.75 60.25 C-18.30245141 55.94495297 -13.64717529 53.42158534 -8 51 C-3.72407086 49.29899229 -3.72407086 49.29899229 -1 46 C-0.88213309 44.51987176 -0.82307062 43.03483534 -0.79467773 41.55029297 C-0.77473251 40.62948944 -0.75478729 39.70868591 -0.73423767 38.75997925 C-0.71752518 37.76410797 -0.70081268 36.76823669 -0.68359375 35.7421875 C-0.6524221 34.21490524 -0.6524221 34.21490524 -0.62062073 32.6567688 C-0.55510534 29.39624945 -0.49623098 26.13564794 -0.4375 22.875 C-0.39431668 20.66796017 -0.35070245 18.46092872 -0.30664062 16.25390625 C-0.1994219 10.83602225 -0.09816004 5.41805539 0 0 Z " fill="#FDFEFD" transform="translate(177,113)"/>
<path d="M0 0 C0.495 3.96 0.495 3.96 1 8 C1.33 8 1.66 8 2 8 C2.24970296 10.72868171 2.47531211 13.45586014 2.6875 16.1875 C2.79674805 17.34088867 2.79674805 17.34088867 2.90820312 18.51757812 C3.25513096 23.27253016 3.20910421 26.19491929 0 30 C-2.07317817 31.81579861 -4.11372698 33.47998981 -6.3125 35.125 C-7.56651632 36.08709614 -8.82041913 37.04934023 -10.07421875 38.01171875 C-10.7192334 38.5020459 -11.36424805 38.99237305 -12.02880859 39.49755859 C-15.24809875 41.95130043 -18.43720306 44.44307116 -21.625 46.9375 C-22.20419189 47.38561035 -22.78338379 47.8337207 -23.38012695 48.29541016 C-26.49363969 50.72482069 -29.18877561 53.18877561 -32 56 C-29.69 59.63 -27.38 63.26 -25 67 C-18.15982103 63.39336018 -11.72525849 59.29096105 -5.29321289 55.01049805 C8.2522525 46.08939591 8.2522525 46.08939591 14.80859375 46.41015625 C18.74249346 47.46901339 21.85976947 49.89649461 25.1875 52.1796875 C36.04253692 59.20530862 48.38797148 60.21884393 61 59 C69.42986174 57.08696669 75.8239334 53.12265208 82.3671875 47.57421875 C85.90836827 45.45686586 87.92441061 45.43905866 92 46 C94.62110181 47.16512928 96.90247748 48.67380733 99.25 50.3125 C100.16652344 50.91868164 100.16652344 50.91868164 101.1015625 51.53710938 C103.98522452 53.4731925 106.67958899 55.40214855 109 58 C107.68 58.33 106.36 58.66 105 59 C105 59.99 105 60.98 105 62 C104.34 62 103.68 62 103 62 C103 62.99 103 63.98 103 65 C103.55171875 65.25523437 104.1034375 65.51046875 104.671875 65.7734375 C107.36637058 67.19302074 109.76778728 68.86132254 112.25 70.625 C113.58804688 71.57246094 113.58804688 71.57246094 114.953125 72.5390625 C115.62859375 73.02117187 116.3040625 73.50328125 117 74 C112.91544702 74 111.31386526 72.35794259 108 70 C107.42765625 69.59934326 106.8553125 69.19868652 106.265625 68.78588867 C103.4076765 66.77402255 100.62706993 64.70771606 97.875 62.55078125 C96.92625 61.81214844 95.9775 61.07351563 95 60.3125 C94.154375 59.62800781 93.30875 58.94351563 92.4375 58.23828125 C90.05584832 56.6961 90.05584832 56.6961 87.46875 57.61328125 C85.07980636 58.95517206 82.78564553 60.36428223 80.5 61.875 C66.87212594 70.00390733 51.55047168 71.04983446 36.08203125 68.3046875 C29.72189138 66.49618895 24.09120165 63.67381807 18.4375 60.26953125 C15.82160835 58.90708768 13.93254837 58.29805871 11 58 C8.72281583 58.90492863 8.72281583 58.90492863 6.59375 60.46484375 C5.77310059 61.01430664 4.95245117 61.56376953 4.10693359 62.12988281 C3.24664551 62.72639648 2.38635742 63.32291016 1.5 63.9375 C-0.28825428 65.14052519 -2.07731832 66.34234754 -3.8671875 67.54296875 C-4.73956055 68.13384277 -5.61193359 68.7247168 -6.51074219 69.33349609 C-9.83196472 71.55698227 -13.21136088 73.67211111 -16.625 75.75 C-17.62789063 76.36359375 -18.63078125 76.9771875 -19.6640625 77.609375 C-22 79 -22 79 -24 80 C-24.64659033 82.00149097 -25.21735896 84.02771779 -25.75 86.0625 C-28.58178894 95.57814371 -33.40210095 101.93591634 -42 107 C-50.08176242 110.87281563 -58.05285812 111.17038971 -66.5625 108.5 C-75.15540756 105.03609808 -80.90129757 99.23221719 -85.125 91.078125 C-88.13646162 83.92590366 -88.15022853 74.79492858 -86.3515625 67.296875 C-82.2993623 57.39149672 -74.6451169 51.03364032 -65.125 46.6875 C-59.90061837 45.53813604 -54.54373476 45.17758951 -49.40234375 46.83984375 C-46.35431243 47.81395685 -44.20515406 48.24980725 -41 48 C-37.21512989 45.82591102 -34.15862702 43.27653859 -30.921875 40.37109375 C-28.14359933 37.87830687 -25.29861831 35.83654906 -22.140625 33.84765625 C-13.50631695 28.61808871 -13.50631695 28.61808871 -8.15917969 20.47070312 C-7.35605184 15.26071689 -7.51706544 10.17704788 -8.14672852 4.9543457 C-8 3 -8 3 -6.67553711 1.25073242 C-4.40192322 -0.44644432 -2.76509194 -0.22419664 0 0 Z " fill="#04D835" transform="translate(138,196)"/>
<path d="M0 0 C5.99645699 3.36998952 9.4766741 8.61752231 11.625 15.0625 C12.6167096 22.78366763 10.99337829 28.64109797 6.625 35.0625 C2.95055883 39.07525289 -1.10694776 41.82228757 -6.546875 42.3984375 C-19.6617048 42.5416125 -19.6617048 42.5416125 -25.375 38.0625 C-30.51034762 32.92715238 -33.45268546 27.54348622 -33.875 20.25 C-33.63088785 13.56742988 -31.21875984 7.7900751 -26.3671875 3.13671875 C-18.50440858 -2.9417026 -9.24193283 -4.08103559 0 0 Z " fill="#FCFEFD" transform="translate(197.375,61.9375)"/>
<path d="M0 0 C5.19097992 3.41920833 8.29668911 6.88811973 10 13 C11.09360384 20.98699436 9.75224406 27.42270461 5 34 C-0.75549362 39.47842391 -6.25519556 40.37131224 -13.92578125 40.26953125 C-19.38581222 39.7908246 -23.03757604 38.09554244 -26.78515625 34.09375 C-32.0660482 27.40212332 -32.82001145 21.44611789 -32 13 C-30.23332707 6.77407431 -26.32265927 2.53294414 -21 -1 C-13.78956338 -4.30478345 -6.88997991 -3.60065748 0 0 Z " fill="#FCFEFC" transform="translate(93,255)"/>
<path d="M0 0 C3.97221188 3.20764898 6.4420928 6.06307033 8 11 C8.64357885 17.67817534 9.08223266 24.36933426 5 30 C1.14700337 34.35996988 -2.38842111 37.62558009 -8.26953125 38.46875 C-15.83392608 38.53547013 -21.29867683 38.26940475 -27 33 C-32.59110689 26.96748994 -33.47333402 22.37169911 -33.30078125 14.26171875 C-32.77448563 8.55448702 -31.29977284 4.9242136 -26.87109375 1.21875 C-18.00274071 -4.97594801 -9.23145126 -6.19880508 0 0 Z " fill="#FCFEFD" transform="translate(306,256)"/>
<path d="M0 0 C2 3 2 3 2.1796875 5.38671875 C0.23318941 9.69866319 -3.73835272 10.85689473 -7.875 12.8125 C-15.53550113 16.63633712 -22.34629948 20.56818104 -29 26 C-29.76183594 26.59941406 -30.52367187 27.19882813 -31.30859375 27.81640625 C-47.91507572 41.60237655 -59.44471968 63.63935197 -62 85 C-62.19616003 91.324425 -61.99908331 97.64124308 -61.83398438 103.96484375 C-61.81529297 105.21394531 -61.79660156 106.46304688 -61.77734375 107.75 C-61.74890381 108.87921875 -61.72046387 110.0084375 -61.69116211 111.171875 C-62 114 -62 114 -63.35375977 115.8984375 C-65 117 -65 117 -67.5625 116.875 C-70 116 -70 116 -72 113 C-76.54233486 85.9789311 -69.67331893 59.67908375 -54.16796875 37.36328125 C-46.09353508 26.80702165 -36.35233925 16.96183516 -25 10 C-24.00871094 9.38382813 -23.01742187 8.76765625 -21.99609375 8.1328125 C-6.58747994 -1.16249646 -6.58747994 -1.16249646 0 0 Z " fill="#05D732" transform="translate(154,114)"/>
<path d="M0 0 C18.32719145 1.05046097 35.24123429 17.74936706 47.125 30.25 C59.838897 44.57551774 67.00942991 61.52752232 71 80 C71.26369385 80.89005737 71.26369385 80.89005737 71.53271484 81.7980957 C72.5489503 86.58672037 72.22600016 91.59576438 72.24023438 96.47216797 C72.24996907 98.4935782 72.2810344 100.51398301 72.3125 102.53515625 C72.32023437 104.45134766 72.32023437 104.45134766 72.328125 106.40625 C72.3374707 107.57478516 72.34681641 108.74332031 72.35644531 109.94726562 C71.97091545 113.24909127 71.23583535 114.60035097 69 117 C66.0625 116.625 66.0625 116.625 63 116 C61.72943476 113.45886951 61.94848058 111.80785901 62.04296875 108.96875 C62.35503668 95.7188224 61.91646019 83.70580089 58 71 C57.649375 69.85660156 57.29875 68.71320313 56.9375 67.53515625 C51.9552894 53.2631988 43.67147756 41.53485836 33 31 C32.18660156 30.18789062 31.37320313 29.37578125 30.53515625 28.5390625 C21.86433577 20.30389102 11.54983631 14.69911839 1.046875 9.12890625 C-1 8 -1 8 -2 7 C-2.1875 4.5625 -2.1875 4.5625 -2 2 C-1.34 1.34 -0.68 0.68 0 0 Z " fill="#04D834" transform="translate(223,114)"/>
<path d="M0 0 C3.28966782 1.0486714 5.74195565 2.63685589 8.62109375 4.54296875 C30.71676239 18.58778839 58.05140271 23.42514849 83.68359375 17.85546875 C96.64726214 14.83653228 108.90018604 10.12153175 119.96875 2.6328125 C122.90949662 0.7075755 124.24763691 0.28280928 127.68359375 0.85546875 C129.68359375 2.85546875 129.68359375 2.85546875 130.046875 5.27734375 C129.68359375 7.85546875 129.68359375 7.85546875 128.1640625 9.55859375 C103.01300283 26.5259185 72.78276004 33.99184711 42.68359375 28.66796875 C26.0014641 25.37596037 7.24262414 18.80041406 -5.31640625 6.85546875 C-5.87890625 4.16796875 -5.87890625 4.16796875 -5.31640625 1.85546875 C-2.31640625 -0.14453125 -2.31640625 -0.14453125 0 0 Z " fill="#04D837" transform="translate(126.31640625,287.14453125)"/>
<path d="M0 0 C1.32 0.66 2.64 1.32 4 2 C4 2.66 4 3.32 4 4 C10.36539272 6.11293829 16.31006781 7.46048934 23 8 C23 8.66 23 9.32 23 10 C23.66 10 24.32 10 25 10 C24.34 11.65 23.68 13.3 23 15 C20.73044814 15.22185844 18.45926245 15.42705515 16.1875 15.625 C14.92292969 15.74101562 13.65835938 15.85703125 12.35546875 15.9765625 C7.56965283 16.00999078 5.00239633 13.30455889 1.3125 10.5 C0.50425781 9.8915625 -0.30398437 9.283125 -1.13671875 8.65625 C-2.05904297 7.83640625 -2.05904297 7.83640625 -3 7 C-3 6.34 -3 5.68 -3 5 C-2.34 5 -1.68 5 -1 5 C-0.67 3.35 -0.34 1.7 0 0 Z " fill="#02DB3F" transform="translate(64,289)"/>
<path d="M0 0 C0 10.89 0 21.78 0 33 C-5 34 -5 34 -8 32 C-8.2487793 29.20263672 -8.2487793 29.20263672 -8.07421875 25.6796875 C-8.01943359 24.42285156 -7.96464844 23.16601562 -7.90820312 21.87109375 C-7.83496498 20.53904434 -7.76139294 19.20701325 -7.6875 17.875 C-7.62424797 16.53522175 -7.56238166 15.19537731 -7.50195312 13.85546875 C-7.34828831 10.5694058 -7.18037667 7.28468758 -7 4 C-6.01 4.33 -5.02 4.66 -4 5 C-3.814375 4.0409375 -3.814375 4.0409375 -3.625 3.0625 C-3.41875 2.381875 -3.2125 1.70125 -3 1 C-1 0 -1 0 0 0 Z M-3 3 C-2 6 -2 6 -2 6 Z " fill="#01DA41" transform="translate(90,195)"/>
<path d="M0 0 C0.33 2.64 0.66 5.28 1 8 C1.33 8 1.66 8 2 8 C2.33 13.61 2.66 19.22 3 25 C0.48916886 23.74458443 0.12874554 22.49936512 -1 20 C-2.65 20.66 -4.3 21.32 -6 22 C-6.42261828 18.89886548 -6.80841143 15.79423176 -7.1875 12.6875 C-7.30802734 11.80642578 -7.42855469 10.92535156 -7.55273438 10.01757812 C-7.65263672 9.17001953 -7.75253906 8.32246094 -7.85546875 7.44921875 C-7.95496826 6.66893311 -8.05446777 5.88864746 -8.15698242 5.0847168 C-8 3 -8 3 -6.67700195 1.23364258 C-4.40114406 -0.44053269 -2.75472077 -0.22335574 0 0 Z " fill="#03DA42" transform="translate(138,196)"/>
<path d="M0 0 C2.60607392 0.61778047 5.20965697 1.24387211 7.8125 1.875 C8.55048828 2.04902344 9.28847656 2.22304688 10.04882812 2.40234375 C13.49717037 3.24492511 16.01928362 4.01285575 19 6 C18.2575 6.0825 17.515 6.165 16.75 6.25 C13.47246747 7.14387251 12.28440987 8.55939116 10 11 C20.91503548 13.12425121 31.93469282 14.03279637 43 15 C43 15.33 43 15.66 43 16 C29.16068132 16.50290929 16.30099536 14.97819107 3 11 C3.75 9.0625 3.75 9.0625 5 7 C7.125 6.25 7.125 6.25 9 6 C9 5.34 9 4.68 9 4 C6.03 3.01 3.06 2.02 0 1 C0 0.67 0 0.34 0 0 Z " fill="#08D226" transform="translate(151,301)"/>
<path d="M0 0 C0.33 0 0.66 0 1 0 C1.01417969 0.9178125 1.02835937 1.835625 1.04296875 2.78125 C1.33541539 10.30582293 1.64724733 16.3640329 7 22 C8.94659852 23.59931803 10.78648629 24.76455049 13 26 C12.01 26.33 11.02 26.66 10 27 C7.7734375 25.70703125 7.7734375 25.70703125 5.375 23.8125 C4.57835937 23.20019531 3.78171875 22.58789062 2.9609375 21.95703125 C0.85521373 19.85550215 0.42647162 18.87580189 0 16 C-0.33 15.01 -0.66 14.02 -1 13 C-1.09357692 11.14772748 -1.12993909 9.2921282 -1.125 7.4375 C-1.12757813 6.46683594 -1.13015625 5.49617188 -1.1328125 4.49609375 C-1 2 -1 2 0 0 Z M-7 15 C-6.01 16.485 -6.01 16.485 -5 18 C-4.34 18.66 -3.68 19.32 -3 20 C-2.01 19.67 -1.02 19.34 0 19 C0 22 0 25 0 28 C-5.73401535 22.56777494 -5.73401535 22.56777494 -7 19 C-7 17.68 -7 16.36 -7 15 Z " fill="#0AD224" transform="translate(272,266)"/>
<path d="M0 0 C0.33 0 0.66 0 1 0 C3.18261826 14.20407041 3.18261826 14.20407041 0.3203125 18.55078125 C-1.70787501 20.23612567 -3.76121964 21.61585778 -6 23 C-6.33 23.66 -6.66 24.32 -7 25 C-13.35294118 29 -13.35294118 29 -17 29 C-15.08435828 27.39459585 -13.16753088 25.790645 -11.25 24.1875 C-10.71117188 23.73568359 -10.17234375 23.28386719 -9.6171875 22.81835938 C-5.14047276 19.07866475 -5.14047276 19.07866475 -2.65625 17.6875 C0.05765644 14.92238778 -0.32055172 11.48439639 -0.25 7.8125 C-0.22035156 7.06291016 -0.19070312 6.31332031 -0.16015625 5.54101562 C-0.0895921 3.69458693 -0.04251524 1.84728739 0 0 Z " fill="#0CD11D" transform="translate(130,203)"/>
<path d="M0 0 C3.81684226 1.55500981 6.19195732 4.03595495 9 7 C3.73854447 8.63881402 3.73854447 8.63881402 1 9 C-1.0625 7.875 -1.0625 7.875 -2 6 C-1.7181953 3.67511119 -1.04553582 2.09107165 0 0 Z " fill="#00DB3F" transform="translate(273,286)"/>
<path d="M0 0 C2 2 2 2 2.5625 4.3125 C1.8823073 7.56230956 1.13216741 7.94073651 -1.5 9.8125 C-2.65623935 10.55809085 -3.82000522 11.29260517 -5 12 C-5.66 11.67 -6.32 11.34 -7 11 C-6.01 10.34 -5.02 9.68 -4 9 C-3.7525 7.9790625 -3.7525 7.9790625 -3.5 6.9375 C-3.335 6.298125 -3.17 5.65875 -3 5 C-2.01 4.67 -1.02 4.34 0 4 C-0.33 3.34 -0.66 2.68 -1 2 C-4.55780196 2.60990891 -7.6828589 3.5783681 -11 5 C-7.28171337 1.15777048 -5.46023295 -0.40951747 0 0 Z " fill="#0CD124" transform="translate(254,288)"/>
<path d="M0 0 C0.33 0 0.66 0 1 0 C1.33 5.61 1.66 11.22 2 17 C-0.51083114 15.74458443 -0.87125446 14.49936512 -2 12 C-3.98 12.99 -3.98 12.99 -6 14 C-6 13.01 -6 12.02 -6 11 C-5.34 11 -4.68 11 -4 11 C-4 9.68 -4 8.36 -4 7 C-3.34 7 -2.68 7 -2 7 C-2 7.66 -2 8.32 -2 9 C-1.34 9 -0.68 9 0 9 C0 6.03 0 3.06 0 0 Z " fill="#1AD945" transform="translate(139,204)"/>
<path d="M0 0 C0.33 0.66 0.66 1.32 1 2 C1.99 2 2.98 2 4 2 C4 1.34 4 0.68 4 0 C4.66 0 5.32 0 6 0 C6.66 1.98 7.32 3.96 8 6 C6.02 6.66 4.04 7.32 2 8 C-0.1519437 4.77208445 -0.20086443 3.71599191 0 0 Z " fill="#00DB40" transform="translate(266,279)"/>
<path d="M0 0 C0.66 0.33 1.32 0.66 2 1 C1.01 2.485 1.01 2.485 0 4 C-0.99 4 -1.98 4 -3 4 C-3.4640625 5.670625 -3.4640625 5.670625 -3.9375 7.375 C-5 11 -5 11 -6 13 C-6.45375 12.525625 -6.9075 12.05125 -7.375 11.5625 C-8.93258204 9.90972192 -8.93258204 9.90972192 -11 9 C-9.73113036 7.87278564 -8.45982438 6.74831342 -7.1875 5.625 C-6.47980469 4.99851563 -5.77210937 4.37203125 -5.04296875 3.7265625 C-3 2 -3 2 0 0 Z " fill="#06D326" transform="translate(110,234)"/>
<path d="M0 0 C2.475 0.99 2.475 0.99 5 2 C5 2.66 5 3.32 5 4 C4.01 4.495 4.01 4.495 3 5 C2.01 6.485 2.01 6.485 1 8 C0.01 7.34 -0.98 6.68 -2 6 C-1.34 4.02 -0.68 2.04 0 0 Z " fill="#01DC40" transform="translate(129,291)"/>
<path d="M0 0 C1.32 0.66 2.64 1.32 4 2 C2.71475739 2.86380259 1.42157581 3.71580369 0.125 4.5625 C-0.59429687 5.03816406 -1.31359375 5.51382812 -2.0546875 6.00390625 C-2.69664063 6.33261719 -3.33859375 6.66132813 -4 7 C-4.66 6.67 -5.32 6.34 -6 6 C-5.195625 5.38125 -4.39125 4.7625 -3.5625 4.125 C-0.96125481 2.25835959 -0.96125481 2.25835959 0 0 Z " fill="#0BD021" transform="translate(120,268)"/>
</svg>
