<?xml version="1.0" encoding="UTF-8"?>
<svg version="1.1" xmlns="http://www.w3.org/2000/svg" width="360" height="360">
<path d="M0 0 C118.8 0 237.6 0 360 0 C360 118.8 360 237.6 360 360 C241.2 360 122.4 360 0 360 C0 241.2 0 122.4 0 0 Z " fill="#FEFEFE" transform="translate(0,0)"/>
<path d="M0 0 C9.2804137 6.74796183 15.43899434 14.72666409 19.4921875 25.42578125 C19.9253125 26.53953125 20.3584375 27.65328125 20.8046875 28.80078125 C23.32285613 42.07839765 20.69043811 55.02705522 13.4921875 66.42578125 C5.22541815 77.47542345 -4.9585496 83.74919695 -18.5078125 86.42578125 C-32.95576173 87.74326842 -45.11228323 84.61059775 -56.69921875 75.75 C-66.06564971 67.1900719 -71.87282289 55.49998762 -72.75 42.96484375 C-73.19086876 30.17964973 -70.17049271 20.59356845 -62.5078125 10.42578125 C-61.6415625 9.12640625 -61.6415625 9.12640625 -60.7578125 7.80078125 C-45.07658936 -8.75162096 -19.26654281 -12.09410709 0 0 Z " fill="#FBFDFC" transform="translate(206.5078125,73.57421875)"/>
<path d="M0 0 C8.12858906 5.07506691 12.03480366 13.10441099 15 22 C15.90068305 32.40981753 13.91883459 41.36418339 7.7890625 49.89453125 C1.37486184 57.44312111 -5.95470504 61.19251634 -15.7265625 62.3125 C-24.43235708 62.70487384 -31.49663516 60.32283564 -38.25 54.8125 C-45.73066031 47.74070169 -49.94877579 40.06091454 -50.3125 29.6875 C-50.06835345 19.20356007 -46.58520158 11.78610811 -39.37109375 4.3125 C-28.29095069 -5.97069542 -13.30671231 -7.06457785 0 0 Z " fill="#04D836" transform="translate(286,97)"/>
<path d="M0 0 C7.26655577 5.12648859 12.8592183 12.76915405 14.66015625 21.59375 C15.59592308 32.29551975 13.42296242 42.08984197 6.66015625 50.59375 C-0.28201043 57.92630747 -8.45866207 61.62367252 -18.52734375 61.90625 C-27.43976758 61.78645936 -34.17569356 58.53226258 -40.58984375 52.44140625 C-47.17772288 45.48589994 -50.40264759 38.37342102 -50.77734375 28.71875 C-50.43741691 18.41635178 -46.90234668 11.14903357 -39.78515625 3.76171875 C-28.65712712 -6.10418567 -12.85277458 -7.72453898 0 0 Z " fill="#04D835" transform="translate(111.33984375,97.40625)"/>
<path d="M0 0 C9.2804137 6.74796183 15.43899434 14.72666409 19.4921875 25.42578125 C19.9253125 26.53953125 20.3584375 27.65328125 20.8046875 28.80078125 C23.32285613 42.07839765 20.69043811 55.02705522 13.4921875 66.42578125 C5.22541815 77.47542345 -4.9585496 83.74919695 -18.5078125 86.42578125 C-32.95576173 87.74326842 -45.11228323 84.61059775 -56.69921875 75.75 C-66.06564971 67.1900719 -71.87282289 55.49998762 -72.75 42.96484375 C-73.19086876 30.17964973 -70.17049271 20.59356845 -62.5078125 10.42578125 C-61.6415625 9.12640625 -61.6415625 9.12640625 -60.7578125 7.80078125 C-45.07658936 -8.75162096 -19.26654281 -12.09410709 0 0 Z M-54.5078125 16.42578125 C-61.55897757 26.100283 -63.80043538 35.36462284 -62.11328125 47.19140625 C-59.96708274 56.88391566 -54.51182597 64.53768092 -46.5703125 70.42578125 C-37.84668783 75.95427895 -29.83197226 77.52095434 -19.5078125 76.42578125 C-8.63753852 73.91725648 0.14243464 67.56362357 6.4921875 58.42578125 C11.46217055 48.56111792 12.88888182 38.62696962 9.7421875 27.859375 C6.0877888 19.10404479 0.50566375 12.46027005 -7.5078125 7.42578125 C-8.13945312 7.01070312 -8.77109375 6.595625 -9.421875 6.16796875 C-24.48068411 -2.14635443 -43.81476833 4.27170728 -54.5078125 16.42578125 Z " fill="#03D836" transform="translate(206.5078125,73.57421875)"/>
<path d="M0 0 C18.39410167 -0.74823464 36.41142271 5.64022128 50.4921875 17.21875 C51.19730469 17.76144531 51.90242188 18.30414063 52.62890625 18.86328125 C65.94407605 29.61482307 74.79374063 46.43295678 77.4921875 63.21875 C77.91899871 68.74538349 77.88421846 74.28288075 77.82836914 79.82226562 C77.8044033 82.37401014 77.80787624 84.92473123 77.81445312 87.4765625 C77.80888673 89.10156875 77.80178345 90.72657063 77.79296875 92.3515625 C77.79388016 93.11292511 77.79479156 93.87428772 77.79573059 94.65872192 C77.72336155 99.98757595 77.72336155 99.98757595 75.4921875 102.21875 C72.9921875 102.46875 72.9921875 102.46875 70.4921875 102.21875 C67.6972526 99.4238151 68.22380885 97.64654184 68.18359375 93.734375 C68.1583707 92.39192392 68.1329739 91.0494761 68.10742188 89.70703125 C68.07906867 87.60792486 68.05505386 85.50887826 68.03588867 83.40966797 C67.80586391 62.30300019 62.76866058 44.27307097 48.2421875 28.40625 C40.45124326 21.15634356 30.66226137 16.13325081 20.4921875 13.21875 C19.73035156 12.99445313 18.96851563 12.77015625 18.18359375 12.5390625 C6.25190256 9.60141172 -6.93500621 10.26510802 -18.5078125 14.21875 C-19.49136719 14.54746094 -20.47492188 14.87617188 -21.48828125 15.21484375 C-36.77256814 20.92915023 -49.43790896 32.49977004 -56.5078125 47.21875 C-60.29191335 56.96536652 -62.5525925 66.10226347 -62.75390625 76.61328125 C-62.78679166 77.99414823 -62.82000404 79.37500745 -62.85351562 80.75585938 C-62.90118575 82.90644889 -62.94577745 85.05699566 -62.98461914 87.20776367 C-63.02418732 89.30156012 -63.07569761 91.39479334 -63.12890625 93.48828125 C-63.1539624 94.73198486 -63.17901855 95.97568848 -63.20483398 97.25708008 C-63.5078125 100.21875 -63.5078125 100.21875 -65.5078125 102.21875 C-68.0078125 102.46875 -68.0078125 102.46875 -70.5078125 102.21875 C-73.40989881 99.31666369 -72.83228445 96.31175869 -72.84375 92.421875 C-72.8504068 91.63665466 -72.8570636 90.85143433 -72.86392212 90.04241943 C-72.87406764 88.37123963 -72.87873855 86.70001916 -72.87841797 85.02880859 C-72.8827249 82.51978215 -72.91883263 80.01261316 -72.95703125 77.50390625 C-73.05122039 64.33444742 -70.93752733 52.81298695 -64.8203125 40.96875 C-64.48 40.30037109 -64.1396875 39.63199219 -63.7890625 38.94335938 C-60.55063286 32.8492236 -56.41916921 28.05159479 -51.5078125 23.21875 C-50.89550781 22.52523437 -50.28320312 21.83171875 -49.65234375 21.1171875 C-37.10737707 7.26155266 -18.00651529 1.57066177 0 0 Z " fill="#04D732" transform="translate(178.5078125,173.78125)"/>
<path d="M0 0 C6.73053994 3.19500334 10.80972678 6.97451238 13.58203125 14.05078125 C15.44186916 20.92816746 14.31989711 27.38065706 11.44921875 33.796875 C8.1852778 39.37157061 3.23836456 42.63264302 -2.84375 44.5859375 C-9.13100682 46.0489338 -13.97348949 45.24864732 -19.6953125 42.45703125 C-24.46052836 39.39977806 -27.75480032 35.25028877 -30.3125 30.24609375 C-31.73113227 22.20717758 -31.60347427 15.55710479 -27.578125 8.29296875 C-20.93405366 -0.42356521 -10.31720098 -3.3783226 0 0 Z " fill="#FCFEFD" transform="translate(276.875,103.94140625)"/>
<path d="M0 0 C6.18428185 3.62222222 10.3923465 8.49514628 12.625 15.3125 C13.78959993 22.50008138 12.29763122 29.05822507 8.625 35.3125 C4.45158394 40.21936295 -1.06268501 43.75104127 -7.53515625 44.59375 C-14.13085216 44.86527093 -19.60000371 43.81736391 -24.58203125 39.3203125 C-30.86836793 32.59223325 -32.90375895 27.24161704 -32.6796875 18.0546875 C-31.8623349 10.69851406 -27.93979837 6.43151253 -22.47265625 1.7578125 C-15.83997577 -2.81219081 -7.31256819 -3.42733272 0 0 Z " fill="#FCFEFD" transform="translate(103.375,104.6875)"/>
<path d="M0 0 C2.15290906 -0.00964349 4.30483653 -0.04067385 6.45751953 -0.07226562 C16.62891739 -0.15107435 25.84980798 0.92982163 34.99267578 5.74023438 C35.77513672 6.14242187 36.55759766 6.54460937 37.36376953 6.95898438 C39.59619082 8.26421465 41.61471912 9.5265277 43.55517578 11.24023438 C43.93017578 14.30273437 43.93017578 14.30273437 43.55517578 17.24023438 C41.55517578 19.24023438 41.55517578 19.24023438 38.93017578 19.67773438 C35.0376733 19.17315072 33.082729 17.91280661 29.97314453 15.62695312 C21.844172 10.96494141 13.58876172 10.71060194 4.4362793 10.73925781 C2.25645864 10.74022824 0.08019201 10.69854689 -2.09912109 10.65429688 C-15.17504073 10.54243285 -25.85773232 14.07800396 -35.44482422 23.24023438 C-44.42184239 32.81572042 -49.01580978 44.29580456 -49.67529297 57.31835938 C-49.71170898 58.03677002 -49.748125 58.75518066 -49.78564453 59.49536133 C-49.84911853 60.92817471 -49.89714833 62.36177232 -49.92822266 63.7956543 C-50.03824999 66.72673963 -50.12318826 68.77605521 -51.81982422 71.22460938 C-53.44482422 72.24023438 -53.44482422 72.24023438 -56.00732422 72.05273438 C-58.44482422 71.24023438 -58.44482422 71.24023438 -60.44482422 69.24023438 C-62.24738557 52.61894195 -58.4856554 34.98588991 -48.19628906 21.61816406 C-35.08544525 5.535657 -20.40278299 0.05515508 0 0 Z " fill="#03D834" transform="translate(90.44482421875,166.759765625)"/>
<path d="M0 0 C2.00593037 0.00850795 4.00899723 -0.02035702 6.01464844 -0.05200195 C22.31233168 -0.04396562 35.43098526 4.87871357 47.28417969 15.99682617 C53.85616855 22.83038673 58.23148596 30.64474623 61.63964844 39.44604492 C61.960625 40.26202148 62.28160156 41.07799805 62.61230469 41.91870117 C64.65077644 48.05307896 64.9442636 54.03561092 65.01464844 60.44604492 C65.02858643 61.28393555 65.04252441 62.12182617 65.05688477 62.98510742 C65.05068115 63.7765918 65.04447754 64.56807617 65.03808594 65.38354492 C65.03470215 66.09381836 65.03131836 66.8040918 65.02783203 67.53588867 C64.52393996 70.01541798 63.6446787 70.94092837 61.63964844 72.44604492 C57.21859581 72.02499229 57.21859581 72.02499229 55.63964844 70.44604492 C55.46102104 69.10120648 55.34012487 67.74858245 55.24511719 66.39526367 C53.94418669 49.87551127 51.0369558 34.06308962 38.45214844 22.07104492 C28.01280511 13.47921425 18.29968243 11.22818527 5.1796875 11.15087891 C3.17391936 11.13383612 1.16843673 11.08997688 -0.83691406 11.0456543 C-10.47505541 10.98338002 -19.73138463 11.96584419 -27.79785156 17.69604492 C-30.64865216 19.64293313 -31.98242868 20.00903207 -35.36035156 19.44604492 C-37.36035156 17.44604492 -37.36035156 17.44604492 -37.73535156 14.25854492 C-37.21376883 11.28428148 -36.38736769 10.46791725 -34.00097656 8.53588867 C-23.0102261 1.83039195 -12.78373747 -0.08234542 0 0 Z " fill="#03D834" transform="translate(267.3603515625,166.553955078125)"/>
<path d="M0 0 C2 3 2 3 1.94604492 4.83496094 C0.55816357 8.0111498 -1.72792444 10.215779 -4.13671875 12.640625 C-4.65377884 13.16767029 -5.17083893 13.69471558 -5.7035675 14.23773193 C-6.79831859 15.34764743 -7.89715525 16.45354599 -8.99975586 17.55566406 C-10.68019816 19.24266964 -12.33519584 20.95217432 -13.99023438 22.6640625 C-15.05841933 23.74104978 -16.12803541 24.8166199 -17.19921875 25.890625 C-17.69008469 26.40304749 -18.18095062 26.91546997 -18.68669128 27.44342041 C-21.13441086 29.84375877 -22.69831754 30.94885895 -26.109375 31.52709961 C-29.47610741 30.91318278 -30.66281313 30.08625728 -33.05078125 27.67578125 C-33.74880859 26.97646484 -34.44683594 26.27714844 -35.16601562 25.55664062 C-35.87435547 24.81607422 -36.58269531 24.07550781 -37.3125 23.3125 C-38.04017578 22.59126953 -38.76785156 21.87003906 -39.51757812 21.12695312 C-45.67560381 14.84266783 -45.67560381 14.84266783 -46 10 C-45.34 9.01 -44.68 8.02 -44 7 C-41.2421875 6.46875 -41.2421875 6.46875 -38 7 C-35.76809329 8.79484926 -34.01779083 10.40661449 -32.125 12.5 C-31.62742188 13.02464844 -31.12984375 13.54929687 -30.6171875 14.08984375 C-29.39736085 15.38004502 -28.19669751 16.68831732 -27 18 C-23.75904935 16.58079247 -21.64164495 14.86691752 -19.1796875 12.33984375 C-18.47972656 11.62892578 -17.77976563 10.91800781 -17.05859375 10.18554688 C-16.33800781 9.44369141 -15.61742187 8.70183594 -14.875 7.9375 C-13.43712439 6.46526807 -11.99712292 4.99510844 -10.5546875 3.52734375 C-9.92030762 2.87499756 -9.28592773 2.22265137 -8.63232422 1.55053711 C-5.61616675 -1.3144967 -3.90013081 -1.17003924 0 0 Z " fill="#01D732" transform="translate(202,103)"/>
<path d="M0 0 C0.99 0 1.98 0 3 0 C4.17614886 7.79418048 3.98451083 15.44875117 3.703125 23.29589844 C3.62419916 25.52259367 3.55754788 27.74943185 3.4921875 29.9765625 C3.4460308 31.39064863 3.39918177 32.80471237 3.3515625 34.21875 C3.28702881 36.1359082 3.28702881 36.1359082 3.22119141 38.09179688 C3 41 3 41 2 42 C-0.5 42.125 -0.5 42.125 -3 42 C-5.70936524 39.29063476 -4.18567333 31.14604124 -4.1875 27.5 C-4.19974609 26.24445313 -4.21199219 24.98890625 -4.22460938 23.6953125 C-4.23792443 15.22693744 -4.01097979 7.58623519 0 0 Z " fill="#03DB3F" transform="translate(252,232)"/>
<path d="M0 0 C-0.165 0.928125 -0.33 1.85625 -0.5 2.8125 C-1.07748388 5.95621353 -1.07748388 5.95621353 -1 9 C-2.63064764 10.05771739 -4.30280873 11.05273046 -6 12 C-6.495 12.556875 -6.99 13.11375 -7.5 13.6875 C-9 15 -9 15 -11.5625 15.3125 C-14 15 -14 15 -16 13 C-16.50263435 8.72760801 -16.50263435 8.72760801 -15 6 C-5.08973789 -1.6965793 -5.08973789 -1.6965793 0 0 Z " fill="#05D835" transform="translate(246,171)"/>
<path d="M0 0 C0.99 1.98 1.98 3.96 3 6 C2.28972656 6.39832031 1.57945312 6.79664063 0.84765625 7.20703125 C-0.07144531 7.73683594 -0.99054688 8.26664063 -1.9375 8.8125 C-2.85402344 9.33457031 -3.77054688 9.85664063 -4.71484375 10.39453125 C-7.284062 11.86140987 -7.284062 11.86140987 -8 15 C-9.65 15.33 -11.3 15.66 -13 16 C-14.1875 13.8125 -14.1875 13.8125 -15 11 C-13.9375 8.3125 -13.9375 8.3125 -12 6 C-10.35008418 5.29289322 -8.68437744 4.62056011 -7 4 C-6.67 3.01 -6.34 2.02 -6 1 C-3.90006779 0.25486277 -2.22568901 0 0 0 Z " fill="#02DB3E" transform="translate(148,184)"/>
<path d="M0 0 C4.66932271 1.39914103 6.75741503 3.65659987 9.75 7.4375 C10.52859375 8.40558594 11.3071875 9.37367188 12.109375 10.37109375 C14 13 14 13 15 16 C9.91308425 16.16148939 7.2957547 16.14205406 3.3984375 12.70703125 C1.17049331 10.19970993 -0.95776565 7.66021543 -3 5 C-2.67 4.01 -2.34 3.02 -2 2 C-1.34 2 -0.68 2 0 2 C0 1.34 0 0.68 0 0 Z " fill="#00DB3F" transform="translate(229,195)"/>
<path d="M0 0 C1 3 1 3 0.0625 6.25 C-1.00871972 10.03077549 -1.15936432 13.09557423 -1 17 C-1.66 17 -2.32 17 -3 17 C-3.0246826 21.94791294 -3.04285166 26.8957902 -3.05493164 31.84375 C-3.05996653 33.52767562 -3.06679481 35.21159686 -3.07543945 36.89550781 C-3.08754196 39.31316203 -3.09323668 41.73075856 -3.09765625 44.1484375 C-3.10281754 44.9036972 -3.10797882 45.65895691 -3.11329651 46.43710327 C-3.19320188 50.34648109 -3.19320188 50.34648109 -2 54 C-2.99 53.67 -3.98 53.34 -5 53 C-5.10024386 47.98703589 -5.17210365 42.97467815 -5.21972656 37.9609375 C-5.23961663 36.26194066 -5.2667388 34.56301016 -5.30175781 32.86425781 C-5.53244363 21.37067636 -5.27539796 10.55079591 0 0 Z " fill="#06D112" transform="translate(111,221)"/>
<path d="M0 0 C0.625 1.8125 0.625 1.8125 1 4 C0.01 5.485 0.01 5.485 -1 7 C-1.66 7 -2.32 7 -3 7 C-4.95166306 14.30721089 -5.24317822 21.0218202 -5.125 28.5625 C-5.11146484 30.21862305 -5.11146484 30.21862305 -5.09765625 31.90820312 C-5.07430128 34.6057017 -5.04155054 37.30273077 -5 40 C-9.10672922 35.89327078 -8.29693154 29.45554 -8.32128906 23.95141602 C-8.1620162 15.07410614 -5.44681415 7.00304676 0 0 Z " fill="#0AD21F" transform="translate(142,87)"/>
<path d="M0 0 C3.375 0.3125 3.375 0.3125 7 1 C7.66 1.99 8.32 2.98 9 4 C8.01 4.33 7.02 4.66 6 5 C6 5.66 6 6.32 6 7 C5.01 7.33 4.02 7.66 3 8 C0.8125 6.5625 0.8125 6.5625 -1 5 C-0.67 3.35 -0.34 1.7 0 0 Z " fill="#00DB40" transform="translate(218,188)"/>
<path d="M0 0 C0.33 0 0.66 0 1 0 C1.08120751 2.89640118 1.14059421 5.79050912 1.1875 8.6875 C1.21263672 9.50412109 1.23777344 10.32074219 1.26367188 11.16210938 C1.3213146 15.90802701 1.20816603 19.20853106 -2 23 C-2.99 23.33 -3.98 23.66 -5 24 C-4.80664062 23.44054687 -4.61328125 22.88109375 -4.4140625 22.3046875 C-2.03290007 14.97259328 -0.93553719 7.63838598 0 0 Z " fill="#04D01C" transform="translate(218,108)"/>
<path d="M0 0 C0.33 0.66 0.66 1.32 1 2 C0.34 2 -0.32 2 -1 2 C-1.66 3.32 -2.32 4.64 -3 6 C-3.66 6 -4.32 6 -5 6 C-6.35377716 7.07497379 -7.66054597 8.20980917 -8.9375 9.375 C-11.24943507 11.47518775 -13.39014527 13.26009684 -16 15 C-12.77885964 7.83492681 -6.83367441 3.48656858 0 0 Z " fill="#09D11F" transform="translate(60,173)"/>
<path d="M0 0 C-1.32 1.32 -2.64 2.64 -4 4 C-3.34 4.33 -2.68 4.66 -2 5 C-2.33 5.66 -2.66 6.32 -3 7 C-5.97 6.505 -5.97 6.505 -9 6 C-6 0 -6 0 -4.0625 -0.6875 C-2 -1 -2 -1 0 0 Z " fill="#04DC41" transform="translate(107,96)"/>
<path d="M0 0 C0.66 0.33 1.32 0.66 2 1 C-1.49359465 4.59634744 -5.11098131 7.83451967 -9 11 C-9 8 -9 8 -7.5390625 6.2109375 C-6.90742188 5.60507813 -6.27578125 4.99921875 -5.625 4.375 C-4.68527344 3.45847656 -4.68527344 3.45847656 -3.7265625 2.5234375 C-2 1 -2 1 0 0 Z " fill="#04CF1D" transform="translate(252,97)"/>
<path d="M0 0 C1.1446875 0.495 1.1446875 0.495 2.3125 1 C4.99069135 2.17436686 4.99069135 2.17436686 8 2 C8 2.66 8 3.32 8 4 C5.6875 4.625 5.6875 4.625 3 5 C2.01 4.34 1.02 3.68 0 3 C0 2.01 0 1.02 0 0 Z " fill="#1FD131" transform="translate(323,234)"/>
</svg>
