<?xml version="1.0" encoding="UTF-8"?>
<svg version="1.1" xmlns="http://www.w3.org/2000/svg" width="371" height="371">
<path d="M0 0 C122.43 0 244.86 0 371 0 C371 122.43 371 244.86 371 371 C248.57 371 126.14 371 0 371 C0 248.57 0 126.14 0 0 Z " fill="#FEFEFE" transform="translate(0,0)"/>
<path d="M0 0 C1.02416016 -0.00386719 2.04832031 -0.00773437 3.10351562 -0.01171875 C9.13042942 -0.00401662 14.96126836 0.34143581 20.9375 1.125 C20.9375 1.785 20.9375 2.445 20.9375 3.125 C21.56914062 3.15078125 22.20078125 3.1765625 22.8515625 3.203125 C45.07144476 4.61187834 67.5189722 16.39254997 83.9375 31.125 C85.39542969 32.38763672 85.39542969 32.38763672 86.8828125 33.67578125 C94.99261522 40.801496 102.73365033 48.56029188 107.9375 58.125 C107.9375 58.785 107.9375 59.445 107.9375 60.125 C108.5975 60.125 109.2575 60.125 109.9375 60.125 C111.11157021 62.39227333 112.27689739 64.66334624 113.4375 66.9375 C113.93830078 67.90139648 113.93830078 67.90139648 114.44921875 68.88476562 C115.93989084 71.82047699 116.9375 73.78626517 116.9375 77.125 C117.5975 77.125 118.2575 77.125 118.9375 77.125 C120.24752413 80.84796294 121.53191873 84.57931759 122.8125 88.3125 C123.35970703 89.86614258 123.35970703 89.86614258 123.91796875 91.45117188 C128.00790237 103.46070423 129.30685488 115.04084292 129.25 127.6875 C129.24806641 129.49492676 129.24806641 129.49492676 129.24609375 131.33886719 C129.13507088 141.79999675 127.92279823 151.86762584 125.9375 162.125 C125.2775 162.125 124.6175 162.125 123.9375 162.125 C123.875625 163.135625 123.81375 164.14625 123.75 165.1875 C122.92785148 172.07610802 120.23398319 178.61688527 117.9375 185.125 C117.2775 185.125 116.6175 185.125 115.9375 185.125 C115.64875 186.300625 115.36 187.47625 115.0625 188.6875 C111.43557353 199.53406311 103.43959456 209.09907653 95.65234375 217.26953125 C93.87287035 219.0220546 93.87287035 219.0220546 92.9375 221.125 C92.2775 221.125 91.6175 221.125 90.9375 221.125 C90.6075 222.115 90.2775 223.105 89.9375 224.125 C87.609375 226.31640625 87.609375 226.31640625 84.6875 228.6875 C83.73359375 229.47253906 82.7796875 230.25757813 81.796875 231.06640625 C79.19446635 232.93999827 76.95788092 234.10534586 73.9375 235.125 C73.9375 235.785 73.9375 236.445 73.9375 237.125 C70.79878073 238.90866152 67.65034371 240.67446361 64.5 242.4375 C63.62150391 242.93701172 62.74300781 243.43652344 61.83789062 243.95117188 C48.96300704 251.125 48.96300704 251.125 41.9375 251.125 C41.9375 251.785 41.9375 252.445 41.9375 253.125 C34.16768558 255.480511 26.56071801 256.90362052 18.5 257.8125 C17.45779297 257.94205078 16.41558594 258.07160156 15.34179688 258.20507812 C-4.07135914 260.47977527 -22.2182963 257.66524089 -41.0625 253.125 C-41.0625 252.465 -41.0625 251.805 -41.0625 251.125 C-41.88041016 250.97804688 -41.88041016 250.97804688 -42.71484375 250.828125 C-48.58059047 249.66500257 -53.69368344 247.73960097 -59.0625 245.125 C-59.0625 244.465 -59.0625 243.805 -59.0625 243.125 C-59.62453125 243.01285156 -60.1865625 242.90070313 -60.765625 242.78515625 C-63.37763108 242.03442661 -65.45721322 240.91332624 -67.8125 239.5625 C-68.61171875 239.10746094 -69.4109375 238.65242187 -70.234375 238.18359375 C-70.83765625 237.83425781 -71.4409375 237.48492187 -72.0625 237.125 C-72.0625 236.465 -72.0625 235.805 -72.0625 235.125 C-72.78050781 234.87621094 -73.49851563 234.62742187 -74.23828125 234.37109375 C-85.15166909 229.55591986 -95.06598401 218.18582127 -101.0625 208.125 C-101.53945312 207.64933594 -102.01640625 207.17367187 -102.5078125 206.68359375 C-109.05125001 200.12371544 -117.0625 186.41136681 -117.0625 177.125 C-117.7225 177.125 -118.3825 177.125 -119.0625 177.125 C-119.73536212 174.70990559 -120.40096012 172.29319644 -121.0625 169.875 C-121.34867187 168.85212891 -121.34867187 168.85212891 -121.640625 167.80859375 C-122.56207044 164.41899088 -123.0625 161.66721024 -123.0625 158.125 C-123.7225 158.125 -124.3825 158.125 -125.0625 158.125 C-128.55831091 139.77199273 -129.3659009 119.1357654 -124.0625 101.125 C-123.63145017 99.47793233 -123.20613055 97.82935914 -122.78515625 96.1796875 C-119.58632844 83.69648532 -119.58632844 83.69648532 -118.0625 79.125 C-117.4025 79.125 -116.7425 79.125 -116.0625 79.125 C-115.88074219 78.55652344 -115.69898437 77.98804688 -115.51171875 77.40234375 C-113.92165366 72.51798997 -112.15790222 67.81470973 -110.0625 63.125 C-109.4025 63.125 -108.7425 63.125 -108.0625 63.125 C-107.78148438 62.3825 -107.50046875 61.64 -107.2109375 60.875 C-98.47935001 39.96670887 -74.21356981 20.76519334 -54.0625 12.125 C-52.40738835 11.73835506 -50.74208868 11.38552014 -49.0625 11.125 C-49.0625 10.465 -49.0625 9.805 -49.0625 9.125 C-46.47960408 8.31108745 -43.89621003 7.49882071 -41.3125 6.6875 C-40.58289063 6.45740234 -39.85328125 6.22730469 -39.1015625 5.99023438 C-38.03808594 5.65668945 -38.03808594 5.65668945 -36.953125 5.31640625 C-36.30375977 5.11217041 -35.65439453 4.90793457 -34.98535156 4.69750977 C-30.52875007 3.37060137 -26.75505266 3.0347586 -22.0625 3.125 C-22.0625 2.465 -22.0625 1.805 -22.0625 1.125 C-14.68876137 0.22867679 -7.42393624 -0.02813873 0 0 Z " fill="#FDFEFD" transform="translate(190.0625,50.875)"/>
<path d="M0 0 C1.02416016 -0.00386719 2.04832031 -0.00773437 3.10351562 -0.01171875 C9.13042942 -0.00401662 14.96126836 0.34143581 20.9375 1.125 C20.9375 1.785 20.9375 2.445 20.9375 3.125 C21.56914062 3.15078125 22.20078125 3.1765625 22.8515625 3.203125 C45.07144476 4.61187834 67.5189722 16.39254997 83.9375 31.125 C85.39542969 32.38763672 85.39542969 32.38763672 86.8828125 33.67578125 C94.99261522 40.801496 102.73365033 48.56029188 107.9375 58.125 C107.9375 58.785 107.9375 59.445 107.9375 60.125 C108.5975 60.125 109.2575 60.125 109.9375 60.125 C111.11157021 62.39227333 112.27689739 64.66334624 113.4375 66.9375 C113.93830078 67.90139648 113.93830078 67.90139648 114.44921875 68.88476562 C115.93989084 71.82047699 116.9375 73.78626517 116.9375 77.125 C117.5975 77.125 118.2575 77.125 118.9375 77.125 C120.24752413 80.84796294 121.53191873 84.57931759 122.8125 88.3125 C123.35970703 89.86614258 123.35970703 89.86614258 123.91796875 91.45117188 C128.00790237 103.46070423 129.30685488 115.04084292 129.25 127.6875 C129.24806641 129.49492676 129.24806641 129.49492676 129.24609375 131.33886719 C129.13507088 141.79999675 127.92279823 151.86762584 125.9375 162.125 C125.2775 162.125 124.6175 162.125 123.9375 162.125 C123.875625 163.135625 123.81375 164.14625 123.75 165.1875 C122.92785148 172.07610802 120.23398319 178.61688527 117.9375 185.125 C117.2775 185.125 116.6175 185.125 115.9375 185.125 C115.64875 186.300625 115.36 187.47625 115.0625 188.6875 C111.43557353 199.53406311 103.43959456 209.09907653 95.65234375 217.26953125 C93.87287035 219.0220546 93.87287035 219.0220546 92.9375 221.125 C92.2775 221.125 91.6175 221.125 90.9375 221.125 C90.6075 222.115 90.2775 223.105 89.9375 224.125 C87.609375 226.31640625 87.609375 226.31640625 84.6875 228.6875 C83.73359375 229.47253906 82.7796875 230.25757813 81.796875 231.06640625 C79.19446635 232.93999827 76.95788092 234.10534586 73.9375 235.125 C73.9375 235.785 73.9375 236.445 73.9375 237.125 C70.79878073 238.90866152 67.65034371 240.67446361 64.5 242.4375 C63.62150391 242.93701172 62.74300781 243.43652344 61.83789062 243.95117188 C48.96300704 251.125 48.96300704 251.125 41.9375 251.125 C41.9375 251.785 41.9375 252.445 41.9375 253.125 C34.16768558 255.480511 26.56071801 256.90362052 18.5 257.8125 C17.45779297 257.94205078 16.41558594 258.07160156 15.34179688 258.20507812 C-4.07135914 260.47977527 -22.2182963 257.66524089 -41.0625 253.125 C-41.0625 252.465 -41.0625 251.805 -41.0625 251.125 C-41.88041016 250.97804688 -41.88041016 250.97804688 -42.71484375 250.828125 C-48.58059047 249.66500257 -53.69368344 247.73960097 -59.0625 245.125 C-59.0625 244.465 -59.0625 243.805 -59.0625 243.125 C-59.62453125 243.01285156 -60.1865625 242.90070313 -60.765625 242.78515625 C-63.37763108 242.03442661 -65.45721322 240.91332624 -67.8125 239.5625 C-68.61171875 239.10746094 -69.4109375 238.65242187 -70.234375 238.18359375 C-70.83765625 237.83425781 -71.4409375 237.48492187 -72.0625 237.125 C-72.0625 236.465 -72.0625 235.805 -72.0625 235.125 C-72.78050781 234.87621094 -73.49851563 234.62742187 -74.23828125 234.37109375 C-85.15166909 229.55591986 -95.06598401 218.18582127 -101.0625 208.125 C-101.53945312 207.64933594 -102.01640625 207.17367187 -102.5078125 206.68359375 C-109.05125001 200.12371544 -117.0625 186.41136681 -117.0625 177.125 C-117.7225 177.125 -118.3825 177.125 -119.0625 177.125 C-119.73536212 174.70990559 -120.40096012 172.29319644 -121.0625 169.875 C-121.34867187 168.85212891 -121.34867187 168.85212891 -121.640625 167.80859375 C-122.56207044 164.41899088 -123.0625 161.66721024 -123.0625 158.125 C-123.7225 158.125 -124.3825 158.125 -125.0625 158.125 C-128.55831091 139.77199273 -129.3659009 119.1357654 -124.0625 101.125 C-123.63145017 99.47793233 -123.20613055 97.82935914 -122.78515625 96.1796875 C-119.58632844 83.69648532 -119.58632844 83.69648532 -118.0625 79.125 C-117.4025 79.125 -116.7425 79.125 -116.0625 79.125 C-115.88074219 78.55652344 -115.69898437 77.98804688 -115.51171875 77.40234375 C-113.92165366 72.51798997 -112.15790222 67.81470973 -110.0625 63.125 C-109.4025 63.125 -108.7425 63.125 -108.0625 63.125 C-107.78148438 62.3825 -107.50046875 61.64 -107.2109375 60.875 C-98.47935001 39.96670887 -74.21356981 20.76519334 -54.0625 12.125 C-52.40738835 11.73835506 -50.74208868 11.38552014 -49.0625 11.125 C-49.0625 10.465 -49.0625 9.805 -49.0625 9.125 C-46.47960408 8.31108745 -43.89621003 7.49882071 -41.3125 6.6875 C-40.58289063 6.45740234 -39.85328125 6.22730469 -39.1015625 5.99023438 C-38.03808594 5.65668945 -38.03808594 5.65668945 -36.953125 5.31640625 C-36.30375977 5.11217041 -35.65439453 4.90793457 -34.98535156 4.69750977 C-30.52875007 3.37060137 -26.75505266 3.0347586 -22.0625 3.125 C-22.0625 2.465 -22.0625 1.805 -22.0625 1.125 C-14.68876137 0.22867679 -7.42393624 -0.02813873 0 0 Z M-24.1875 13.625 C-24.95320313 13.76808594 -25.71890625 13.91117188 -26.5078125 14.05859375 C-28.36089589 14.40604689 -30.21194274 14.76433455 -32.0625 15.125 C-32.0625 15.785 -32.0625 16.445 -32.0625 17.125 C-33.5784375 17.29708984 -33.5784375 17.29708984 -35.125 17.47265625 C-53.33747808 20.49000133 -68.27234861 32.55571465 -81.0625 45.125 C-81.83207031 45.82882813 -82.60164063 46.53265625 -83.39453125 47.2578125 C-85.39560089 49.0806026 -85.39560089 49.0806026 -85.0625 52.125 C-82.84088385 54.2678352 -82.84088385 54.2678352 -80.0625 56.3125 C-79.134375 57.02792969 -78.20625 57.74335937 -77.25 58.48046875 C-76.528125 59.02316406 -75.80625 59.56585938 -75.0625 60.125 C-75.9375 66 -75.9375 66 -77.0625 67.125 C-80.92589495 67.125 -83.03649101 66.95255464 -86.08203125 64.49609375 C-87.8094055 62.75464721 -89.46444183 60.98535344 -91.0625 59.125 C-95.52566356 60.61272119 -97.26119874 64.07877263 -99.5 67.9375 C-99.89179443 68.60241455 -100.28358887 69.2673291 -100.68725586 69.95239258 C-104.75760765 77.04287297 -109.0625 84.82132024 -109.0625 93.125 C-109.7225 93.125 -110.3825 93.125 -111.0625 93.125 C-111.74407937 96.26778784 -112.40493058 99.41460853 -113.0625 102.5625 C-113.25328125 103.44099609 -113.4440625 104.31949219 -113.640625 105.22460938 C-114.82990062 110.97985387 -115.25379428 116.24867891 -115.0625 122.125 C-113.85851562 122.16238281 -112.65453125 122.19976562 -111.4140625 122.23828125 C-109.83850989 122.30392928 -108.26299046 122.37037701 -106.6875 122.4375 C-105.8934375 122.46005859 -105.099375 122.48261719 -104.28125 122.50585938 C-102.20034419 122.60285075 -100.12808668 122.85494825 -98.0625 123.125 C-96.0625 126.125 -96.0625 126.125 -97.0625 133.125 C-103.0025 133.125 -108.9425 133.125 -115.0625 133.125 C-115.59151751 147.05579438 -113.45408224 160.24726401 -108.0625 173.125 C-107.70414063 174.0634375 -107.34578125 175.001875 -106.9765625 175.96875 C-104.69503093 181.78742111 -102.01613799 187.25904157 -98.9375 192.6875 C-98.60073242 193.28344971 -98.26396484 193.87939941 -97.91699219 194.4934082 C-96.2336702 197.38843897 -94.59637541 199.9137609 -92.0625 202.125 C-88.87377797 200.73950724 -86.98702957 199.14812127 -84.6875 196.5625 C-82.238486 194.03448555 -81.19810073 193.16849457 -77.75 192.0625 C-75.0625 192.125 -75.0625 192.125 -73.0625 194.125 C-72.62109375 196.96484375 -72.62109375 196.96484375 -73.0625 200.125 C-75.28515625 202.50390625 -75.28515625 202.50390625 -78.125 204.6875 C-80.9699411 206.75230483 -80.9699411 206.75230483 -83.0625 209.125 C-83.23123472 212.67967814 -82.24088096 213.92071981 -79.91015625 216.58984375 C-73.96759762 221.86563563 -68.01418482 226.24498987 -61.0625 230.125 C-59.62068766 231.05585428 -58.18289194 231.99297198 -56.75 232.9375 C-53.88619555 234.7498874 -51.49699421 235.80301617 -48.0625 236.125 C-48.0625 236.785 -48.0625 237.445 -48.0625 238.125 C-34.39433477 243.11756718 -34.39433477 243.11756718 -20.0625 245.125 C-20.0625 245.785 -20.0625 246.445 -20.0625 247.125 C-13.18877224 247.99000844 -6.3569561 248.23375238 0.5625 248.25 C1.74259644 248.25676758 1.74259644 248.25676758 2.9465332 248.26367188 C19.35618597 248.22262637 34.46459028 243.08609063 49.9375 238.125 C49.9375 237.465 49.9375 236.805 49.9375 236.125 C50.865625 235.939375 51.79375 235.75375 52.75 235.5625 C67.48211278 231.35758522 83.71900959 216.5772582 91.9375 204.125 C92.82501953 203.31095703 92.82501953 203.31095703 93.73046875 202.48046875 C114.82094645 179.97151644 117.84116938 147.01174476 117.13427734 117.85693359 C116.57774353 107.30212476 113.89085413 97.22227829 110.9375 87.125 C110.2775 87.125 109.6175 87.125 108.9375 87.125 C108.83566406 86.27292969 108.73382813 85.42085938 108.62890625 84.54296875 C104.55047234 64.3812192 85.78942846 45.9656173 69.9375 34.125 C69.23625 33.59648438 68.535 33.06796875 67.8125 32.5234375 C58.94636281 26.24325699 46.00221044 18.125 34.9375 18.125 C34.9375 17.465 34.9375 16.805 34.9375 16.125 C25.21268586 13.47731944 15.96807937 12.49841053 5.9375 12.125 C5.92291748 12.78097168 5.90833496 13.43694336 5.89331055 14.11279297 C5.81898586 17.07580031 5.72227631 20.03766117 5.625 23 C5.60244141 24.03253906 5.57988281 25.06507812 5.55664062 26.12890625 C5.5034668 27.60810547 5.5034668 27.60810547 5.44921875 29.1171875 C5.42303467 30.02839355 5.39685059 30.93959961 5.36987305 31.87841797 C5.22718994 32.61979004 5.08450684 33.36116211 4.9375 34.125 C1.9375 36.125 1.9375 36.125 -0.6875 35.8125 C-3.0625 35.125 -3.0625 35.125 -4.0625 34.125 C-4.21964654 32.49243242 -4.31335414 30.85364662 -4.37890625 29.21484375 C-4.42080078 28.22548828 -4.46269531 27.23613281 -4.50585938 26.21679688 C-4.54517578 25.17587891 -4.58449219 24.13496094 -4.625 23.0625 C-4.66818359 22.01771484 -4.71136719 20.97292969 -4.75585938 19.89648438 C-4.86231225 17.30613116 -4.9643276 14.71567814 -5.0625 12.125 C-11.63449049 11.93934084 -17.74072004 12.35621884 -24.1875 13.625 Z " fill="#09D93C" transform="translate(190.0625,50.875)"/>
<path d="M0 0 C0.99 0.99 0.99 0.99 2 2 C1.86558424 8.45195643 -0.95722698 13.41971148 -4 19 C-4.66 19 -5.32 19 -6 19 C-6.37125 20.2375 -6.37125 20.2375 -6.75 21.5 C-10.60869565 32.30434783 -10.60869565 32.30434783 -14 34 C-15.10524021 36.1560774 -16.13700139 38.35024223 -17.125 40.5625 C-17.66382813 41.76003906 -18.20265625 42.95757812 -18.7578125 44.19140625 C-19.16773438 45.11824219 -19.57765625 46.04507813 -20 47 C-20.66 47 -21.32 47 -22 47 C-22.27585937 47.72445312 -22.55171875 48.44890625 -22.8359375 49.1953125 C-23.94978013 51.87900044 -25.21073646 54.33880672 -26.625 56.875 C-29.24990067 61.62451086 -31.82591968 66.39704572 -34.375 71.1875 C-34.73287598 71.85958496 -35.09075195 72.53166992 -35.45947266 73.22412109 C-36.30676516 74.81584124 -37.15345018 76.40788473 -38 78 C-38.66 78 -39.32 78 -40 78 C-40.19335938 78.60328125 -40.38671875 79.2065625 -40.5859375 79.828125 C-40.84632813 80.62734375 -41.10671875 81.4265625 -41.375 82.25 C-41.75785156 83.43335938 -41.75785156 83.43335938 -42.1484375 84.640625 C-44.57165003 91.3544799 -48.75725204 95.74874598 -55.10546875 99.1171875 C-62.22782548 101.84158625 -69.81353775 101.72458001 -77.25 100.4375 C-83.5739067 97.1318215 -88.54701396 92.21537486 -92 86 C-94.07930373 79.03797503 -94.69091357 69.14877721 -91.90625 62.31640625 C-90.41447867 60.28109057 -88.88766756 58.67098166 -87 57 C-86.44699219 56.45214844 -85.89398438 55.90429688 -85.32421875 55.33984375 C-81.9051835 52.14088433 -78.40821242 50.08644716 -74.1796875 48.13671875 C-70.67279952 46.30785781 -67.56844733 43.93432775 -64.39453125 41.5859375 C-62 40 -62 40 -59.26171875 38.9765625 C-58.51535156 38.65429688 -57.76898438 38.33203125 -57 38 C-56.67 37.01 -56.34 36.02 -56 35 C-54.0234375 33.5625 -54.0234375 33.5625 -51.375 32 C-46.70530222 29.1295801 -42.2690674 26.07934821 -37.875 22.8125 C-30.31121718 17.1999028 -22.6379993 11.75225569 -14.91674805 6.35864258 C-13.62022739 5.43963386 -12.33537291 4.5039784 -11.06176758 3.5534668 C-7.16267675 0.65724861 -4.94237107 -0.80457204 0 0 Z " fill="#07D93B" transform="translate(256,113)"/>
<path d="M0 0 C5.33221729 -0.64961023 10.04018097 -1.18751746 14.765625 1.67578125 C20.61095773 6.83287319 20.61095773 6.83287319 22 11 C22.06740865 12.56118428 22.08514456 14.1250252 22.0625 15.6875 C22.05347656 16.49574219 22.04445312 17.30398437 22.03515625 18.13671875 C22.02355469 18.75160156 22.01195312 19.36648437 22 20 C21.34 20 20.68 20 20 20 C19.7525 20.7425 19.505 21.485 19.25 22.25 C17.88708637 25.24840999 16.49904822 26.87959545 14 29 C8.82001432 30.72666189 3.20250122 30.90972877 -1.875 28.8125 C-6.06283299 25.2405248 -8.15914607 22.64043266 -8.9375 17.125 C-9.24629469 12.19163714 -8.51424593 9.24820863 -6 5 C-2.80645161 2 -2.80645161 2 0 2 C0 1.34 0 0.68 0 0 Z " fill="#F7FDF8" transform="translate(182,173)"/>
<path d="M0 0 C-1.49355981 4.03786522 -3.41234796 7.64806979 -5.5625 11.375 C-5.90676025 11.97352783 -6.25102051 12.57205566 -6.60571289 13.1887207 C-9.69958446 18.5425119 -12.88641088 23.84074048 -16.11743164 29.11279297 C-17.70717384 31.72782163 -19.02829116 34.08487348 -20 37 C-23.6000197 35.66665937 -25.30156184 33.49605808 -27.62890625 30.5234375 C-29.07135309 28.92071879 -30.48988124 27.89074492 -32.3125 26.75 C-33.6428125 25.88375 -33.6428125 25.88375 -35 25 C-35 24.34 -35 23.68 -35 23 C-33.16600706 21.82347623 -31.32487126 20.65716873 -29.45703125 19.53515625 C-24.79088617 16.61974287 -20.43215371 13.25547574 -16 10 C-13.48511453 8.15834863 -10.96333509 6.32659812 -8.4375 4.5 C-7.8295459 4.05438721 -7.2215918 3.60877441 -6.59521484 3.1496582 C-2.22787021 0 -2.22787021 0 0 0 Z " fill="#EEFBF1" transform="translate(234,139)"/>
<path d="M0 0 C1.76150391 -0.02126953 1.76150391 -0.02126953 3.55859375 -0.04296875 C6.5625 0.1875 6.5625 0.1875 8.5625 2.1875 C8.1875 4.8125 8.1875 4.8125 7.5625 7.1875 C5.43756859 7.21443575 3.31254088 7.23386628 1.1875 7.25 C0.00414063 7.26160156 -1.17921875 7.27320313 -2.3984375 7.28515625 C-5.4375 7.1875 -5.4375 7.1875 -7.4375 6.1875 C-7.480221 4.52138095 -7.47813832 2.85367115 -7.4375 1.1875 C-5.56506019 -0.68493981 -2.50090482 0.01369608 0 0 Z " fill="#00DB41" transform="translate(84.4375,174.8125)"/>
<path d="M0 0 C1.18613892 0.07069702 1.18613892 0.07069702 2.39624023 0.14282227 C3.67724609 0.21533203 3.67724609 0.21533203 4.98413086 0.28930664 C5.88196289 0.34538086 6.77979492 0.40145508 7.70483398 0.45922852 C8.6065332 0.51143555 9.50823242 0.56364258 10.43725586 0.61743164 C12.67259948 0.74753101 14.90754288 0.88250788 17.14233398 1.02172852 C17.14233398 1.35172852 17.14233398 1.68172852 17.14233398 2.02172852 C11.20233398 2.02172852 5.26233398 2.02172852 -0.85766602 2.02172852 C-0.71329102 3.31208008 -0.56891602 4.60243164 -0.42016602 5.93188477 C-0.23246914 7.64931118 -0.04498016 9.36676032 0.14233398 11.08422852 C0.23772461 11.93178711 0.33311523 12.7793457 0.43139648 13.65258789 C0.95289557 18.4764544 1.24766125 23.17009115 1.14233398 28.02172852 C0.81233398 26.70172852 0.48233398 25.38172852 0.14233398 24.02172852 C-0.51766602 24.02172852 -1.17766602 24.02172852 -1.85766602 24.02172852 C-2.7128471 18.8499191 -3.01160303 13.88432749 -2.98266602 8.64672852 C-2.9865332 7.92356445 -2.99040039 7.20040039 -2.99438477 6.45532227 C-2.98233891 0.03488345 -2.98233891 0.03488345 0 0 Z " fill="#26D63A" transform="translate(75.857666015625,181.978271484375)"/>
<path d="M0 0 C0.33 0 0.66 0 1 0 C1.34468633 16.31161791 1.10585038 31.95310639 -2 48 C-2.33 48 -2.66 48 -3 48 C-3.33 45.69 -3.66 43.38 -4 41 C-3.67 41 -3.34 41 -3 41 C-2.93941406 40.01257813 -2.87882812 39.02515625 -2.81640625 38.0078125 C-2.73261719 36.72648437 -2.64882813 35.44515625 -2.5625 34.125 C-2.48128906 32.84882813 -2.40007812 31.57265625 -2.31640625 30.2578125 C-2 27 -2 27 -1 25 C-0.84655791 23.11527141 -0.75040429 21.22572126 -0.68359375 19.3359375 C-0.62075195 17.65371094 -0.62075195 17.65371094 -0.55664062 15.9375 C-0.49766602 14.1740625 -0.49766602 14.1740625 -0.4375 12.375 C-0.39431641 11.19164062 -0.35113281 10.00828125 -0.30664062 8.7890625 C-0.20032574 5.85949672 -0.09829358 2.92984412 0 0 Z " fill="#3CDA4D" transform="translate(318,165)"/>
<path d="M0 0 C1.93166016 0.01740234 1.93166016 0.01740234 3.90234375 0.03515625 C5.19269531 0.04417969 6.48304688 0.05320313 7.8125 0.0625 C8.81152344 0.07410156 9.81054688 0.08570313 10.83984375 0.09765625 C11.16984375 1.08765625 11.49984375 2.07765625 11.83984375 3.09765625 C4.90984375 2.60265625 4.90984375 2.60265625 -2.16015625 2.09765625 C-2.16015625 9.35765625 -2.16015625 16.61765625 -2.16015625 24.09765625 C-2.49015625 24.09765625 -2.82015625 24.09765625 -3.16015625 24.09765625 C-3.35602535 20.28553722 -3.5404519 16.47295091 -3.72265625 12.66015625 C-3.77873047 11.57154297 -3.83480469 10.48292969 -3.89257812 9.36132812 C-3.94091797 8.32685547 -3.98925781 7.29238281 -4.0390625 6.2265625 C-4.08619385 5.2682251 -4.1333252 4.3098877 -4.18188477 3.32250977 C-4.14730441 -0.21828586 -3.60680088 0.11145862 0 0 Z " fill="#2FD842" transform="translate(198.16015625,60.90234375)"/>
<path d="M0 0 C3.81248345 -0.02936502 7.62493726 -0.04692035 11.4375 -0.0625 C12.50677734 -0.07087891 13.57605469 -0.07925781 14.67773438 -0.08789062 C20.87624228 -0.10684631 26.8549481 0.17936741 33 1 C33 1.33 33 1.66 33 2 C25.63528122 2.8232021 18.2804732 3.15481577 10.875 3.25 C10.03348389 3.27126953 9.19196777 3.29253906 8.32495117 3.31445312 C5.9296875 3.328125 5.9296875 3.328125 2 3 C1.34 2.01 0.68 1.02 0 0 Z " fill="#46DD5D" transform="translate(178,51)"/>
<path d="M0 0 C0.33 0 0.66 0 1 0 C0.97679687 0.90621094 0.95359375 1.81242188 0.9296875 2.74609375 C0.82505848 9.80855284 0.82380714 16.24234848 3 23 C3.99 23.33 4.98 23.66 6 24 C6 24.66 6 25.32 6 26 C6.99 26.33 7.98 26.66 9 27 C10.38576923 28.62332967 11.72641268 30.28724465 13 32 C7.87334387 31.10987729 5.17501614 27.92659001 2 24 C-2.1698302 17.46823801 -1.50881242 9.45605897 -1 2 C-0.67 1.34 -0.34 0.68 0 0 Z " fill="#0ACE1C" transform="translate(164,179)"/>
<path d="M0 0 C3.12482562 -0.08687496 6.24934246 -0.14034568 9.375 -0.1875 C10.70917969 -0.22520508 10.70917969 -0.22520508 12.0703125 -0.26367188 C13.34648438 -0.27817383 13.34648438 -0.27817383 14.6484375 -0.29296875 C15.82672119 -0.31653442 15.82672119 -0.31653442 17.02880859 -0.34057617 C17.67930176 -0.22818604 18.32979492 -0.1157959 19 0 C21 3 21 3 20.6875 5.625 C20 8 20 8 19 9 C16.13732433 9.07325168 13.299281 9.09238205 10.4375 9.0625 C9.63119141 9.05798828 8.82488281 9.05347656 7.99414062 9.04882812 C5.99606244 9.03700518 3.99802217 9.01906914 2 9 C2 8.67 2 8.34 2 8 C9.92 7.505 9.92 7.505 18 7 C17.67 5.35 17.34 3.7 17 2 C11.39 1.67 5.78 1.34 0 1 C0 0.67 0 0.34 0 0 Z " fill="#09D221" transform="translate(74,174)"/>
<path d="M0 0 C5.19255925 2.1154871 8.96885861 6.37352103 12 11 C12 11.66 12 12.32 12 13 C13.32 13.66 14.64 14.32 16 15 C15.34 15.66 14.68 16.32 14 17 C11.65863048 14.54921238 9.32832922 12.08817454 7 9.625 C6.33226562 8.92632812 5.66453125 8.22765625 4.9765625 7.5078125 C4.34492188 6.8375 3.71328125 6.1671875 3.0625 5.4765625 C2.47597656 4.85861816 1.88945312 4.24067383 1.28515625 3.60400391 C0 2 0 2 0 0 Z " fill="#1BD533" transform="translate(269,91)"/>
<path d="M0 0 C0.66 0 1.32 0 2 0 C1.938125 1.175625 1.87625 2.35125 1.8125 3.5625 C1.8125 9.59209169 4.14969299 14.41630118 8 19 C5.35016664 18.63450574 4.22166705 18.23871836 2.375 16.25 C-0.84425712 10.98212471 -1.30420896 7.08417911 -1 1 C-0.67 0.67 -0.34 0.34 0 0 Z " fill="#19D52F" transform="translate(172,183)"/>
<path d="M0 0 C0.66 0.33 1.32 0.66 2 1 C1.49549316 1.47421387 0.99098633 1.94842773 0.47119141 2.43701172 C-1.8111791 4.58268185 -4.09309475 6.72883509 -6.375 8.875 C-7.1690625 9.62136719 -7.963125 10.36773437 -8.78125 11.13671875 C-9.92207031 12.20986328 -9.92207031 12.20986328 -11.0859375 13.3046875 C-11.7876709 13.96452637 -12.4894043 14.62436523 -13.21240234 15.30419922 C-14.49215536 16.51823424 -15.75267309 17.75267309 -17 19 C-16.55080331 14.67137733 -13.73187371 12.35730458 -10.75 9.5 C-10.27175781 9.02691406 -9.79351562 8.55382812 -9.30078125 8.06640625 C-6.34546994 5.17516673 -3.26866255 2.52903818 0 0 Z " fill="#CEF4D5" transform="translate(122,84)"/>
<path d="M0 0 C0.33 0.99 0.66 1.98 1 3 C-0.109375 4.68359375 -0.109375 4.68359375 -1.75 6.4375 C-3.54946932 8.40358684 -5.19202376 10.26746166 -6.75 12.4375 C-7.1625 12.953125 -7.575 13.46875 -8 14 C-8.66 14 -9.32 14 -10 14 C-10 14.66 -10 15.32 -10 16 C-10.66 15.67 -11.32 15.34 -12 15 C-8.19695186 9.80789528 -4.23841458 4.84390238 0 0 Z " fill="#22D637" transform="translate(97,92)"/>
<path d="M0 0 C5.04507544 2.57401808 8.64909607 5.37557864 12.51953125 9.51171875 C13.94989394 11.1077483 13.94989394 11.1077483 16 12 C15.67 12.99 15.34 13.98 15 15 C15 14.34 15 13.68 15 13 C12.525 12.01 12.525 12.01 10 11 C10 10.34 10 9.68 10 9 C9.34 9 8.68 9 8 9 C8 8.34 8 7.68 8 7 C5.525 6.01 5.525 6.01 3 5 C3 4.34 3 3.68 3 3 C2.01 2.67 1.02 2.34 0 2 C0 1.34 0 0.68 0 0 Z " fill="#17D52F" transform="translate(264,75)"/>
<path d="M0 0 C0.66 0.33 1.32 0.66 2 1 C-1.3 4.3 -4.6 7.6 -8 11 C-8.33 9.68 -8.66 8.36 -9 7 C-6.42259618 3.90711541 -3.85829052 1.33044501 0 0 Z " fill="#09D52E" transform="translate(107,84)"/>
<path d="M0 0 C5.72398793 0.74660712 11.34853777 1.82877141 17 3 C17 3.33 17 3.66 17 4 C10.6447755 5.5197276 6.08291273 4.1663492 0 2 C0 1.34 0 0.68 0 0 Z " fill="#3CDA4F" transform="translate(153,293)"/>
<path d="M0 0 C0.90105469 0.00902344 1.80210937 0.01804687 2.73046875 0.02734375 C3.41753906 0.03894531 4.10460937 0.05054688 4.8125 0.0625 C4.4825 0.7225 4.1525 1.3825 3.8125 2.0625 C-0.47519786 3.36180238 -4.75260345 3.13766774 -9.1875 3.0625 C-7.31499103 -0.68251794 -3.72136574 -0.04832943 0 0 Z " fill="#0BD224" transform="translate(215.1875,304.9375)"/>
<path d="M0 0 C0.66 0.33 1.32 0.66 2 1 C-0.31 3.64 -2.62 6.28 -5 9 C-5.99 8.34 -6.98 7.68 -8 7 C-5.36 4.69 -2.72 2.38 0 0 Z " fill="#22D740" transform="translate(176,164)"/>
<path d="M0 0 C3.55150592 0.30441479 4.97138802 0.97593993 7.75 3.3125 C9.78634065 5.74479578 10.6577784 6.92000563 11 10 C10.01 10.495 10.01 10.495 9 11 C8.62875 10.278125 8.2575 9.55625 7.875 8.8125 C5.62065395 5.43098093 3.16303907 3.53043126 0 1 C0 0.67 0 0.34 0 0 Z " fill="#1AD433" transform="translate(194,173)"/>
<path d="M0 0 C3 2 3 2 3.80078125 4.3125 C3.96964844 5.199375 4.13851563 6.08625 4.3125 7 C4.49425781 7.886875 4.67601562 8.77375 4.86328125 9.6875 C4.90839844 10.450625 4.95351563 11.21375 5 12 C4.34 12.66 3.68 13.32 3 14 C1.11525997 12.11525997 1.30668 8.97253598 0.9375 6.4375 C0.76089844 5.23996094 0.58429688 4.04242188 0.40234375 2.80859375 C0.26957031 1.88175781 0.13679688 0.95492187 0 0 Z " fill="#2BD843" transform="translate(304,152)"/>
<path d="M0 0 C0.66 0 1.32 0 2 0 C2 0.66 2 1.32 2 2 C2.99 2.33 3.98 2.66 5 3 C5 3.66 5 4.32 5 5 C5.99 5.33 6.98 5.66 8 6 C9.38576923 7.62332967 10.72641268 9.28724465 12 11 C8.46413157 10.42239677 6.79041711 9.1727933 4.3125 6.625 C3.71050781 6.01914063 3.10851562 5.41328125 2.48828125 4.7890625 C1 3 1 3 0 0 Z " fill="#18D32C" transform="translate(165,200)"/>
<path d="M0 0 C0.99 0.33 1.98 0.66 3 1 C3.94921875 3.28515625 3.94921875 3.28515625 4.6875 6.0625 C4.93886719 6.98160156 5.19023437 7.90070313 5.44921875 8.84765625 C5.63097656 9.55792969 5.81273437 10.26820313 6 11 C5.01 11 4.02 11 3 11 C2.49632243 9.54293274 1.99717444 8.08429904 1.5 6.625 C1.2215625 5.81289062 0.943125 5.00078125 0.65625 4.1640625 C0 2 0 2 0 0 Z " fill="#22D63D" transform="translate(306,127)"/>
<path d="M0 0 C0.66 0.33 1.32 0.66 2 1 C-1.49359465 4.59634744 -5.11098131 7.83451967 -9 11 C-9.66 10.67 -10.32 10.34 -11 10 C-5.555 5.05 -5.555 5.05 0 0 Z " fill="#2BD63F" transform="translate(115,75)"/>
<path d="M0 0 C10.74259681 3.85421412 10.74259681 3.85421412 14 8 C11.69 7.34 9.38 6.68 7 6 C7 5.34 7 4.68 7 4 C5.824375 3.7834375 5.824375 3.7834375 4.625 3.5625 C2 3 2 3 0 2 C0 1.34 0 0.68 0 0 Z " fill="#1AD52E" transform="translate(241,62)"/>
<path d="M0 0 C0.66 0.99 1.32 1.98 2 3 C1.3203125 5.69921875 1.3203125 5.69921875 0.125 8.6875 C-0.26429688 9.68136719 -0.65359375 10.67523438 -1.0546875 11.69921875 C-1.52261719 12.83810547 -1.52261719 12.83810547 -2 14 C-2.33 14 -2.66 14 -3 14 C-2.58846263 9.02906176 -2.20399168 4.55491614 0 0 Z " fill="#2FD946" transform="translate(310,222)"/>
<path d="M0 0 C2.12920281 2.12920281 2.51084284 3.10230433 3.25 5.9375 C3.44078125 6.62714844 3.6315625 7.31679687 3.828125 8.02734375 C4 10 4 10 2 13 C1.47212358 11.02270019 0.95287097 9.04309608 0.4375 7.0625 C0.00244141 5.40927734 0.00244141 5.40927734 -0.44140625 3.72265625 C-0.62574219 2.82417969 -0.81007813 1.92570313 -1 1 C-0.67 0.67 -0.34 0.34 0 0 Z " fill="#22D63C" transform="translate(69,215)"/>
<path d="M0 0 C0 0.33 0 0.66 0 1 C-0.60328125 1.12117188 -1.2065625 1.24234375 -1.828125 1.3671875 C-2.62734375 1.53476562 -3.4265625 1.70234375 -4.25 1.875 C-5.03890625 2.03742187 -5.8278125 2.19984375 -6.640625 2.3671875 C-9.02038186 2.90386625 -9.02038186 2.90386625 -11.046875 4.1328125 C-13.45520694 5.20211188 -14.56712842 4.86888271 -17 4 C-11.15439723 1.36536213 -6.45512034 -0.56131481 0 0 Z " fill="#0FD223" transform="translate(164,55)"/>
<path d="M0 0 C1.21236328 0.01353516 1.21236328 0.01353516 2.44921875 0.02734375 C3.37154297 0.04474609 3.37154297 0.04474609 4.3125 0.0625 C1.42621599 1.63804035 -1.22092384 2.52526373 -4.4375 3.1875 C-5.63632813 3.43886719 -5.63632813 3.43886719 -6.859375 3.6953125 C-7.46265625 3.81648438 -8.0659375 3.93765625 -8.6875 4.0625 C-8.3575 3.0725 -8.0275 2.0825 -7.6875 1.0625 C-4.80538698 0.10179566 -2.98899956 -0.04331883 0 0 Z " fill="#46DD59" transform="translate(227.6875,302.9375)"/>
<path d="M0 0 C-2.33539809 1.55693206 -4.57968756 2.90200646 -7.0625 4.1875 C-7.75472656 4.55230469 -8.44695312 4.91710937 -9.16015625 5.29296875 C-9.76730469 5.52628906 -10.37445313 5.75960937 -11 6 C-11.66 5.67 -12.32 5.34 -13 5 C-8.68660704 1.42677506 -5.86197356 -0.71487482 0 0 Z " fill="#2CD43D" transform="translate(256,113)"/>
<path d="M0 0 C2.912575 0.08566397 4.56798024 0.57910955 6.66796875 2.625 C8.16091772 4.38391375 9.60436262 6.16313019 11 8 C7.24026115 8 6.54322371 7.03457593 3.8125 4.5625 C3.09707031 3.92441406 2.38164063 3.28632812 1.64453125 2.62890625 C1.10183594 2.09136719 0.55914062 1.55382812 0 1 C0 0.67 0 0.34 0 0 Z " fill="#23D739" transform="translate(97,109)"/>
<path d="M0 0 C0 0.66 0 1.32 0 2 C0.99 2.33 1.98 2.66 3 3 C1.56163249 2.88541307 0.12429034 2.75790884 -1.3125 2.625 C-2.11300781 2.55539062 -2.91351563 2.48578125 -3.73828125 2.4140625 C-6 2 -6 2 -9 0 C-5.67465243 -1.10844919 -3.37817425 -0.84454356 0 0 Z " fill="#47DF5B" transform="translate(158,303)"/>
<path d="M0 0 C0.58265625 0.21527344 1.1653125 0.43054688 1.765625 0.65234375 C1.1675 0.92046875 0.569375 1.18859375 -0.046875 1.46484375 C-2.28948287 2.52181825 -2.28948287 2.52181825 -3.734375 4.33984375 C-4.229375 4.77296875 -4.724375 5.20609375 -5.234375 5.65234375 C-7.328125 5.234375 -7.328125 5.234375 -9.234375 4.65234375 C-8.16330383 3.78285058 -7.07691556 2.9322017 -5.984375 2.08984375 C-5.38109375 1.61417969 -4.7778125 1.13851562 -4.15625 0.6484375 C-2.234375 -0.34765625 -2.234375 -0.34765625 0 0 Z " fill="#1CD533" transform="translate(241.234375,121.34765625)"/>
<path d="M0 0 C0.66 0.33 1.32 0.66 2 1 C1.25 6.75 1.25 6.75 -1 9 C-3.625 9.125 -3.625 9.125 -6 9 C-4.68 8.67 -3.36 8.34 -2 8 C-1.34 5.36 -0.68 2.72 0 0 Z " fill="#35D645" transform="translate(114,110)"/>
<path d="M0 0 C1.90318884 2.85478326 2.4619099 4.41941308 3.125 7.6875 C3.29257813 8.49574219 3.46015625 9.30398437 3.6328125 10.13671875 C3.75398438 10.75160156 3.87515625 11.36648437 4 12 C2 10.5 2 10.5 0 8 C-0.35800135 5.24128373 -0.18660165 2.79902476 0 0 Z " fill="#25D63A" transform="translate(81,221)"/>
<path d="M0 0 C0.66 0.33 1.32 0.66 2 1 C1.67 1.66 1.34 2.32 1 3 C0.34 3 -0.32 3 -1 3 C-1.33 3.99 -1.66 4.98 -2 6 C-3.65 5.67 -5.3 5.34 -7 5 C-4.88437775 2.67281553 -2.94982021 1.14186589 0 0 Z " fill="#3FDB59" transform="translate(131,65)"/>
<path d="M0 0 C0.33 0.66 0.66 1.32 1 2 C2.97888961 2.72693904 4.97954558 3.39816251 7 4 C3.69564916 5.12377697 1.9493138 4.89554742 -1.25 3.5625 C-1.95640625 3.27503906 -2.6628125 2.98757813 -3.390625 2.69140625 C-3.92171875 2.46324219 -4.4528125 2.23507812 -5 2 C-2 0 -2 0 0 0 Z " fill="#0AD222" transform="translate(146,298)"/>
<path d="M0 0 C0.33 0.99 0.66 1.98 1 3 C-0.75 4.5625 -0.75 4.5625 -3 6 C-4.32 5.67 -5.64 5.34 -7 5 C-4.69 3.35 -2.38 1.7 0 0 Z " fill="#29D83D" transform="translate(229,128)"/>
<path d="M0 0 C0.36923077 5.53846154 0.36923077 5.53846154 -1.5 7.875 C-2.2425 8.431875 -2.2425 8.431875 -3 9 C-3 6.36 -3 3.72 -3 1 C-1 0 -1 0 0 0 Z " fill="#37DA4E" transform="translate(309,194)"/>
<path d="M0 0 C0.66 0.33 1.32 0.66 2 1 C0.125 6.75 0.125 6.75 -1 9 C-1.66 9 -2.32 9 -3 9 C-2.67 7.35 -2.34 5.7 -2 4 C-1.34 4 -0.68 4 0 4 C0 2.68 0 1.36 0 0 Z " fill="#2FD745" transform="translate(212,195)"/>
<path d="M0 0 C0.66 0.33 1.32 0.66 2 1 C1.34 3.97 0.68 6.94 0 10 C-0.66 9.01 -1.32 8.02 -2 7 C-1.125 3.3125 -1.125 3.3125 0 0 Z " fill="#34DA49" transform="translate(81,134)"/>
<path d="M0 0 C3.6 3.6 3.6 3.6 4 7 C3.5625 9.75 3.5625 9.75 3 12 C2.67 12 2.34 12 2 12 C1.34 8.04 0.68 4.08 0 0 Z " fill="#0AD430" transform="translate(302,118)"/>
<path d="M0 0 C0.99 0.33 1.98 0.66 3 1 C1.625 3 1.625 3 0 5 C-0.66 5 -1.32 5 -2 5 C-2 5.66 -2 6.32 -2 7 C-2.66 6.67 -3.32 6.34 -4 6 C-2.68 4.02 -1.36 2.04 0 0 Z " fill="#32D746" transform="translate(89,101)"/>
<path d="M0 0 C1.8871875 0.0309375 1.8871875 0.0309375 3.8125 0.0625 C0.54704239 1.94641785 -2.46861761 2.55537967 -6.1875 3.0625 C-6.5175 2.4025 -6.8475 1.7425 -7.1875 1.0625 C-4.43671116 0.14557039 -2.82801087 -0.04636083 0 0 Z " fill="#45DD55" transform="translate(154.1875,66.9375)"/>
<path d="M0 0 C-0.33 0.99 -0.66 1.98 -1 3 C-2.98 3.33 -4.96 3.66 -7 4 C-7.33 3.34 -7.66 2.68 -8 2 C-2.25 0 -2.25 0 0 0 Z " fill="#21D334" transform="translate(195,84)"/>
</svg>
