<?xml version="1.0" encoding="UTF-8"?>
<svg version="1.1" xmlns="http://www.w3.org/2000/svg" width="360" height="360">
<path d="M0 0 C118.8 0 237.6 0 360 0 C360 118.8 360 237.6 360 360 C241.2 360 122.4 360 0 360 C0 241.2 0 122.4 0 0 Z " fill="#FEFEFE" transform="translate(0,0)"/>
<path d="M0 0 C1.14806625 -0.00945648 2.29613251 -0.01891296 3.47898865 -0.02865601 C5.33995934 -0.01954697 5.33995934 -0.01954697 7.23852539 -0.01025391 C9.14898399 -0.01455917 9.14898399 -0.01455917 11.09803772 -0.01895142 C13.79418387 -0.0209949 16.48951673 -0.01694972 19.18554688 -0.00292969 C22.6368767 0.01414554 26.08750578 0.00433174 29.53880978 -0.01364708 C32.83457322 -0.02711344 36.13025279 -0.01767544 39.42602539 -0.01025391 C40.66464828 -0.0163266 41.90327118 -0.02239929 43.1794281 -0.02865601 C44.33064651 -0.01919952 45.48186493 -0.00974304 46.66796875 0 C48.18661781 0.00358017 48.18661781 0.00358017 49.73594666 0.00723267 C52.956595 0.46800288 54.12736483 1.06050015 56.39868164 3.38818359 C56.89645958 6.46916294 56.89645958 6.46916294 56.89315796 10.34120178 C56.89798679 11.05289204 56.90281562 11.76458229 56.90779078 12.49783891 C56.91908614 14.88882232 56.90172542 17.27874193 56.88452148 19.66967773 C56.88666674 21.38114207 56.89054353 23.09260499 56.89602661 24.80406189 C56.90573532 29.45690568 56.89039831 34.10936684 56.87012053 38.76216435 C56.85258044 43.62459598 56.85607399 48.48701524 56.85684204 53.34947205 C56.85496793 61.51486634 56.83758815 69.68011215 56.81030273 77.84545898 C56.77884024 87.29595523 56.76830683 96.74628884 56.76977384 106.19683367 C56.77099309 115.27643731 56.76079491 124.3559878 56.74419022 133.43557549 C56.73711558 137.3051641 56.73346244 141.17473392 56.7324028 145.04432869 C56.73039871 149.59727909 56.71822842 154.1500921 56.69807053 158.70299721 C56.69221224 160.37759816 56.68977146 162.05221492 56.6909256 163.72682571 C56.69190201 166.00541451 56.68064578 168.28361427 56.66610718 170.56214905 C56.66275549 171.83954484 56.6594038 173.11694063 56.65595055 174.43304539 C56.39868164 177.38818359 56.39868164 177.38818359 54.39868164 179.38818359 C51.77990723 179.64215088 51.77990723 179.64215088 48.42016602 179.64697266 C47.16546509 179.65327698 45.91076416 179.6595813 44.61804199 179.66607666 C43.24283712 179.66249698 41.86763352 179.65839504 40.49243164 179.65380859 C39.08760511 179.65515532 37.68277903 179.65709592 36.2779541 179.65960693 C33.33231168 179.66255785 30.38679046 179.65826168 27.44116211 179.64892578 C23.66129661 179.63753114 19.88171512 179.6440908 16.10186005 179.65607071 C13.20056001 179.66329024 10.29932756 179.66100098 7.39802551 179.65581512 C6.00413479 179.65447888 4.61023798 179.65612547 3.21635437 179.66077423 C1.26996983 179.6658407 -0.67643616 179.65675229 -2.62280273 179.64697266 C-3.73151733 179.64538147 -4.84023193 179.64379028 -5.98254395 179.64215088 C-8.60131836 179.38818359 -8.60131836 179.38818359 -10.60131836 177.38818359 C-10.85131836 174.38818359 -10.85131836 174.38818359 -10.60131836 171.38818359 C-9.94131836 170.72818359 -9.28131836 170.06818359 -8.60131836 169.38818359 C9.54868164 169.38818359 27.69868164 169.38818359 46.39868164 169.38818359 C46.39868164 117.24818359 46.39868164 65.10818359 46.39868164 11.38818359 C31.54868164 11.38818359 16.69868164 11.38818359 1.39868164 11.38818359 C1.44508789 18.34912109 1.49149414 25.31005859 1.53930664 32.48193359 C1.55977117 36.92075081 1.57902882 41.35950896 1.59399414 45.79833984 C1.61780402 52.82694748 1.64581519 59.85534453 1.70043945 66.88378906 C1.74425155 72.55725903 1.76789273 78.2305028 1.77819061 83.90412903 C1.785519 86.05682429 1.79982744 88.20950872 1.82160187 90.36210632 C1.97177091 105.83864074 1.25650907 120.60229135 -6.22631836 134.57568359 C-6.56840332 135.23165527 -6.91048828 135.88762695 -7.26293945 136.56347656 C-15.20245669 151.27063971 -29.2947556 169.10455981 -44.60131836 176.38818359 C-48.12814295 177.00989947 -49.29372412 176.59772377 -52.28491211 174.56005859 C-53.19370117 173.76083984 -54.10249023 172.96162109 -55.03881836 172.13818359 C-58.77898265 168.92871829 -62.41968482 165.98757742 -66.60131836 163.38818359 C-67.03959961 163.95923828 -67.47788086 164.53029297 -67.92944336 165.11865234 C-72.91768229 171.49589276 -78.2552408 177.43619525 -83.77709961 183.34521484 C-86.02367815 185.75199839 -88.20637898 188.20234459 -90.35131836 190.70068359 C-91.43116359 191.93291575 -92.51456647 193.16203836 -93.60131836 194.38818359 C-94.58551758 195.50773437 -94.58551758 195.50773437 -95.58959961 196.64990234 C-100.76349357 202.23303085 -100.76349357 202.23303085 -104.97631836 203.01318359 C-107.60131836 202.38818359 -107.60131836 202.38818359 -109.60131836 200.38818359 C-109.29757685 194.76543372 -107.46084894 190.22962227 -105.28881836 185.13818359 C-99.14170848 170.08358732 -96.46160822 154.20060759 -96.44360352 137.98071289 C-96.4385228 136.96999222 -96.43344208 135.95927155 -96.4282074 134.91792297 C-96.41755591 132.7365116 -96.40891554 130.55508965 -96.40208817 128.37366295 C-96.39024712 124.92343393 -96.37078553 121.47332715 -96.34896851 118.02314758 C-96.28749407 108.21835356 -96.23316539 98.41357652 -96.19995117 88.60864258 C-96.17905886 82.60171965 -96.14381342 76.59502736 -96.09919357 70.58823586 C-96.08500522 68.29926062 -96.07630478 66.01024467 -96.07313919 63.72122765 C-96.06825453 60.53013106 -96.04516433 57.33965335 -96.01782227 54.14868164 C-96.0208284 53.19955902 -96.02383453 52.2504364 -96.02693176 51.27255249 C-96.01583878 50.40491776 -96.00474579 49.53728302 -95.99331665 48.64335632 C-95.9900065 47.88958049 -95.98669636 47.13580465 -95.9832859 46.35918713 C-95.49359179 43.83230009 -94.62289506 42.93951313 -92.60131836 41.38818359 C-89.98291016 41.00723267 -89.98291016 41.00723267 -86.80053711 41 C-85.01353394 40.98581528 -85.01353394 40.98581528 -83.19042969 40.97134399 C-81.90289795 40.97741669 -80.61536621 40.98348938 -79.28881836 40.98974609 C-77.95507651 40.98772504 -76.62133573 40.98481334 -75.28759766 40.98104858 C-72.4933011 40.97662664 -69.69929238 40.98305169 -66.9050293 40.99707031 C-63.32357371 41.01416265 -59.74279254 41.0043207 -56.16136169 40.98635292 C-53.4075411 40.97551128 -50.65388035 40.97896305 -47.90005493 40.9867363 C-45.93743451 40.98971031 -43.97480787 40.98060068 -42.01220703 40.97134399 C-40.82087158 40.98080048 -39.62953613 40.99025696 -38.40209961 41 C-36.82682495 41.00358017 -36.82682495 41.00358017 -35.21972656 41.00723267 C-32.14962916 41.45389963 -31.47511299 41.98548974 -29.60131836 44.38818359 C-29.2165575 46.38153362 -29.2165575 46.38153362 -29.20259094 48.69718933 C-29.18378372 50.01598335 -29.18378372 50.01598335 -29.16459656 51.36141968 C-29.16603165 52.32311066 -29.16746674 53.28480164 -29.16894531 54.27563477 C-29.15365784 55.79784889 -29.15365784 55.79784889 -29.13806152 57.35081482 C-29.10782502 60.71098271 -29.09864918 64.07086603 -29.08959961 67.43115234 C-29.07276085 69.75858007 -29.05461171 72.08599866 -29.03520203 74.41340637 C-28.98760884 80.54378402 -28.95785969 86.67412463 -28.9317627 92.80462646 C-28.9020042 99.05846474 -28.85545773 105.31217526 -28.81030273 111.56591797 C-28.72416356 123.83993981 -28.65686547 136.11398787 -28.60131836 148.38818359 C-27.31549544 146.80771478 -26.03342494 145.22419266 -24.75292969 143.6394043 C-24.03857254 142.75791214 -23.32421539 141.87641998 -22.58821106 140.96821594 C-20.04973946 137.67194391 -18.09885645 134.30816043 -16.28881836 130.57568359 C-15.96848633 129.96660156 -15.6481543 129.35751953 -15.31811523 128.72998047 C-8.94044363 115.88334134 -9.17096291 102.4729691 -9.19062805 88.47462082 C-9.19514451 84.97765912 -9.18100289 81.48119311 -9.16223145 77.98428345 C-9.11943873 69.31421322 -9.10815842 60.64415646 -9.0960083 51.97399902 C-9.08449941 44.61519267 -9.06102989 37.25661711 -9.02131653 29.89790726 C-9.00772171 26.45050706 -9.01191859 23.00341634 -9.01672363 19.55599976 C-9.00738974 17.45497231 -8.99722263 15.35394834 -8.98608398 13.25292969 C-8.99223221 12.29296082 -8.99838043 11.33299194 -9.00471497 10.34393311 C-8.9965123 9.46669586 -8.98830963 8.58945862 -8.9798584 7.68563843 C-8.97914589 6.923608 -8.97843338 6.16157757 -8.97769928 5.37645531 C-8.02239867 0.3299796 -4.52107778 0.01066669 0 0 Z " fill="#01D835" transform="translate(242.601318359375,110.61181640625)"/>
<path d="M0 0 C1.78700317 -0.01418472 1.78700317 -0.01418472 3.61010742 -0.02865601 C5.54140503 -0.01954697 5.54140503 -0.01954697 7.51171875 -0.01025391 C8.8454606 -0.01227496 10.17920138 -0.01518666 11.51293945 -0.01895142 C14.30723601 -0.02337336 17.10124473 -0.01694831 19.89550781 -0.00292969 C23.4769634 0.01416265 27.05774457 0.0043207 30.63917542 -0.01364708 C33.39299601 -0.02448872 36.14665676 -0.02103695 38.90048218 -0.0132637 C40.8631026 -0.01028969 42.82572923 -0.01939932 44.78833008 -0.02865601 C45.97966553 -0.01919952 47.17100098 -0.00974304 48.3984375 0 C49.44862061 0.00238678 50.49880371 0.00477356 51.58081055 0.00723267 C54.64324414 0.45278463 55.31533044 1.00847138 57.19921875 3.38818359 C57.49561101 6.40011587 57.60882463 9.20523246 57.58740234 12.21826172 C57.5926593 13.12096298 57.59791626 14.02366425 57.60333252 14.95372009 C57.6165539 17.94246643 57.60778682 20.93068168 57.59765625 23.91943359 C57.59967637 25.99304303 57.60258729 28.06665178 57.60635376 30.14025879 C57.61078001 34.48810585 57.60433629 38.83576814 57.59033203 43.18359375 C57.57324007 48.76259315 57.58307963 54.34115962 57.60104942 59.92014313 C57.61187907 64.20260899 57.60844467 68.48497186 57.60066605 72.7674408 C57.59866177 74.82478384 57.60113124 76.88213618 57.60810471 78.93946838 C57.61570564 81.81260016 57.60413397 84.68502637 57.58740234 87.55810547 C57.59347504 88.41222519 57.59954773 89.26634491 57.60580444 90.14634705 C57.54300415 95.95391671 57.54300415 95.95391671 55.83905983 98.10632515 C53.40190675 100.01143979 51.46033745 99.76940832 48.3984375 99.77636719 C47.20710205 99.78582367 46.0157666 99.79528015 44.78833008 99.80502319 C42.85703247 99.79591415 42.85703247 99.79591415 40.88671875 99.78662109 C39.5529769 99.78864215 38.21923612 99.79155385 36.88549805 99.7953186 C34.09120149 99.79974055 31.29719277 99.79331549 28.50292969 99.77929688 C24.9214741 99.76220454 21.34069293 99.77204648 17.75926208 99.79001427 C15.00544149 99.8008559 12.25178074 99.79740414 9.49795532 99.78963089 C7.5353349 99.78665688 5.57270827 99.79576651 3.61010742 99.80502319 C1.82310425 99.79083847 1.82310425 99.79083847 0 99.77636719 C-1.05018311 99.77398041 -2.10036621 99.77159363 -3.18237305 99.76913452 C-6.24480664 99.32358256 -6.91689294 98.76789581 -8.80078125 96.38818359 C-9.09717351 93.37625132 -9.21038713 90.57113472 -9.18896484 87.55810547 C-9.1942218 86.65540421 -9.19947876 85.75270294 -9.20489502 84.82264709 C-9.2181164 81.83390076 -9.20934932 78.8456855 -9.19921875 75.85693359 C-9.20123887 73.78332415 -9.20414979 71.7097154 -9.20791626 69.6361084 C-9.21234251 65.28826133 -9.20589879 60.94059904 -9.19189453 56.59277344 C-9.17480257 51.01377404 -9.18464213 45.43520757 -9.20261192 39.85622406 C-9.21344157 35.57375819 -9.21000717 31.29139532 -9.20222855 27.00892639 C-9.20022427 24.95158334 -9.20269374 22.89423101 -9.20966721 20.8368988 C-9.21726814 17.96376703 -9.20569647 15.09134081 -9.18896484 12.21826172 C-9.19503754 11.364142 -9.20111023 10.51002228 -9.20736694 9.63002014 C-9.14456665 3.82245048 -9.14456665 3.82245048 -7.44062233 1.67004204 C-5.00346925 -0.2350726 -3.06189995 0.00695886 0 0 Z " fill="#FCFEFD" transform="translate(68.80078125,187.61181640625)"/>
<path d="M0 0 C15.18 0 30.36 0 46 0 C46.24065286 26.21333517 46.24065286 26.21333517 46.29296875 37.38671875 C46.32883694 45.01115976 46.37126923 52.63516846 46.45263672 60.25927734 C46.51782696 66.40604768 46.55370619 72.55235446 46.56926346 78.69944382 C46.58035017 81.04465407 46.60200015 83.38983893 46.63438034 85.73485184 C46.67793704 89.01991859 46.68393412 92.30306987 46.68115234 95.58837891 C46.702724 96.55798553 46.72429565 97.52759216 46.746521 98.52658081 C46.70372962 103.19663998 46.42936873 106.17716858 43.20742798 109.71322632 C40 112 40 112 37.90129662 111.71312904 C35.78723453 110.92019697 34.48915804 109.9793086 32.79296875 108.49609375 C32.20580078 108.00302734 31.61863281 107.50996094 31.01367188 107.00195312 C29.80102587 105.9630981 28.59518835 104.91623991 27.39648438 103.86132812 C24.36729689 101.34085915 22.36986559 100.08500778 18.46484375 99.1875 C13.32536874 100.3926982 11.41805041 103.43108587 8.375 107.5625 C7.8284375 108.26697266 7.281875 108.97144531 6.71875 109.69726562 C3.36547183 114.04930727 0.17122725 118.51430495 -3 123 C-4.29146036 119.12561892 -3.37721135 116.20333578 -2.59448242 112.31689453 C-0.50660211 100.8777507 -0.52130173 89.52491539 -0.48828125 77.9296875 C-0.47139352 75.66853894 -0.45323795 73.40739954 -0.43388367 71.14627075 C-0.38682165 65.25778059 -0.356731 59.36932754 -0.33044434 53.48071289 C-0.29511528 46.38173466 -0.23822997 39.2828989 -0.18505096 32.18403625 C-0.10705213 21.45604354 -0.05605742 10.72823065 0 0 Z " fill="#FDFEFD" transform="translate(157,162)"/>
<path d="M0 0 C0.87173859 -0.00524185 1.74347717 -0.0104837 2.64163208 -0.0158844 C4.48584936 -0.02230748 6.33010759 -0.02096389 8.17431641 -0.01245117 C10.99065584 -0.00395799 13.80495565 -0.03266994 16.62109375 -0.06445312 C18.41406189 -0.0660657 20.20703362 -0.06548652 22 -0.0625 C22.83973358 -0.07373398 23.67946716 -0.08496796 24.54464722 -0.09654236 C28.32059353 -0.05174805 30.73102797 0.23758395 34.16650391 1.91357422 C37.04664871 5.60476551 36.8174707 8.68652573 36.7265625 13.25 C36.72660278 14.10287094 36.72664307 14.95574188 36.72668457 15.8344574 C36.72133147 17.63409816 36.70375748 19.43373849 36.67480469 21.2331543 C36.63290291 23.99014529 36.63373985 26.74469704 36.640625 29.50195312 C36.63013387 31.25131908 36.61719617 33.00067244 36.6015625 34.75 C36.60136108 35.57504532 36.60115967 36.40009064 36.60095215 37.25013733 C36.48212283 42.98308805 36.48212283 42.98308805 34.79797363 45.15513611 C32.26460813 47.10017339 30.22257753 46.76229216 27.1328125 46.43359375 C24.49289982 43.79368107 24.83040453 42.45413079 24.71875 38.76953125 C24.68007813 37.64804688 24.64140625 36.5265625 24.6015625 35.37109375 C24.55515625 33.60765625 24.55515625 33.60765625 24.5078125 31.80859375 C24.46914063 30.62523438 24.43046875 29.441875 24.390625 28.22265625 C24.29612405 25.29312684 24.21056692 22.36360778 24.1328125 19.43359375 C23.19828247 20.41477173 23.19828247 20.41477173 22.24487305 21.41577148 C15.40715417 28.53855078 7.99941747 34.50294799 0.1328125 40.43359375 C-0.59115723 40.98595703 -1.31512695 41.53832031 -2.06103516 42.10742188 C-13.25949163 50.63912525 -24.70806866 58.34582809 -36.8671875 65.43359375 C-38.07665039 66.14829834 -38.07665039 66.14829834 -39.31054688 66.87744141 C-61.66964075 80.07974684 -84.65482469 91.0619063 -108.8671875 100.43359375 C-109.81271484 100.80468262 -110.75824219 101.17577148 -111.73242188 101.55810547 C-133.44950937 110.03621252 -155.86244536 115.82127705 -178.6796875 120.43359375 C-179.43325531 120.58756622 -180.18682312 120.7415387 -180.96322632 120.900177 C-183.12340666 121.33787993 -185.28560938 121.763203 -187.44921875 122.18359375 C-188.68905518 122.4259375 -189.9288916 122.66828125 -191.20629883 122.91796875 C-195.25968079 123.48887523 -198.78148276 123.73000282 -202.8671875 123.43359375 C-204.8671875 120.43359375 -204.8671875 120.43359375 -204.4921875 117.24609375 C-204.2859375 116.31796875 -204.0796875 115.38984375 -203.8671875 114.43359375 C-195.20143519 112.15101353 -186.47678611 110.30356808 -177.69128418 108.5604248 C-108.23860195 94.68530944 -39.89475914 63.33801373 12.35546875 14.8671875 C14.1328125 13.43359375 14.1328125 13.43359375 16.1328125 13.43359375 C16.1328125 12.77359375 16.1328125 12.11359375 16.1328125 11.43359375 C15.39119873 11.44406738 14.64958496 11.45454102 13.88549805 11.46533203 C10.53047057 11.50686571 7.17549717 11.53291164 3.8203125 11.55859375 C2.65306641 11.57535156 1.48582031 11.59210937 0.28320312 11.609375 C-1.39418945 11.61904297 -1.39418945 11.61904297 -3.10546875 11.62890625 C-4.652948 11.6446167 -4.652948 11.6446167 -6.23168945 11.66064453 C-8.8671875 11.43359375 -8.8671875 11.43359375 -11.8671875 9.43359375 C-12.52382643 4.28992212 -12.52382643 4.28992212 -10.58956909 1.7674408 C-7.54886097 -0.58734491 -3.69680493 -0.01286171 0 0 Z " fill="#05D937" transform="translate(263.8671875,29.56640625)"/>
<path d="M0 0 C1.78700317 -0.01418472 1.78700317 -0.01418472 3.61010742 -0.02865601 C5.54140503 -0.01954697 5.54140503 -0.01954697 7.51171875 -0.01025391 C8.8454606 -0.01227496 10.17920138 -0.01518666 11.51293945 -0.01895142 C14.30723601 -0.02337336 17.10124473 -0.01694831 19.89550781 -0.00292969 C23.4769634 0.01416265 27.05774457 0.0043207 30.63917542 -0.01364708 C33.39299601 -0.02448872 36.14665676 -0.02103695 38.90048218 -0.0132637 C40.8631026 -0.01028969 42.82572923 -0.01939932 44.78833008 -0.02865601 C45.97966553 -0.01919952 47.17100098 -0.00974304 48.3984375 0 C49.44862061 0.00238678 50.49880371 0.00477356 51.58081055 0.00723267 C54.64324414 0.45278463 55.31533044 1.00847138 57.19921875 3.38818359 C57.49561101 6.40011587 57.60882463 9.20523246 57.58740234 12.21826172 C57.5926593 13.12096298 57.59791626 14.02366425 57.60333252 14.95372009 C57.6165539 17.94246643 57.60778682 20.93068168 57.59765625 23.91943359 C57.59967637 25.99304303 57.60258729 28.06665178 57.60635376 30.14025879 C57.61078001 34.48810585 57.60433629 38.83576814 57.59033203 43.18359375 C57.57324007 48.76259315 57.58307963 54.34115962 57.60104942 59.92014313 C57.61187907 64.20260899 57.60844467 68.48497186 57.60066605 72.7674408 C57.59866177 74.82478384 57.60113124 76.88213618 57.60810471 78.93946838 C57.61570564 81.81260016 57.60413397 84.68502637 57.58740234 87.55810547 C57.59347504 88.41222519 57.59954773 89.26634491 57.60580444 90.14634705 C57.54300415 95.95391671 57.54300415 95.95391671 55.83905983 98.10632515 C53.40190675 100.01143979 51.46033745 99.76940832 48.3984375 99.77636719 C47.20710205 99.78582367 46.0157666 99.79528015 44.78833008 99.80502319 C42.85703247 99.79591415 42.85703247 99.79591415 40.88671875 99.78662109 C39.5529769 99.78864215 38.21923612 99.79155385 36.88549805 99.7953186 C34.09120149 99.79974055 31.29719277 99.79331549 28.50292969 99.77929688 C24.9214741 99.76220454 21.34069293 99.77204648 17.75926208 99.79001427 C15.00544149 99.8008559 12.25178074 99.79740414 9.49795532 99.78963089 C7.5353349 99.78665688 5.57270827 99.79576651 3.61010742 99.80502319 C1.82310425 99.79083847 1.82310425 99.79083847 0 99.77636719 C-1.05018311 99.77398041 -2.10036621 99.77159363 -3.18237305 99.76913452 C-6.24480664 99.32358256 -6.91689294 98.76789581 -8.80078125 96.38818359 C-9.09717351 93.37625132 -9.21038713 90.57113472 -9.18896484 87.55810547 C-9.1942218 86.65540421 -9.19947876 85.75270294 -9.20489502 84.82264709 C-9.2181164 81.83390076 -9.20934932 78.8456855 -9.19921875 75.85693359 C-9.20123887 73.78332415 -9.20414979 71.7097154 -9.20791626 69.6361084 C-9.21234251 65.28826133 -9.20589879 60.94059904 -9.19189453 56.59277344 C-9.17480257 51.01377404 -9.18464213 45.43520757 -9.20261192 39.85622406 C-9.21344157 35.57375819 -9.21000717 31.29139532 -9.20222855 27.00892639 C-9.20022427 24.95158334 -9.20269374 22.89423101 -9.20966721 20.8368988 C-9.21726814 17.96376703 -9.20569647 15.09134081 -9.18896484 12.21826172 C-9.19503754 11.364142 -9.20111023 10.51002228 -9.20736694 9.63002014 C-9.14456665 3.82245048 -9.14456665 3.82245048 -7.44062233 1.67004204 C-5.00346925 -0.2350726 -3.06189995 0.00695886 0 0 Z M2.19921875 10.38818359 C2.19921875 36.45818359 2.19921875 62.52818359 2.19921875 89.38818359 C16.71921875 89.38818359 31.23921875 89.38818359 46.19921875 89.38818359 C46.19921875 63.31818359 46.19921875 37.24818359 46.19921875 10.38818359 C31.67921875 10.38818359 17.15921875 10.38818359 2.19921875 10.38818359 Z " fill="#03D937" transform="translate(68.80078125,187.61181640625)"/>
<path d="M0 0 C1.53888382 0.00666183 1.53888382 0.00666183 3.1088562 0.01345825 C4.85043503 0.01368484 4.85043503 0.01368484 6.62719727 0.01391602 C7.88555389 0.02423859 9.14391052 0.03456116 10.44039917 0.04519653 C11.72493988 0.04802643 13.00948059 0.05085632 14.33294678 0.05377197 C17.74921434 0.06141094 21.16531204 0.08106151 24.58151245 0.10317993 C28.0670034 0.12363279 31.55252177 0.13277248 35.03805542 0.14285278 C41.87796898 0.16430729 48.71776967 0.19844632 55.55758667 0.24050903 C55.55758667 0.57050903 55.55758667 0.90050903 55.55758667 1.24050903 C54.84570694 1.2508165 54.13382721 1.26112396 53.40037537 1.27174377 C46.70475841 1.36955802 40.00923149 1.47204907 33.31376743 1.57984829 C29.87122927 1.63510783 26.42868267 1.6885325 22.98605347 1.73782349 C19.03194141 1.79451704 15.07797723 1.85908398 11.12399292 1.92410278 C9.88234879 1.94081528 8.64070465 1.95752777 7.36143494 1.9747467 C6.22032761 1.99469193 5.07922028 2.01463715 3.90353394 2.03518677 C2.89315567 2.05073105 1.8827774 2.06627533 0.84178162 2.08229065 C-1.40771222 1.98695634 -1.40771222 1.98695634 -2.44241333 3.24050903 C-2.53784428 4.63194592 -2.56429908 6.02819271 -2.56266785 7.42289734 C-2.56404251 8.32458649 -2.56541718 9.22627563 -2.5668335 10.1552887 C-2.56323822 11.15222244 -2.55964294 12.14915619 -2.55593872 13.17630005 C-2.55608475 14.22007813 -2.55623077 15.2638562 -2.55638123 16.33926392 C-2.55568159 19.80766846 -2.54788686 23.27602006 -2.54006958 26.74441528 C-2.53820558 29.14195222 -2.53678159 31.53948953 -2.53578186 33.93702698 C-2.53195527 40.26146488 -2.52212379 46.58587998 -2.51107788 52.91030884 C-2.50086678 59.35826306 -2.49628489 65.80622094 -2.49124146 72.25418091 C-2.48050165 84.91630004 -2.46361452 97.57840332 -2.44241333 110.24050903 C0.83532171 109.48900881 0.83532171 109.48900881 2.55758667 106.24050903 C3.21758667 106.24050903 3.87758667 106.24050903 4.55758667 106.24050903 C5.15152147 113.81317778 2.99044953 120.11569636 0.55758667 127.24050903 C-0.10241333 127.24050903 -0.76241333 127.24050903 -1.44241333 127.24050903 C-1.75178833 128.18925903 -2.06116333 129.13800903 -2.37991333 130.11550903 C-3.44241333 133.24050903 -3.44241333 133.24050903 -4.44241333 135.24050903 C-5.76241333 135.24050903 -7.08241333 135.24050903 -8.44241333 135.24050903 C-8.77241333 134.58050903 -9.10241333 133.92050903 -9.44241333 133.24050903 C-10.43241333 134.23050903 -10.43241333 134.23050903 -11.44241333 135.24050903 C-12.43241333 134.91050903 -13.42241333 134.58050903 -14.44241333 134.24050903 C-14.04409302 133.45289185 -13.64577271 132.66527466 -13.23538208 131.85379028 C-12.44067505 130.21990356 -12.44067505 130.21990356 -11.62991333 128.55300903 C-11.10784302 127.49726685 -10.58577271 126.44152466 -10.04788208 125.35379028 C-4.44883037 111.90504804 -5.00163311 98.15663235 -5.00100708 83.85379028 C-4.98922104 81.50060713 -4.97585383 79.14743143 -4.96098328 76.79426575 C-4.92499247 70.63847404 -4.90464513 64.48274843 -4.88943481 58.32687378 C-4.86448077 48.43627355 -4.82510511 38.54581893 -4.76753426 28.65535545 C-4.75117566 25.20187856 -4.74742669 21.74853958 -4.74452209 18.29502869 C-4.73475345 16.19392655 -4.72449144 14.09282663 -4.71365356 11.99172974 C-4.71620651 11.02816559 -4.71875946 10.06460144 -4.72138977 9.07183838 C-4.71456177 8.1959758 -4.70773376 7.32011322 -4.70069885 6.41770935 C-4.69906455 5.65475713 -4.69743025 4.8918049 -4.69574642 4.10573292 C-4.27344491 0.9964397 -3.0029783 0.29570892 0 0 Z " fill="#01D423" transform="translate(238.44241333007813,111.75949096679688)"/>
<path d="M0 0 C0.99 0.33 1.98 0.66 3 1 C3 9.58 3 18.16 3 27 C4.65 26.67 6.3 26.34 8 26 C8.66 26.66 9.32 27.32 10 28 C9 29 9 29 6.0625 29.1875 C3 29 3 29 1 27 C0.68115234 24.29443359 0.68115234 24.29443359 0.5859375 20.8984375 C0.54726563 19.68671875 0.50859375 18.475 0.46875 17.2265625 C0.4378125 15.95554687 0.406875 14.68453125 0.375 13.375 C0.33632813 12.09625 0.29765625 10.8175 0.2578125 9.5 C0.16328951 6.33347983 0.07773643 3.1669696 0 0 Z " fill="#05D21E" transform="translate(288,47)"/>
<path d="M0 0 C0.66 0.66 1.32 1.32 2 2 C1.70159119 8.07147148 -0.52629019 13.53480995 -3.11328125 18.94921875 C-4.25255679 21.58410712 -4.70812757 24.15424379 -5 27 C-6.32 26.67 -7.64 26.34 -9 26 C-8.60167969 25.21238281 -8.20335937 24.42476562 -7.79296875 23.61328125 C-4.00403142 15.8233736 -1.59398258 8.54318734 0 0 Z " fill="#0ED326" transform="translate(233,220)"/>
<path d="M0 0 C0.33 1.32 0.66 2.64 1 4 C0.195625 4.61875 -0.60875 5.2375 -1.4375 5.875 C-4.03874519 7.74164041 -4.03874519 7.74164041 -5 10 C-5.66 10 -6.32 10 -7 10 C-5.33248852 6.05860922 -2.77289351 3.2107188 0 0 Z " fill="#08D120" transform="translate(169,265)"/>
<path d="M0 0 C0.33 0 0.66 0 1 0 C1.18451025 9.41002278 1.18451025 9.41002278 0 14 C-0.33 14 -0.66 14 -1 14 C-1.22226864 12.23086176 -1.42733873 10.45955629 -1.625 8.6875 C-1.74101562 7.70136719 -1.85703125 6.71523438 -1.9765625 5.69921875 C-2 3 -2 3 0 0 Z " fill="#04D218" transform="translate(155,261)"/>
<path d="M0 0 C0.66 0.33 1.32 0.66 2 1 C0.02 3.31 -1.96 5.62 -4 8 C-4.99 7.34 -5.98 6.68 -7 6 C-4.69 4.02 -2.38 2.04 0 0 Z " fill="#05D420" transform="translate(258,60)"/>
</svg>
