<?xml version="1.0" encoding="UTF-8"?>
<svg width="60" height="60" viewBox="0 0 60 60" xmlns="http://www.w3.org/2000/svg">
  <!-- ГИБКОСТЬ -->
  <g id="icon-flexibility">
    <path class="animate-path" d="M30 10C18.954 10 10 18.954 10 30C10 41.046 18.954 50 30 50" fill="none" stroke="#00BA00" stroke-width="2"/>
    <path class="animate-path" d="M30 50C41.046 50 50 41.046 50 30C50 18.954 41.046 10 30 10" fill="none" stroke="#00BA00" stroke-width="2"/>
    <path class="animate-path" d="M30 20C24.477 20 20 24.477 20 30C20 35.523 24.477 40 30 40" fill="none" stroke="#00BA00" stroke-width="2"/>
    <path class="animate-path" d="M30 40C35.523 40 40 35.523 40 30C40 24.477 35.523 20 30 20" fill="none" stroke="#00BA00" stroke-width="2"/>
    <path class="animate-fill" d="M30 10C18.954 10 10 18.954 10 30C10 41.046 18.954 50 30 50C41.046 50 50 41.046 50 30C50 18.954 41.046 10 30 10Z" fill="#00BA00" fill-opacity="0.1"/>
  </g>
</svg>
